<svg width="32" height="32" viewBox="0 0 32 32" fill="none" xmlns="http://www.w3.org/2000/svg">
<rect width="32" height="32" rx="4" fill="#0E8478"/>
<path d="M16.8334 10.1667C16.8334 9.70647 16.4603 9.33337 16 9.33337C15.5398 9.33337 15.1667 9.70647 15.1667 10.1667V15.1667H10.1667C9.70647 15.1667 9.33337 15.5398 9.33337 16C9.33337 16.4603 9.70647 16.8334 10.1667 16.8334H15.1667V21.8334C15.1667 22.2936 15.5398 22.6667 16 22.6667C16.4603 22.6667 16.8334 22.2936 16.8334 21.8334V16.8334H21.8334C22.2936 16.8334 22.6667 16.4603 22.6667 16C22.6667 15.5398 22.2936 15.1667 21.8334 15.1667H16.8334V10.1667Z" fill="white"/>
</svg>
