<svg width="24" height="25" viewBox="0 0 24 25" fill="none" xmlns="http://www.w3.org/2000/svg">
<g clip-path="url(#clip0_3163_25275)">
<path d="M21.155 4.25638L18.871 1.89737C18.5905 1.60934 18.2553 1.38022 17.8851 1.22344C17.5149 1.06666 17.1171 0.985381 16.715 0.984375H12C10.8478 0.98583 9.73132 1.38447 8.83875 2.11309C7.94618 2.84172 7.3321 3.85579 7.1 4.98438H7C5.67441 4.98596 4.40356 5.51326 3.46622 6.45059C2.52888 7.38793 2.00159 8.65878 2 9.98438V19.9844C2.00159 21.31 2.52888 22.5808 3.46622 23.5182C4.40356 24.4555 5.67441 24.9828 7 24.9844H13C14.3256 24.9828 15.5964 24.4555 16.5338 23.5182C17.4711 22.5808 17.9984 21.31 18 19.9844V19.8844C19.1286 19.6523 20.1427 19.0382 20.8713 18.1456C21.5999 17.2531 21.9985 16.1366 22 14.9844V6.34438C22.0015 5.56479 21.6983 4.81549 21.155 4.25638V4.25638ZM13 22.9844H7C6.20435 22.9844 5.44129 22.6683 4.87868 22.1057C4.31607 21.5431 4 20.78 4 19.9844V9.98438C4 9.18873 4.31607 8.42566 4.87868 7.86305C5.44129 7.30045 6.20435 6.98438 7 6.98438V14.9844C7.00159 16.31 7.52888 17.5808 8.46622 18.5182C9.40356 19.4555 10.6744 19.9828 12 19.9844H16C16 20.78 15.6839 21.5431 15.1213 22.1057C14.5587 22.6683 13.7957 22.9844 13 22.9844ZM17 17.9844H12C11.2044 17.9844 10.4413 17.6683 9.87868 17.1057C9.31607 16.5431 9 15.78 9 14.9844V5.98438C9 5.18873 9.31607 4.42566 9.87868 3.86305C10.4413 3.30045 11.2044 2.98438 12 2.98438H16V4.98438C16 5.51481 16.2107 6.02352 16.5858 6.39859C16.9609 6.77366 17.4696 6.98437 18 6.98438H20V14.9844C20 15.78 19.6839 16.5431 19.1213 17.1057C18.5587 17.6683 17.7957 17.9844 17 17.9844V17.9844Z" fill="#1E1E1E"/>
</g>
<defs>
<clipPath id="clip0_3163_25275">
<rect width="24" height="24" fill="white" transform="translate(0 0.984375)"/>
</clipPath>
</defs>
</svg>
