<svg width="24" height="25" viewBox="0 0 24 25" fill="none" xmlns="http://www.w3.org/2000/svg">
<g clip-path="url(#clip0_3163_33654)">
<path d="M14 11.9834V14.9834C14 15.5354 13.552 15.9834 13 15.9834C12.448 15.9834 12 15.5354 12 14.9834V12.3974L7.707 16.6904C7.512 16.8854 7.256 16.9834 7 16.9834C6.744 16.9834 6.488 16.8854 6.293 16.6904C5.902 16.2994 5.902 15.6674 6.293 15.2764L10.586 10.9834H8C7.448 10.9834 7 10.5354 7 9.98338C7 9.43138 7.448 8.98338 8 8.98338H11C12.654 8.98338 14 10.3294 14 11.9834ZM24 9.29637V16.6154C24 17.3714 23.58 18.0524 22.903 18.3904C22.62 18.5314 22.316 18.6014 22.014 18.6014C21.594 18.6014 21.177 18.4664 20.825 18.2024C20.787 18.1744 20.752 18.1434 20.719 18.1104L18.963 16.3564C18.769 18.9374 16.63 20.9844 14.001 20.9844H5C2.243 20.9844 0 18.7414 0 15.9844V9.98438C0 7.22738 2.243 4.98438 5 4.98438H14C16.618 4.98438 18.748 7.01338 18.959 9.57838L20.715 7.80638C20.75 7.77137 20.786 7.74038 20.825 7.71038C21.43 7.25638 22.226 7.18538 22.903 7.52238C23.579 7.86038 24 8.54138 24 9.29738V9.29637ZM17 9.98338C17 8.32938 15.654 6.98338 14 6.98338H5C3.346 6.98338 2 8.32938 2 9.98338V15.9834C2 17.6374 3.346 18.9834 5 18.9834H14C15.654 18.9834 17 17.6374 17 15.9834V9.98338ZM22.025 16.5884L22 9.34938L19 12.3774V13.5664L22.025 16.5884Z" fill="#1E1E1E"/>
</g>
<defs>
<clipPath id="clip0_3163_33654">
<rect width="24" height="24" fill="white" transform="translate(0 0.984375)"/>
</clipPath>
</defs>
</svg>
