<svg width="24" height="25" viewBox="0 0 24 25" fill="none" xmlns="http://www.w3.org/2000/svg">
<g clip-path="url(#clip0_3163_25315)">
<path d="M24.0001 23.9859C24.0001 24.2511 23.8948 24.5055 23.7073 24.693C23.5197 24.8805 23.2654 24.9859 23.0001 24.9859H1.00015C0.73493 24.9859 0.480576 24.8805 0.29304 24.693C0.105504 24.5055 0.000146694 24.2511 0.000146694 23.9859C0.000146694 23.7207 0.105504 23.4663 0.29304 23.2788C0.480576 23.0913 0.73493 22.9859 1.00015 22.9859H23.0001C23.2654 22.9859 23.5197 23.0913 23.7073 23.2788C23.8948 23.4663 24.0001 23.7207 24.0001 23.9859ZM0.291147 9.5379C0.075669 9.13822 -0.0241587 8.6864 0.00286712 8.23315C0.0298929 7.77989 0.182703 7.34313 0.444147 6.9719C0.871405 6.34501 1.44359 5.83046 2.11215 5.4719L9.61315 1.5679C10.3504 1.18453 11.1692 0.984375 12.0001 0.984375C12.8311 0.984375 13.6499 1.18453 14.3871 1.5679L21.8871 5.4749C22.5557 5.83346 23.1279 6.34801 23.5551 6.9749C23.8166 7.34613 23.9694 7.78289 23.9964 8.23615C24.0235 8.6894 23.9236 9.14122 23.7081 9.5409C23.4762 9.97973 23.1282 10.3465 22.7022 10.6013C22.2762 10.8561 21.7885 10.9891 21.2921 10.9859H21.0001V18.9859H22.0001C22.2654 18.9859 22.5197 19.0913 22.7073 19.2788C22.8948 19.4663 23.0001 19.7207 23.0001 19.9859C23.0001 20.2511 22.8948 20.5055 22.7073 20.693C22.5197 20.8805 22.2654 20.9859 22.0001 20.9859H2.00015C1.73493 20.9859 1.48058 20.8805 1.29304 20.693C1.1055 20.5055 1.00015 20.2511 1.00015 19.9859C1.00015 19.7207 1.1055 19.4663 1.29304 19.2788C1.48058 19.0913 1.73493 18.9859 2.00015 18.9859H3.00015V10.9859H2.70815C2.21131 10.989 1.72315 10.8556 1.29694 10.6003C0.870718 10.3449 0.522805 9.97744 0.291147 9.5379V9.5379ZM5.00015 18.9859H8.00015V10.9859H5.00015V18.9859ZM10.0001 10.9859V18.9859H14.0001V10.9859H10.0001ZM19.0001 10.9859H16.0001V18.9859H19.0001V10.9859ZM2.06315 8.6109C2.12589 8.72658 2.21926 8.82275 2.33303 8.8889C2.4468 8.95504 2.57658 8.9886 2.70815 8.9859H21.2921C21.4237 8.9886 21.5535 8.95504 21.6673 8.8889C21.781 8.82275 21.8744 8.72658 21.9371 8.6109C21.9829 8.53446 22.005 8.44623 22.0007 8.35727C21.9964 8.26832 21.966 8.1826 21.9131 8.1109C21.6709 7.75081 21.3453 7.45444 20.9642 7.2469L13.4641 3.3399C13.0122 3.10532 12.5104 2.98287 12.0011 2.98287C11.4919 2.98287 10.9901 3.10532 10.5381 3.3399L3.03815 7.2469C2.65713 7.4551 2.33168 7.75175 2.08915 8.1119C2.03624 8.1833 2.00555 8.26872 2.00092 8.35748C1.9963 8.44623 2.01794 8.53438 2.06315 8.6109V8.6109Z" fill="#1E1E1E"/>
</g>
<defs>
<clipPath id="clip0_3163_25315">
<rect width="24" height="24" fill="white" transform="translate(0 0.984375)"/>
</clipPath>
</defs>
</svg>
