<svg width="24" height="25" viewBox="0 0 24 25" fill="none" xmlns="http://www.w3.org/2000/svg">
<g clip-path="url(#clip0_6817_12691)">
<path d="M14 11.9853V14.9853C14 15.5373 13.552 15.9853 13 15.9853C12.448 15.9853 12 15.5373 12 14.9853V12.3993L7.707 16.6923C7.512 16.8873 7.256 16.9853 7 16.9853C6.744 16.9853 6.488 16.8873 6.293 16.6923C5.902 16.3013 5.902 15.6693 6.293 15.2783L10.586 10.9853H8C7.448 10.9853 7 10.5373 7 9.98533C7 9.43333 7.448 8.98533 8 8.98533H11C12.654 8.98533 14 10.3313 14 11.9853ZM24 9.29833V16.6173C24 17.3733 23.58 18.0543 22.903 18.3923C22.62 18.5333 22.316 18.6033 22.014 18.6033C21.594 18.6033 21.177 18.4683 20.825 18.2043C20.787 18.1763 20.752 18.1453 20.719 18.1123L18.963 16.3583C18.769 18.9393 16.63 20.9863 14.001 20.9863H5C2.243 20.9863 0 18.7433 0 15.9863V9.98633C0 7.22933 2.243 4.98633 5 4.98633H14C16.618 4.98633 18.748 7.01533 18.959 9.58033L20.715 7.80833C20.75 7.77333 20.786 7.74233 20.825 7.71233C21.43 7.25833 22.226 7.18733 22.903 7.52433C23.579 7.86233 24 8.54333 24 9.29933V9.29833ZM17 9.98533C17 8.33133 15.654 6.98533 14 6.98533H5C3.346 6.98533 2 8.33133 2 9.98533V15.9853C2 17.6393 3.346 18.9853 5 18.9853H14C15.654 18.9853 17 17.6393 17 15.9853V9.98533ZM22.025 16.5903L22 9.35133L19 12.3793V13.5683L22.025 16.5903Z" fill="white"/>
</g>
<defs>
<clipPath id="clip0_6817_12691">
<rect width="24" height="24" fill="white" transform="translate(0 0.985352)"/>
</clipPath>
</defs>
</svg>
