<svg width="24" height="25" viewBox="0 0 24 25" fill="none" xmlns="http://www.w3.org/2000/svg">
<path d="M21.155 20.7267C22.9916 18.5655 23.9999 15.8218 23.9999 12.9857C23.9999 10.1495 22.9916 7.4058 21.155 5.24465L22.015 4.38465C22.2025 4.19701 22.3078 3.94257 22.3077 3.6773C22.3076 3.41203 22.2021 3.15766 22.0145 2.97015C21.8269 2.78265 21.5724 2.67736 21.3071 2.67745C21.0419 2.67755 20.7875 2.78301 20.6 2.97065L19.74 3.83065C17.5788 1.99408 14.8351 0.985718 11.999 0.985718C9.16288 0.985718 6.41915 1.99408 4.258 3.83065L3.398 2.97065C3.20927 2.78863 2.95659 2.68801 2.69439 2.69047C2.4322 2.69293 2.18146 2.79828 1.99618 2.98382C1.8109 3.16936 1.70591 3.42025 1.70382 3.68245C1.70173 3.94465 1.8027 4.19718 1.985 4.38565L2.845 5.24565C1.00842 7.4068 6.10352e-05 10.1505 6.10352e-05 12.9867C6.10352e-05 15.8228 1.00842 18.5665 2.845 20.7277L1.985 21.5877C1.88955 21.68 1.81345 21.7904 1.76113 21.9124C1.70881 22.0344 1.68132 22.1657 1.68026 22.2985C1.6792 22.4312 1.7046 22.5629 1.75496 22.6858C1.80533 22.8086 1.87966 22.9202 1.97362 23.014C2.06758 23.1079 2.17928 23.182 2.30221 23.2322C2.42514 23.2824 2.55684 23.3076 2.68962 23.3064C2.82239 23.3052 2.95359 23.2775 3.07556 23.225C3.19753 23.1725 3.30782 23.0962 3.4 23.0007L4.26 22.1407C6.42115 23.9772 9.16488 24.9856 12.001 24.9856C14.8371 24.9856 17.5808 23.9772 19.742 22.1407L20.602 23.0007C20.7907 23.1827 21.0434 23.2833 21.3056 23.2808C21.5678 23.2784 21.8185 23.173 22.0038 22.9875C22.1891 22.802 22.2941 22.5511 22.2962 22.2889C22.2983 22.0267 22.1973 21.7741 22.015 21.5857L21.155 20.7267ZM22 12.9857C22.0018 15.2921 21.2022 17.5276 19.738 19.3097L16.167 15.7387C16.7101 14.9232 16.9999 13.9654 16.9999 12.9857C16.9999 12.0059 16.7101 11.0481 16.167 10.2327L19.738 6.66165C21.2022 8.44373 22.0018 10.6792 22 12.9857ZM9 12.9857C9 12.3923 9.17595 11.8123 9.50559 11.3189C9.83523 10.8256 10.3038 10.4411 10.8519 10.214C11.4001 9.98695 12.0033 9.92754 12.5853 10.0433C13.1672 10.1591 13.7018 10.4448 14.1213 10.8643C14.5409 11.2839 14.8266 11.8184 14.9424 12.4004C15.0581 12.9823 14.9987 13.5855 14.7716 14.1337C14.5446 14.6819 14.1601 15.1504 13.6667 15.4801C13.1734 15.8097 12.5933 15.9857 12 15.9857C11.2043 15.9857 10.4413 15.6696 9.87868 15.107C9.31607 14.5444 9 13.7813 9 12.9857ZM12 2.98565C14.3065 2.98381 16.5419 3.7834 18.324 5.24765L14.753 8.81865C13.9376 8.27552 12.9797 7.98571 12 7.98571C11.0203 7.98571 10.0624 8.27552 9.247 8.81865L5.676 5.24765C7.45807 3.7834 9.69353 2.98381 12 2.98565ZM2 12.9857C1.99816 10.6792 2.79775 8.44373 4.262 6.66165L7.833 10.2327C7.28986 11.0481 7.00005 12.0059 7.00005 12.9857C7.00005 13.9654 7.28986 14.9232 7.833 15.7387L4.262 19.3097C2.79775 17.5276 1.99816 15.2921 2 12.9857ZM12 22.9857C9.69353 22.9875 7.45807 22.1879 5.676 20.7237L9.247 17.1527C10.0624 17.6958 11.0203 17.9856 12 17.9856C12.9797 17.9856 13.9376 17.6958 14.753 17.1527L18.324 20.7237C16.5419 22.1879 14.3065 22.9875 12 22.9857Z" fill="white"/>
</svg>
