<svg width="24" height="25" viewBox="0 0 24 25" fill="none" xmlns="http://www.w3.org/2000/svg">
<g clip-path="url(#clip0_748_945)">
<path d="M21 12.9856H18C17.4696 12.9856 16.9609 13.1963 16.5858 13.5714C16.2107 13.9465 16 14.4552 16 14.9856C16 15.516 15.7893 16.0247 15.4142 16.3998C15.0391 16.7749 14.5304 16.9856 14 16.9856H10C9.46957 16.9856 8.96086 16.7749 8.58579 16.3998C8.21071 16.0247 8 15.516 8 14.9856C8 14.4552 7.78929 13.9465 7.41421 13.5714C7.03914 13.1963 6.53043 12.9856 6 12.9856H3C2.20435 12.9856 1.44129 13.3017 0.87868 13.8643C0.31607 14.4269 0 15.1899 0 15.9856L0 19.9856C0.00158786 21.3112 0.528882 22.582 1.46622 23.5194C2.40356 24.4567 3.67441 24.984 5 24.9856H19C20.3256 24.984 21.5964 24.4567 22.5338 23.5194C23.4711 22.582 23.9984 21.3112 24 19.9856V15.9856C24 15.1899 23.6839 14.4269 23.1213 13.8643C22.5587 13.3017 21.7956 12.9856 21 12.9856ZM22 19.9856C22 20.7812 21.6839 21.5443 21.1213 22.1069C20.5587 22.6695 19.7956 22.9856 19 22.9856H5C4.20435 22.9856 3.44129 22.6695 2.87868 22.1069C2.31607 21.5443 2 20.7812 2 19.9856V15.9856C2 15.7204 2.10536 15.466 2.29289 15.2785C2.48043 15.091 2.73478 14.9856 3 14.9856H6C6 16.0465 6.42143 17.0639 7.17157 17.814C7.92172 18.5642 8.93913 18.9856 10 18.9856H14C15.0609 18.9856 16.0783 18.5642 16.8284 17.814C17.5786 17.0639 18 16.0465 18 14.9856H21C21.2652 14.9856 21.5196 15.091 21.7071 15.2785C21.8946 15.466 22 15.7204 22 15.9856V19.9856Z" fill="white"/>
<path d="M3 10.9856H21C21.2652 10.9856 21.5196 10.8802 21.7071 10.6927C21.8946 10.5052 22 10.2508 22 9.9856C22 9.72038 21.8946 9.46603 21.7071 9.27849C21.5196 9.09095 21.2652 8.9856 21 8.9856H3C2.73478 8.9856 2.48043 9.09095 2.29289 9.27849C2.10536 9.46603 2 9.72038 2 9.9856C2 10.2508 2.10536 10.5052 2.29289 10.6927C2.48043 10.8802 2.73478 10.9856 3 10.9856Z" fill="white"/>
<path d="M3 6.9856H21C21.2652 6.9856 21.5196 6.88024 21.7071 6.6927C21.8946 6.50517 22 6.25081 22 5.9856C22 5.72038 21.8946 5.46603 21.7071 5.27849C21.5196 5.09095 21.2652 4.9856 21 4.9856H3C2.73478 4.9856 2.48043 5.09095 2.29289 5.27849C2.10536 5.46603 2 5.72038 2 5.9856C2 6.25081 2.10536 6.50517 2.29289 6.6927C2.48043 6.88024 2.73478 6.9856 3 6.9856Z" fill="white"/>
</g>
<defs>
<clipPath id="clip0_748_945">
<rect width="24" height="24" fill="white" transform="translate(0 0.985596)"/>
</clipPath>
</defs>
</svg>
