<svg width="16" height="8" viewBox="0 0 16 8" fill="none" xmlns="http://www.w3.org/2000/svg">
<path d="M14.8513 0.00457954C14.701 0.00372791 14.552 0.0319624 14.4129 0.0876627C14.2737 0.143363 14.1472 0.225434 14.0405 0.32917L8.80988 5.46666C8.70371 5.57156 8.5774 5.65483 8.43823 5.71166C8.29906 5.76848 8.14979 5.79774 7.99903 5.79774C7.84826 5.79774 7.69899 5.76848 7.55982 5.71166C7.42065 5.65483 7.29434 5.57156 7.18817 5.46666L1.95758 0.32917C1.74253 0.118406 1.45085 4.76837e-07 1.14672 4.76837e-07C0.842593 4.76837e-07 0.55092 0.118406 0.335868 0.32917C0.120815 0.539934 0 0.825792 0 1.12386C0 1.27144 0.0296612 1.41759 0.0872895 1.55394C0.144918 1.69029 0.229384 1.81419 0.335868 1.91854L5.57788 7.04484C6.22878 7.65772 7.0964 8 7.99903 8C8.90165 8 9.76927 7.65772 10.4202 7.04484L15.6622 1.91854C15.7692 1.81449 15.8542 1.6907 15.9122 1.55431C15.9701 1.41791 16 1.27162 16 1.12386C16 0.976099 15.9701 0.829803 15.9122 0.693409C15.8542 0.557015 15.7692 0.433221 15.6622 0.32917C15.5555 0.225434 15.4289 0.143363 15.2898 0.0876627C15.1506 0.0319624 15.0016 0.00372791 14.8513 0.00457954Z" fill="#1E1E1E"/>
</svg>
