<svg width="24" height="25" viewBox="0 0 24 25" fill="none" xmlns="http://www.w3.org/2000/svg">
<g clip-path="url(#clip0_3163_25303)">
<path d="M7 14.9844C7 15.2496 6.89464 15.5039 6.70711 15.6915C6.51957 15.879 6.26522 15.9844 6 15.9844H5C4.73478 15.9844 4.48043 15.879 4.29289 15.6915C4.10536 15.5039 4 15.2496 4 14.9844C4 14.7192 4.10536 14.4648 4.29289 14.2773C4.48043 14.0897 4.73478 13.9844 5 13.9844H6C6.26522 13.9844 6.51957 14.0897 6.70711 14.2773C6.89464 14.4648 7 14.7192 7 14.9844ZM11 13.9844H10C9.73478 13.9844 9.48043 14.0897 9.29289 14.2773C9.10536 14.4648 9 14.7192 9 14.9844C9 15.2496 9.10536 15.5039 9.29289 15.6915C9.48043 15.879 9.73478 15.9844 10 15.9844H11C11.2652 15.9844 11.5196 15.879 11.7071 15.6915C11.8946 15.5039 12 15.2496 12 14.9844C12 14.7192 11.8946 14.4648 11.7071 14.2773C11.5196 14.0897 11.2652 13.9844 11 13.9844ZM6 17.9844H5C4.73478 17.9844 4.48043 18.0897 4.29289 18.2773C4.10536 18.4648 4 18.7192 4 18.9844C4 19.2496 4.10536 19.5039 4.29289 19.6915C4.48043 19.879 4.73478 19.9844 5 19.9844H6C6.26522 19.9844 6.51957 19.879 6.70711 19.6915C6.89464 19.5039 7 19.2496 7 18.9844C7 18.7192 6.89464 18.4648 6.70711 18.2773C6.51957 18.0897 6.26522 17.9844 6 17.9844ZM11 17.9844H10C9.73478 17.9844 9.48043 18.0897 9.29289 18.2773C9.10536 18.4648 9 18.7192 9 18.9844C9 19.2496 9.10536 19.5039 9.29289 19.6915C9.48043 19.879 9.73478 19.9844 10 19.9844H11C11.2652 19.9844 11.5196 19.879 11.7071 19.6915C11.8946 19.5039 12 19.2496 12 18.9844C12 18.7192 11.8946 18.4648 11.7071 18.2773C11.5196 18.0897 11.2652 17.9844 11 17.9844ZM6 5.98438H5C4.73478 5.98438 4.48043 6.08973 4.29289 6.27727C4.10536 6.4648 4 6.71916 4 6.98438C4 7.24959 4.10536 7.50395 4.29289 7.69148C4.48043 7.87902 4.73478 7.98438 5 7.98438H6C6.26522 7.98438 6.51957 7.87902 6.70711 7.69148C6.89464 7.50395 7 7.24959 7 6.98438C7 6.71916 6.89464 6.4648 6.70711 6.27727C6.51957 6.08973 6.26522 5.98438 6 5.98438ZM11 5.98438H10C9.73478 5.98438 9.48043 6.08973 9.29289 6.27727C9.10536 6.4648 9 6.71916 9 6.98438C9 7.24959 9.10536 7.50395 9.29289 7.69148C9.48043 7.87902 9.73478 7.98438 10 7.98438H11C11.2652 7.98438 11.5196 7.87902 11.7071 7.69148C11.8946 7.50395 12 7.24959 12 6.98438C12 6.71916 11.8946 6.4648 11.7071 6.27727C11.5196 6.08973 11.2652 5.98438 11 5.98438ZM6 9.98438H5C4.73478 9.98438 4.48043 10.0897 4.29289 10.2773C4.10536 10.4648 4 10.7192 4 10.9844C4 11.2496 4.10536 11.5039 4.29289 11.6915C4.48043 11.879 4.73478 11.9844 5 11.9844H6C6.26522 11.9844 6.51957 11.879 6.70711 11.6915C6.89464 11.5039 7 11.2496 7 10.9844C7 10.7192 6.89464 10.4648 6.70711 10.2773C6.51957 10.0897 6.26522 9.98438 6 9.98438ZM11 9.98438H10C9.73478 9.98438 9.48043 10.0897 9.29289 10.2773C9.10536 10.4648 9 10.7192 9 10.9844C9 11.2496 9.10536 11.5039 9.29289 11.6915C9.48043 11.879 9.73478 11.9844 10 11.9844H11C11.2652 11.9844 11.5196 11.879 11.7071 11.6915C11.8946 11.5039 12 11.2496 12 10.9844C12 10.7192 11.8946 10.4648 11.7071 10.2773C11.5196 10.0897 11.2652 9.98438 11 9.98438ZM24 10.9844V19.9844C23.9984 21.31 23.4711 22.5808 22.5338 23.5182C21.5964 24.4555 20.3256 24.9828 19 24.9844H5C3.6744 24.9828 2.40356 24.4555 1.46622 23.5182C0.528882 22.5808 0.00158786 21.31 0 19.9844L0 5.98438C0.00158786 4.65878 0.528882 3.38793 1.46622 2.45059C2.40356 1.51326 3.6744 0.985963 5 0.984375L11 0.984375C12.3256 0.985963 13.5964 1.51326 14.5338 2.45059C15.4711 3.38793 15.9984 4.65878 16 5.98438H19C20.3256 5.98596 21.5964 6.51326 22.5338 7.45059C23.4711 8.38793 23.9984 9.65878 24 10.9844V10.9844ZM5 22.9844H14V5.98438C14 5.18873 13.6839 4.42566 13.1213 3.86305C12.5587 3.30045 11.7956 2.98438 11 2.98438H5C4.20435 2.98438 3.44129 3.30045 2.87868 3.86305C2.31607 4.42566 2 5.18873 2 5.98438V19.9844C2 20.78 2.31607 21.5431 2.87868 22.1057C3.44129 22.6683 4.20435 22.9844 5 22.9844ZM22 10.9844C22 10.1887 21.6839 9.42566 21.1213 8.86305C20.5587 8.30045 19.7956 7.98438 19 7.98438H16V22.9844H19C19.7956 22.9844 20.5587 22.6683 21.1213 22.1057C21.6839 21.5431 22 20.78 22 19.9844V10.9844ZM19 13.9844C18.8022 13.9844 18.6089 14.043 18.4444 14.1529C18.28 14.2628 18.1518 14.419 18.0761 14.6017C18.0004 14.7844 17.9806 14.9855 18.0192 15.1795C18.0578 15.3734 18.153 15.5516 18.2929 15.6915C18.4327 15.8313 18.6109 15.9266 18.8049 15.9652C18.9989 16.0037 19.2 15.9839 19.3827 15.9083C19.5654 15.8326 19.7216 15.7044 19.8315 15.5399C19.9414 15.3755 20 15.1822 20 14.9844C20 14.7192 19.8946 14.4648 19.7071 14.2773C19.5196 14.0897 19.2652 13.9844 19 13.9844ZM19 17.9844C18.8022 17.9844 18.6089 18.043 18.4444 18.1529C18.28 18.2628 18.1518 18.419 18.0761 18.6017C18.0004 18.7844 17.9806 18.9855 18.0192 19.1795C18.0578 19.3734 18.153 19.5516 18.2929 19.6915C18.4327 19.8313 18.6109 19.9266 18.8049 19.9652C18.9989 20.0037 19.2 19.9839 19.3827 19.9083C19.5654 19.8326 19.7216 19.7044 19.8315 19.5399C19.9414 19.3755 20 19.1822 20 18.9844C20 18.7192 19.8946 18.4648 19.7071 18.2773C19.5196 18.0897 19.2652 17.9844 19 17.9844ZM19 9.98438C18.8022 9.98438 18.6089 10.043 18.4444 10.1529C18.28 10.2628 18.1518 10.419 18.0761 10.6017C18.0004 10.7844 17.9806 10.9855 18.0192 11.1795C18.0578 11.3734 18.153 11.5516 18.2929 11.6915C18.4327 11.8313 18.6109 11.9266 18.8049 11.9652C18.9989 12.0037 19.2 11.9839 19.3827 11.9083C19.5654 11.8326 19.7216 11.7044 19.8315 11.5399C19.9414 11.3755 20 11.1822 20 10.9844C20 10.7192 19.8946 10.4648 19.7071 10.2773C19.5196 10.0897 19.2652 9.98438 19 9.98438Z" fill="#1E1E1E"/>
</g>
<defs>
<clipPath id="clip0_3163_25303">
<rect width="24" height="24" fill="white" transform="translate(0 0.984375)"/>
</clipPath>
</defs>
</svg>
