<svg width="24" height="25" viewBox="0 0 24 25" fill="none" xmlns="http://www.w3.org/2000/svg">
<g clip-path="url(#clip0_3163_25268)">
<path d="M19 2.98438H18V1.98438C18 1.71916 17.8946 1.4648 17.7071 1.27727C17.5196 1.08973 17.2652 0.984375 17 0.984375C16.7348 0.984375 16.4804 1.08973 16.2929 1.27727C16.1054 1.4648 16 1.71916 16 1.98438V2.98438H8V1.98438C8 1.71916 7.89464 1.4648 7.70711 1.27727C7.51957 1.08973 7.26522 0.984375 7 0.984375C6.73478 0.984375 6.48043 1.08973 6.29289 1.27727C6.10536 1.4648 6 1.71916 6 1.98438V2.98438H5C3.6744 2.98596 2.40356 3.51326 1.46622 4.45059C0.528882 5.38793 0.00158786 6.65878 0 7.98438L0 19.9844C0.00158786 21.31 0.528882 22.5808 1.46622 23.5182C2.40356 24.4555 3.6744 24.9828 5 24.9844H19C20.3256 24.9828 21.5964 24.4555 22.5338 23.5182C23.4711 22.5808 23.9984 21.31 24 19.9844V7.98438C23.9984 6.65878 23.4711 5.38793 22.5338 4.45059C21.5964 3.51326 20.3256 2.98596 19 2.98438V2.98438ZM2 7.98438C2 7.18873 2.31607 6.42566 2.87868 5.86305C3.44129 5.30045 4.20435 4.98438 5 4.98438H19C19.7956 4.98438 20.5587 5.30045 21.1213 5.86305C21.6839 6.42566 22 7.18873 22 7.98438V8.98438H2V7.98438ZM19 22.9844H5C4.20435 22.9844 3.44129 22.6683 2.87868 22.1057C2.31607 21.5431 2 20.78 2 19.9844V10.9844H22V19.9844C22 20.78 21.6839 21.5431 21.1213 22.1057C20.5587 22.6683 19.7956 22.9844 19 22.9844Z" fill="#1E1E1E"/>
<path d="M12 17.4844C12.8284 17.4844 13.5 16.8128 13.5 15.9844C13.5 15.1559 12.8284 14.4844 12 14.4844C11.1716 14.4844 10.5 15.1559 10.5 15.9844C10.5 16.8128 11.1716 17.4844 12 17.4844Z" fill="#1E1E1E"/>
<path d="M7 17.4844C7.82843 17.4844 8.5 16.8128 8.5 15.9844C8.5 15.1559 7.82843 14.4844 7 14.4844C6.17157 14.4844 5.5 15.1559 5.5 15.9844C5.5 16.8128 6.17157 17.4844 7 17.4844Z" fill="#1E1E1E"/>
<path d="M17 17.4844C17.8284 17.4844 18.5 16.8128 18.5 15.9844C18.5 15.1559 17.8284 14.4844 17 14.4844C16.1716 14.4844 15.5 15.1559 15.5 15.9844C15.5 16.8128 16.1716 17.4844 17 17.4844Z" fill="#1E1E1E"/>
</g>
<defs>
<clipPath id="clip0_3163_25268">
<rect width="24" height="24" fill="white" transform="translate(0 0.984375)"/>
</clipPath>
</defs>
</svg>
