<svg width="24" height="25" viewBox="0 0 24 25" fill="none" xmlns="http://www.w3.org/2000/svg">
<g clip-path="url(#clip0_2729_41786)">
<path d="M12 12.9856C13.1867 12.9856 14.3467 12.6337 15.3334 11.9744C16.3201 11.3151 17.0892 10.3781 17.5433 9.2817C17.9974 8.18534 18.1162 6.97894 17.8847 5.81506C17.6532 4.65117 17.0818 3.58207 16.2426 2.74296C15.4035 1.90384 14.3344 1.3324 13.1705 1.10089C12.0067 0.869375 10.8003 0.988195 9.7039 1.44232C8.60754 1.89645 7.67047 2.66548 7.01118 3.65218C6.35189 4.63887 6 5.79891 6 6.9856C6.00159 8.57641 6.63424 10.1016 7.75911 11.2265C8.88399 12.3514 10.4092 12.984 12 12.9856ZM12 2.9856C12.7911 2.9856 13.5645 3.22019 14.2223 3.65972C14.8801 4.09925 15.3928 4.72396 15.6955 5.45486C15.9983 6.18577 16.0775 6.99004 15.9231 7.76596C15.7688 8.54188 15.3878 9.25462 14.8284 9.81403C14.269 10.3734 13.5563 10.7544 12.7804 10.9087C12.0044 11.0631 11.2002 10.9839 10.4693 10.6811C9.73836 10.3784 9.11365 9.86568 8.67412 9.20788C8.2346 8.55008 8 7.77672 8 6.9856C8 5.92473 8.42143 4.90732 9.17157 4.15717C9.92172 3.40703 10.9391 2.9856 12 2.9856Z" fill="#1E1E1E"/>
<path d="M12 14.9856C9.61386 14.9882 7.32622 15.9373 5.63896 17.6246C3.95171 19.3118 3.00265 21.5995 3 23.9856C3 24.2508 3.10536 24.5052 3.29289 24.6927C3.48043 24.8802 3.73478 24.9856 4 24.9856C4.26522 24.9856 4.51957 24.8802 4.70711 24.6927C4.89464 24.5052 5 24.2508 5 23.9856C5 22.1291 5.7375 20.3486 7.05025 19.0358C8.36301 17.7231 10.1435 16.9856 12 16.9856C13.8565 16.9856 15.637 17.7231 16.9497 19.0358C18.2625 20.3486 19 22.1291 19 23.9856C19 24.2508 19.1054 24.5052 19.2929 24.6927C19.4804 24.8802 19.7348 24.9856 20 24.9856C20.2652 24.9856 20.5196 24.8802 20.7071 24.6927C20.8946 24.5052 21 24.2508 21 23.9856C20.9974 21.5995 20.0483 19.3118 18.361 17.6246C16.6738 15.9373 14.3861 14.9882 12 14.9856Z" fill="#1E1E1E"/>
</g>
<defs>
<clipPath id="clip0_2729_41786">
<rect width="24" height="24" fill="white" transform="translate(0 0.985596)"/>
</clipPath>
</defs>
</svg>
