<svg width="24" height="25" viewBox="0 0 24 25" fill="none" xmlns="http://www.w3.org/2000/svg">
<g clip-path="url(#clip0_3163_25279)">
<path d="M24.0002 12.2319C23.8555 9.89196 23.0293 7.64545 21.6233 5.76936C20.2174 3.89328 18.2932 2.46963 16.0879 1.67393C13.8826 0.878236 11.4927 0.745272 9.21271 1.29143C6.93277 1.8376 4.86249 3.03901 3.2571 4.74756C1.65171 6.45611 0.581393 8.5971 0.178094 10.9066C-0.225205 13.2161 0.0561486 15.5931 0.987468 17.7447C1.91879 19.8962 3.45936 21.7281 5.41926 23.0147C7.37916 24.3012 9.67271 24.9861 12.0172 24.9849H19.0002C20.3258 24.9836 21.5968 24.4564 22.5342 23.519C23.4716 22.5816 23.9988 21.3106 24.0002 19.9849V12.2319ZM22.0002 19.9849C22.0002 20.7806 21.6841 21.5437 21.1215 22.1063C20.5589 22.6689 19.7958 22.9849 19.0002 22.9849H12.0172C10.6061 22.9843 9.211 22.6863 7.92285 22.1102C6.6347 21.5342 5.48243 20.6932 4.54115 19.6419C3.59533 18.5912 2.88508 17.3504 2.45805 16.0027C2.03101 14.655 1.89705 13.2316 2.06515 11.8279C2.33059 9.61388 3.32534 7.55113 4.89259 5.96486C6.45985 4.3786 8.51045 3.35905 10.7212 3.06694C11.1524 3.01289 11.5865 2.9855 12.0212 2.98494C14.3516 2.97858 16.61 3.79284 18.4002 5.28494C19.4457 6.15388 20.3039 7.22609 20.9227 8.43657C21.5415 9.64705 21.9081 10.9706 22.0002 12.3269V19.9849Z" fill="#1E1E1E"/>
<path d="M8 9.98438H12C12.2652 9.98438 12.5196 9.87902 12.7071 9.69148C12.8946 9.50395 13 9.24959 13 8.98438C13 8.71916 12.8946 8.4648 12.7071 8.27727C12.5196 8.08973 12.2652 7.98438 12 7.98438H8C7.73478 7.98438 7.48043 8.08973 7.29289 8.27727C7.10536 8.4648 7 8.71916 7 8.98438C7 9.24959 7.10536 9.50395 7.29289 9.69148C7.48043 9.87902 7.73478 9.98438 8 9.98438Z" fill="#1E1E1E"/>
<path d="M16 11.9844H8C7.73478 11.9844 7.48043 12.0897 7.29289 12.2773C7.10536 12.4648 7 12.7192 7 12.9844C7 13.2496 7.10536 13.5039 7.29289 13.6915C7.48043 13.879 7.73478 13.9844 8 13.9844H16C16.2652 13.9844 16.5196 13.879 16.7071 13.6915C16.8946 13.5039 17 13.2496 17 12.9844C17 12.7192 16.8946 12.4648 16.7071 12.2773C16.5196 12.0897 16.2652 11.9844 16 11.9844Z" fill="#1E1E1E"/>
<path d="M16 15.9844H8C7.73478 15.9844 7.48043 16.0897 7.29289 16.2773C7.10536 16.4648 7 16.7192 7 16.9844C7 17.2496 7.10536 17.5039 7.29289 17.6915C7.48043 17.879 7.73478 17.9844 8 17.9844H16C16.2652 17.9844 16.5196 17.879 16.7071 17.6915C16.8946 17.5039 17 17.2496 17 16.9844C17 16.7192 16.8946 16.4648 16.7071 16.2773C16.5196 16.0897 16.2652 15.9844 16 15.9844Z" fill="#1E1E1E"/>
</g>
<defs>
<clipPath id="clip0_3163_25279">
<rect width="24" height="24" fill="white" transform="translate(0 0.984375)"/>
</clipPath>
</defs>
</svg>
