<svg width="24" height="25" viewBox="0 0 24 25" fill="none" xmlns="http://www.w3.org/2000/svg">
<g clip-path="url(#clip0_2729_41675)">
<path d="M23 11.9856H21V9.9856C21 9.72038 20.8946 9.46603 20.7071 9.27849C20.5196 9.09095 20.2652 8.9856 20 8.9856C19.7348 8.9856 19.4804 9.09095 19.2929 9.27849C19.1054 9.46603 19 9.72038 19 9.9856V11.9856H17C16.7348 11.9856 16.4804 12.091 16.2929 12.2785C16.1054 12.466 16 12.7204 16 12.9856C16 13.2508 16.1054 13.5052 16.2929 13.6927C16.4804 13.8802 16.7348 13.9856 17 13.9856H19V15.9856C19 16.2508 19.1054 16.5052 19.2929 16.6927C19.4804 16.8802 19.7348 16.9856 20 16.9856C20.2652 16.9856 20.5196 16.8802 20.7071 16.6927C20.8946 16.5052 21 16.2508 21 15.9856V13.9856H23C23.2652 13.9856 23.5196 13.8802 23.7071 13.6927C23.8946 13.5052 24 13.2508 24 12.9856C24 12.7204 23.8946 12.466 23.7071 12.2785C23.5196 12.091 23.2652 11.9856 23 11.9856Z" fill="#1E1E1E"/>
<path d="M9 12.9856C10.1867 12.9856 11.3467 12.6337 12.3334 11.9744C13.3201 11.3151 14.0892 10.3781 14.5433 9.2817C14.9974 8.18534 15.1162 6.97894 14.8847 5.81506C14.6532 4.65117 14.0818 3.58207 13.2426 2.74296C12.4035 1.90384 11.3344 1.3324 10.1705 1.10089C9.00666 0.869375 7.80026 0.988195 6.7039 1.44232C5.60754 1.89645 4.67047 2.66548 4.01118 3.65218C3.35189 4.63887 3 5.79891 3 6.9856C3.00159 8.57641 3.63424 10.1016 4.75911 11.2265C5.88399 12.3514 7.40919 12.984 9 12.9856ZM9 2.9856C9.79113 2.9856 10.5645 3.22019 11.2223 3.65972C11.8801 4.09925 12.3928 4.72396 12.6955 5.45486C12.9983 6.18577 13.0775 6.99004 12.9231 7.76596C12.7688 8.54188 12.3878 9.25462 11.8284 9.81403C11.269 10.3734 10.5563 10.7544 9.78036 10.9087C9.00444 11.0631 8.20017 10.9839 7.46927 10.6811C6.73836 10.3784 6.11365 9.86568 5.67412 9.20788C5.2346 8.55008 5 7.77672 5 6.9856C5 5.92473 5.42143 4.90732 6.17157 4.15717C6.92172 3.40703 7.93913 2.9856 9 2.9856Z" fill="#1E1E1E"/>
<path d="M9 14.9856C6.61386 14.9882 4.32622 15.9373 2.63896 17.6246C0.951708 19.3118 0.00264685 21.5995 0 23.9856C0 24.2508 0.105357 24.5052 0.292893 24.6927C0.48043 24.8802 0.734784 24.9856 1 24.9856C1.26522 24.9856 1.51957 24.8802 1.70711 24.6927C1.89464 24.5052 2 24.2508 2 23.9856C2 22.1291 2.7375 20.3486 4.05025 19.0358C5.36301 17.7231 7.14348 16.9856 9 16.9856C10.8565 16.9856 12.637 17.7231 13.9497 19.0358C15.2625 20.3486 16 22.1291 16 23.9856C16 24.2508 16.1054 24.5052 16.2929 24.6927C16.4804 24.8802 16.7348 24.9856 17 24.9856C17.2652 24.9856 17.5196 24.8802 17.7071 24.6927C17.8946 24.5052 18 24.2508 18 23.9856C17.9974 21.5995 17.0483 19.3118 15.361 17.6246C13.6738 15.9373 11.3861 14.9882 9 14.9856Z" fill="#1E1E1E"/>
</g>
<defs>
<clipPath id="clip0_2729_41675">
<rect width="24" height="24" fill="white" transform="translate(0 0.985596)"/>
</clipPath>
</defs>
</svg>
