<svg width="24" height="25" viewBox="0 0 24 25" fill="none" xmlns="http://www.w3.org/2000/svg">
<g clip-path="url(#clip0_3004_13259)">
<path d="M16 23.9844C16 24.5364 15.553 24.9844 15 24.9844H6C3.243 24.9844 1 22.7414 1 19.9844V5.98438C1 3.22738 3.243 0.984375 6 0.984375H10.515C12.384 0.984375 14.142 1.71237 15.465 3.03437L18.949 6.52037C19.22 6.79137 19.472 7.08838 19.697 7.40338C20.018 7.85238 19.914 8.47738 19.465 8.79838C19.016 9.11837 18.39 9.01538 18.07 8.56537C17.909 8.34037 17.729 8.12738 17.536 7.93538L14.051 4.44937C13.733 4.13137 13.38 3.86238 13 3.64438V7.98438C13 8.53538 13.448 8.98438 14 8.98438H17C17.553 8.98438 18 9.43237 18 9.98438C18 10.5364 17.553 10.9844 17 10.9844H14C12.346 10.9844 11 9.63838 11 7.98438V3.00738C10.84 2.99237 10.678 2.98438 10.515 2.98438H6C4.346 2.98438 3 4.33037 3 5.98438V19.9844C3 21.6384 4.346 22.9844 6 22.9844H15C15.553 22.9844 16 23.4324 16 23.9844ZM21.685 17.2514L18.644 16.7444C18.271 16.6824 18 16.3624 18 15.9844C18 15.4334 18.448 14.9844 19 14.9844H21.268C21.624 14.9844 21.956 15.1764 22.135 15.4844C22.41 15.9624 23.02 16.1254 23.501 15.8494C23.979 15.5724 24.143 14.9614 23.865 14.4834C23.331 13.5584 22.335 12.9834 21.267 12.9834H20.999V11.9834C20.999 11.4314 20.552 10.9834 19.999 10.9834C19.446 10.9834 18.999 11.4314 18.999 11.9834V12.9834C17.345 12.9834 15.999 14.3294 15.999 15.9834C15.999 17.3434 16.973 18.4934 18.314 18.7164L21.355 19.2234C21.728 19.2854 21.999 19.6054 21.999 19.9834C21.999 20.5344 21.551 20.9834 20.999 20.9834H18.731C18.375 20.9834 18.043 20.7914 17.864 20.4834C17.589 20.0044 16.978 19.8414 16.498 20.1184C16.02 20.3954 15.856 21.0064 16.134 21.4844C16.668 22.4094 17.664 22.9834 18.732 22.9834H19V23.9834C19 24.5354 19.447 24.9834 20 24.9834C20.553 24.9834 21 24.5354 21 23.9834V22.9834C22.654 22.9834 24 21.6374 24 19.9834C24 18.6234 23.026 17.4734 21.685 17.2504V17.2514ZM7.5 15.9844H13C13.553 15.9844 14 15.5364 14 14.9844C14 14.4324 13.553 13.9844 13 13.9844H7.5C6.122 13.9844 5 15.1064 5 16.4844V18.4844C5 19.8624 6.122 20.9844 7.5 20.9844H13C13.553 20.9844 14 20.5364 14 19.9844C14 19.4324 13.553 18.9844 13 18.9844H7.5C7.224 18.9844 7 18.7604 7 18.4844V16.4844C7 16.2084 7.224 15.9844 7.5 15.9844ZM6 11.9844H8C8.552 11.9844 9 11.5364 9 10.9844C9 10.4324 8.552 9.98438 8 9.98438H6C5.448 9.98438 5 10.4324 5 10.9844C5 11.5364 5.448 11.9844 6 11.9844ZM6 7.98438H8C8.552 7.98438 9 7.53638 9 6.98438C9 6.43237 8.552 5.98438 8 5.98438H6C5.448 5.98438 5 6.43237 5 6.98438C5 7.53638 5.448 7.98438 6 7.98438Z" fill="#1E1E1E"/>
</g>
<defs>
<clipPath id="clip0_3004_13259">
<rect width="24" height="24" fill="white" transform="translate(0 0.984375)"/>
</clipPath>
</defs>
</svg>
