<svg width="24" height="25" viewBox="0 0 24 25" fill="none" xmlns="http://www.w3.org/2000/svg">
<path d="M12 0.986328C9.62663 0.986328 7.30655 1.69012 5.33316 3.00869C3.35977 4.32727 1.8217 6.20141 0.913451 8.39413C0.00519943 10.5868 -0.232441 12.9996 0.230582 15.3274C0.693605 17.6552 1.83649 19.7934 3.51472 21.4716C5.19295 23.1498 7.33115 24.2927 9.65892 24.7558C11.9867 25.2188 14.3995 24.9811 16.5922 24.0729C18.7849 23.1646 20.6591 21.6266 21.9776 19.6532C23.2962 17.6798 24 15.3597 24 12.9863C23.9966 9.80479 22.7312 6.75454 20.4815 4.50485C18.2318 2.25516 15.1815 0.989769 12 0.986328V0.986328ZM21.573 10.1063L12.665 11.8383C12.5248 11.6219 12.4018 11.3949 12.297 11.1593L8.95701 3.45933C10.2214 3.05405 11.554 2.90498 12.8767 3.02084C14.1995 3.1367 15.4858 3.51516 16.6605 4.13409C17.8353 4.75302 18.8748 5.59999 19.7183 6.62545C20.5618 7.65091 21.1923 8.83428 21.573 10.1063ZM12 22.9863C9.78712 22.9871 7.63653 22.2536 5.88543 20.9006C4.13432 19.5477 2.8817 17.6519 2.32398 15.5104C1.76626 13.369 1.93496 11.103 2.80364 9.06773C3.67232 7.03248 5.19186 5.34305 7.12401 4.26433L10.462 11.9553C10.937 13.0485 11.6828 14.0026 12.629 14.7273L19.282 19.8193C18.3501 20.8181 17.2228 21.6146 15.9701 22.1594C14.7174 22.7042 13.366 22.9857 12 22.9863ZM20.5 18.2313L14.375 13.5433L21.956 12.0703C21.983 12.3703 22.002 12.6773 22.002 12.9863C22.0011 14.8406 21.4808 16.6576 20.5 18.2313Z" fill="#1E1E1E"/>
</svg>
