<svg width="24" height="25" viewBox="0 0 24 25" fill="none" xmlns="http://www.w3.org/2000/svg">
<g clip-path="url(#clip0_2898_30108)">
<path d="M12 0.984375C9.62663 0.984375 7.30655 1.68816 5.33316 3.00674C3.35977 4.32532 1.8217 6.19946 0.913451 8.39217C0.00519943 10.5849 -0.232441 12.9977 0.230582 15.3255C0.693605 17.6532 1.83649 19.7914 3.51472 21.4697C5.19295 23.1479 7.33115 24.2908 9.65892 24.7538C11.9867 25.2168 14.3995 24.9792 16.5922 24.0709C18.7849 23.1627 20.6591 21.6246 21.9776 19.6512C23.2962 17.6778 24 15.3578 24 12.9844C23.9966 9.80283 22.7312 6.75259 20.4815 4.50289C18.2318 2.2532 15.1815 0.987816 12 0.984375V0.984375ZM21.573 10.1044L12.665 11.8364C12.5248 11.62 12.4018 11.393 12.297 11.1574L8.95701 3.45738C10.2214 3.0521 11.554 2.90303 12.8767 3.01889C14.1995 3.13475 15.4858 3.51321 16.6605 4.13214C17.8353 4.75107 18.8748 5.59803 19.7183 6.62349C20.5618 7.64896 21.1923 8.83232 21.573 10.1044ZM12 22.9844C9.78712 22.9852 7.63653 22.2516 5.88543 20.8987C4.13432 19.5457 2.8817 17.6499 2.32398 15.5085C1.76626 13.367 1.93496 11.101 2.80364 9.06578C3.67232 7.03053 5.19186 5.3411 7.12401 4.26238L10.462 11.9534C10.937 13.0466 11.6828 14.0006 12.629 14.7254L19.282 19.8174C18.3501 20.8162 17.2228 21.6127 15.9701 22.1575C14.7174 22.7023 13.366 22.9837 12 22.9844ZM20.5 18.2294L14.375 13.5414L21.956 12.0684C21.983 12.3684 22.002 12.6754 22.002 12.9844C22.0011 14.8387 21.4808 16.6557 20.5 18.2294Z" fill="#1E1E1E"/>
</g>
<defs>
<clipPath id="clip0_2898_30108">
<rect width="24" height="24" fill="white" transform="translate(0 0.984375)"/>
</clipPath>
</defs>
</svg>
