<svg width="24" height="25" viewBox="0 0 24 25" fill="none" xmlns="http://www.w3.org/2000/svg">
<g clip-path="url(#clip0_3004_13253)">
<path d="M21 12.9844H18C17.4696 12.9844 16.9609 13.1951 16.5858 13.5702C16.2107 13.9452 16 14.4539 16 14.9844C16 15.5148 15.7893 16.0235 15.4142 16.3986C15.0391 16.7737 14.5304 16.9844 14 16.9844H10C9.46957 16.9844 8.96086 16.7737 8.58579 16.3986C8.21071 16.0235 8 15.5148 8 14.9844C8 14.4539 7.78929 13.9452 7.41421 13.5702C7.03914 13.1951 6.53043 12.9844 6 12.9844H3C2.20435 12.9844 1.44129 13.3004 0.87868 13.8631C0.31607 14.4257 0 15.1887 0 15.9844L0 19.9844C0.00158786 21.31 0.528882 22.5808 1.46622 23.5182C2.40356 24.4555 3.67441 24.9828 5 24.9844H19C20.3256 24.9828 21.5964 24.4555 22.5338 23.5182C23.4711 22.5808 23.9984 21.31 24 19.9844V15.9844C24 15.1887 23.6839 14.4257 23.1213 13.8631C22.5587 13.3004 21.7956 12.9844 21 12.9844ZM22 19.9844C22 20.78 21.6839 21.5431 21.1213 22.1057C20.5587 22.6683 19.7956 22.9844 19 22.9844H5C4.20435 22.9844 3.44129 22.6683 2.87868 22.1057C2.31607 21.5431 2 20.78 2 19.9844V15.9844C2 15.7192 2.10536 15.4648 2.29289 15.2773C2.48043 15.0897 2.73478 14.9844 3 14.9844H6C6 16.0452 6.42143 17.0627 7.17157 17.8128C7.92172 18.5629 8.93913 18.9844 10 18.9844H14C15.0609 18.9844 16.0783 18.5629 16.8284 17.8128C17.5786 17.0627 18 16.0452 18 14.9844H21C21.2652 14.9844 21.5196 15.0897 21.7071 15.2773C21.8946 15.4648 22 15.7192 22 15.9844V19.9844Z" fill="#1E1E1E"/>
<path d="M3 10.9844H21C21.2652 10.9844 21.5196 10.879 21.7071 10.6915C21.8946 10.5039 22 10.2496 22 9.98438C22 9.71916 21.8946 9.4648 21.7071 9.27727C21.5196 9.08973 21.2652 8.98438 21 8.98438H3C2.73478 8.98438 2.48043 9.08973 2.29289 9.27727C2.10536 9.4648 2 9.71916 2 9.98438C2 10.2496 2.10536 10.5039 2.29289 10.6915C2.48043 10.879 2.73478 10.9844 3 10.9844Z" fill="#1E1E1E"/>
<path d="M3 6.98438H21C21.2652 6.98438 21.5196 6.87902 21.7071 6.69148C21.8946 6.50395 22 6.24959 22 5.98438C22 5.71916 21.8946 5.4648 21.7071 5.27727C21.5196 5.08973 21.2652 4.98438 21 4.98438H3C2.73478 4.98438 2.48043 5.08973 2.29289 5.27727C2.10536 5.4648 2 5.71916 2 5.98438C2 6.24959 2.10536 6.50395 2.29289 6.69148C2.48043 6.87902 2.73478 6.98438 3 6.98438Z" fill="#1E1E1E"/>
</g>
<defs>
<clipPath id="clip0_3004_13253">
<rect width="24" height="24" fill="white" transform="translate(0 0.984375)"/>
</clipPath>
</defs>
</svg>
