<svg width="20" height="25" viewBox="0 0 20 25" fill="none" xmlns="http://www.w3.org/2000/svg">
<path d="M19.155 4.2576L16.871 1.8986C16.5905 1.61056 16.2553 1.38144 15.8851 1.22466C15.5149 1.06788 15.1171 0.986602 14.715 0.985596H10C8.8478 0.98705 7.73132 1.38569 6.83875 2.11431C5.94618 2.84294 5.3321 3.85701 5.1 4.9856H5C3.67441 4.98718 2.40356 5.51448 1.46622 6.45182C0.528882 7.38915 0.00158786 8.66 0 9.9856V19.9856C0.00158786 21.3112 0.528882 22.582 1.46622 23.5194C2.40356 24.4567 3.67441 24.984 5 24.9856H11C12.3256 24.984 13.5964 24.4567 14.5338 23.5194C15.4711 22.582 15.9984 21.3112 16 19.9856V19.8856C17.1286 19.6535 18.1427 19.0394 18.8713 18.1468C19.5999 17.2543 19.9985 16.1378 20 14.9856V6.3456C20.0015 5.56601 19.6983 4.81671 19.155 4.2576ZM11 22.9856H5C4.20435 22.9856 3.44129 22.6695 2.87868 22.1069C2.31607 21.5443 2 20.7812 2 19.9856V9.9856C2 9.18995 2.31607 8.42688 2.87868 7.86428C3.44129 7.30167 4.20435 6.9856 5 6.9856V14.9856C5.00159 16.3112 5.52888 17.582 6.46622 18.5194C7.40356 19.4567 8.67441 19.984 10 19.9856H14C14 20.7812 13.6839 21.5443 13.1213 22.1069C12.5587 22.6695 11.7957 22.9856 11 22.9856ZM15 17.9856H10C9.20435 17.9856 8.44129 17.6695 7.87868 17.1069C7.31607 16.5443 7 15.7812 7 14.9856V5.9856C7 5.18995 7.31607 4.42688 7.87868 3.86428C8.44129 3.30167 9.20435 2.9856 10 2.9856H14V4.9856C14 5.51603 14.2107 6.02474 14.5858 6.39981C14.9609 6.77488 15.4696 6.9856 16 6.9856H18V14.9856C18 15.7812 17.6839 16.5443 17.1213 17.1069C16.5587 17.6695 15.7957 17.9856 15 17.9856Z" fill="white"/>
</svg>
