<svg width="20" height="25" viewBox="0 0 20 25" fill="none" xmlns="http://www.w3.org/2000/svg">
<path d="M19.155 4.25833L16.871 1.89933C16.5905 1.61129 16.2553 1.38217 15.8851 1.22539C15.5149 1.06861 15.1171 0.987335 14.715 0.986328H10C8.8478 0.987783 7.73132 1.38642 6.83875 2.11505C5.94618 2.84367 5.3321 3.85774 5.1 4.98633H5C3.67441 4.98792 2.40356 5.51521 1.46622 6.45255C0.528882 7.38989 0.00158786 8.66073 0 9.98633V19.9863C0.00158786 21.3119 0.528882 22.5828 1.46622 23.5201C2.40356 24.4574 3.67441 24.9847 5 24.9863H11C12.3256 24.9847 13.5964 24.4574 14.5338 23.5201C15.4711 22.5828 15.9984 21.3119 16 19.9863V19.8863C17.1286 19.6542 18.1427 19.0401 18.8713 18.1476C19.5999 17.255 19.9985 16.1385 20 14.9863V6.34633C20.0015 5.56675 19.6983 4.81745 19.155 4.25833ZM11 22.9863H5C4.20435 22.9863 3.44129 22.6703 2.87868 22.1076C2.31607 21.545 2 20.782 2 19.9863V9.98633C2 9.19068 2.31607 8.42762 2.87868 7.86501C3.44129 7.3024 4.20435 6.98633 5 6.98633V14.9863C5.00159 16.3119 5.52888 17.5828 6.46622 18.5201C7.40356 19.4574 8.67441 19.9847 10 19.9863H14C14 20.782 13.6839 21.545 13.1213 22.1076C12.5587 22.6703 11.7957 22.9863 11 22.9863ZM15 17.9863H10C9.20435 17.9863 8.44129 17.6703 7.87868 17.1076C7.31607 16.545 7 15.782 7 14.9863V5.98633C7 5.19068 7.31607 4.42762 7.87868 3.86501C8.44129 3.3024 9.20435 2.98633 10 2.98633H14V4.98633C14 5.51676 14.2107 6.02547 14.5858 6.40054C14.9609 6.77561 15.4696 6.98633 16 6.98633H18V14.9863C18 15.782 17.6839 16.545 17.1213 17.1076C16.5587 17.6703 15.7957 17.9863 15 17.9863Z" fill="#1E1E1E"/>
</svg>
