<svg width="24" height="25" viewBox="0 0 24 25" fill="none" xmlns="http://www.w3.org/2000/svg">
<g clip-path="url(#clip0_3163_25307)">
<path d="M12.0001 12.9844C12.7912 12.9844 13.5645 12.7498 14.2223 12.3103C14.8801 11.8707 15.3928 11.246 15.6956 10.5151C15.9983 9.7842 16.0775 8.97994 15.9232 8.20401C15.7689 7.42809 15.3879 6.71536 14.8285 6.15595C14.2691 5.59654 13.5563 5.21557 12.7804 5.06123C12.0045 4.90689 11.2002 4.98611 10.4693 5.28886C9.73842 5.59161 9.1137 6.1043 8.67418 6.76209C8.23465 7.41989 8.00006 8.19325 8.00006 8.98438C8.00006 10.0452 8.42148 11.0627 9.17163 11.8128C9.92177 12.5629 10.9392 12.9844 12.0001 12.9844ZM12.0001 6.98438C12.3956 6.98437 12.7823 7.10167 13.1112 7.32144C13.4401 7.5412 13.6964 7.85356 13.8478 8.21901C13.9992 8.58446 14.0388 8.98659 13.9616 9.37456C13.8845 9.76252 13.694 10.1189 13.4143 10.3986C13.1346 10.6783 12.7782 10.8688 12.3902 10.9459C12.0023 11.0231 11.6001 10.9835 11.2347 10.8321C10.8692 10.6808 10.5569 10.4244 10.3371 10.0955C10.1174 9.76662 10.0001 9.37994 10.0001 8.98438C10.0001 8.45394 10.2108 7.94523 10.5858 7.57016C10.9609 7.19509 11.4696 6.98438 12.0001 6.98438ZM20.6601 10.1414L19.9411 9.90238C20.0704 8.7823 19.9616 7.64752 19.6217 6.57246C19.2817 5.4974 18.7184 4.50634 17.9686 3.66427C17.2187 2.82219 16.2994 2.14813 15.2708 1.68629C14.2422 1.22444 13.1276 0.985242 12.0001 0.984375C10.8578 0.984816 9.72893 1.23007 8.68947 1.70361C7.65001 2.17715 6.72412 2.86798 5.97418 3.72955C5.22424 4.59112 4.66767 5.60342 4.34197 6.69824C4.01627 7.79307 3.929 8.94498 4.08606 10.0764C3.12909 10.2548 2.24418 10.7063 1.53806 11.3764C1.04923 11.8411 0.660625 12.4009 0.396134 13.0214C0.131643 13.6419 -0.00314538 14.3099 5.5707e-05 14.9844V19.0594C0.0021573 20.1407 0.353848 21.1924 1.00265 22.0574C1.65144 22.9225 2.56257 23.5546 3.60006 23.8594L6.47006 24.7594C6.95212 24.9094 7.45419 24.9853 7.95906 24.9844C8.41705 24.9838 8.87285 24.9212 9.31406 24.7984L15.0941 23.0884C15.609 22.9478 16.1521 22.9478 16.6671 23.0884L19.0541 23.8884C19.6424 24.0316 20.2555 24.0393 20.8472 23.9111C21.439 23.7829 21.9939 23.522 22.4701 23.1481C22.9464 22.7742 23.3315 22.2971 23.5965 21.7527C23.8615 21.2083 23.9995 20.6108 24.0001 20.0054V14.8564C23.9978 13.8218 23.6756 12.8132 23.0776 11.9689C22.4797 11.1246 21.6352 10.4859 20.6601 10.1404V10.1414ZM7.75806 4.74638C8.31431 4.18786 8.97539 3.7447 9.70334 3.44231C10.4313 3.13992 11.2118 2.98425 12.0001 2.98425C12.7883 2.98425 13.5688 3.13992 14.2968 3.44231C15.0247 3.7447 15.6858 4.18786 16.2421 4.74638C17.3642 5.87552 17.995 7.40219 17.997 8.99411C17.9991 10.586 17.3723 12.1143 16.2531 13.2464L12.7001 16.7014C12.5146 16.8832 12.2653 16.985 12.0056 16.985C11.7458 16.985 11.4965 16.8832 11.3111 16.7014L7.75806 13.2614C6.63353 12.1298 6.00236 10.5992 6.00236 9.00387C6.00236 7.40853 6.63353 5.87799 7.75806 4.74638V4.74638ZM22.0001 20.0054C22.0007 20.3083 21.9322 20.6073 21.7998 20.8797C21.6674 21.1521 21.4746 21.3907 21.2361 21.5774C21.0107 21.7586 20.7481 21.8879 20.4671 21.9562C20.1861 22.0245 19.8935 22.03 19.6101 21.9724L17.2651 21.1844C16.3781 20.9295 15.438 20.924 14.5481 21.1684L8.76406 22.8764C8.20833 23.0297 7.62021 23.0196 7.07006 22.8474L4.17606 21.9474C3.54971 21.7662 2.99901 21.3868 2.60665 20.8661C2.2143 20.3454 2.00144 19.7114 2.00006 19.0594V14.9844C1.99781 14.5802 2.07826 14.1798 2.23648 13.8078C2.39469 13.4358 2.62732 13.1001 2.92006 12.8214C3.37831 12.3846 3.96207 12.1027 4.58906 12.0154C4.99216 13.0146 5.59244 13.9223 6.35406 14.6844L9.92106 18.1374C10.4786 18.6833 11.2278 18.989 12.0081 18.989C12.7883 18.989 13.5375 18.6833 14.0951 18.1374L17.6581 14.6744C18.4558 13.8734 19.0738 12.9118 19.4711 11.8534L20.0081 12.0314C20.5904 12.2401 21.0942 12.6233 21.4507 13.1289C21.8072 13.6345 21.9991 14.2377 22.0001 14.8564V20.0054Z" fill="#1E1E1E"/>
</g>
<defs>
<clipPath id="clip0_3163_25307">
<rect width="24" height="24" fill="white" transform="translate(0 0.984375)"/>
</clipPath>
</defs>
</svg>
