<svg width="22" height="25" viewBox="0 0 22 25" fill="none" xmlns="http://www.w3.org/2000/svg">
<path d="M21 18.9863V19.9863C21 22.7433 18.757 24.9863 16 24.9863H6C3.243 24.9863 1 22.7433 1 19.9863V18.9863C1 18.4333 1.447 17.9863 2 17.9863C2.553 17.9863 3 18.4333 3 18.9863V19.9863C3 21.6403 4.346 22.9863 6 22.9863H16C17.654 22.9863 19 21.6403 19 19.9863V18.9863C19 18.4333 19.447 17.9863 20 17.9863C20.553 17.9863 21 18.4333 21 18.9863ZM1 10.9863V5.98633C1 3.22933 3.243 0.986328 6 0.986328H10.515C12.385 0.986328 14.143 1.71533 15.465 3.03733L18.949 6.52133C20.271 7.84333 21 9.60133 21 11.4713C21 12.0243 20.553 12.4713 20 12.4713C19.447 12.4713 19 12.0243 19 11.4713C19 11.3063 18.968 11.1483 18.953 10.9863H14C12.346 10.9863 11 9.64033 11 7.98633V3.03333C10.838 3.01733 10.68 2.98633 10.515 2.98633H6C4.346 2.98633 3 4.33233 3 5.98633V10.9863C3 11.5393 2.553 11.9863 2 11.9863C1.447 11.9863 1 11.5393 1 10.9863ZM14.051 4.45133C13.736 4.13633 13.376 3.88733 13 3.67033V7.98633C13 8.53833 13.448 8.98633 14 8.98633H18.316C18.099 8.61033 17.85 8.25033 17.535 7.93533L14.051 4.45133ZM5 15.9863C5.553 15.9863 6 15.5393 6 14.9863C6 14.4333 5.553 13.9863 5 13.9863H1C0.447 13.9863 0 14.4333 0 14.9863C0 15.5393 0.447 15.9863 1 15.9863H5ZM9 13.9863C8.447 13.9863 8 14.4333 8 14.9863C8 15.5393 8.447 15.9863 9 15.9863H13C13.553 15.9863 14 15.5393 14 14.9863C14 14.4333 13.553 13.9863 13 13.9863H9ZM21 13.9863H17C16.447 13.9863 16 14.4333 16 14.9863C16 15.5393 16.447 15.9863 17 15.9863H21C21.553 15.9863 22 15.5393 22 14.9863C22 14.4333 21.553 13.9863 21 13.9863Z" fill="black"/>
</svg>
