<svg width="24" height="25" viewBox="0 0 24 25" fill="none" xmlns="http://www.w3.org/2000/svg">
<g clip-path="url(#clip0_2898_5991)">
<path d="M19.95 6.51938L16.465 3.03438C15.143 1.71238 13.385 0.984375 11.515 0.984375H7C4.243 0.983375 2 3.22638 2 5.98338V19.9834C2 22.7404 4.243 24.9834 7 24.9834H17C19.757 24.9834 22 22.7404 22 19.9834V11.4684C22 9.59838 21.272 7.84138 19.95 6.51838V6.51938ZM18.536 7.93338C18.854 8.25138 19.123 8.60438 19.341 8.98338H15C14.449 8.98338 14 8.53438 14 7.98338V3.64238C14.379 3.86038 14.733 4.12938 15.05 4.44738L18.535 7.93238L18.536 7.93338ZM20 19.9834C20 21.6374 18.654 22.9834 17 22.9834H7C5.346 22.9834 4 21.6374 4 19.9834V5.98338C4 4.32938 5.346 2.98338 7 2.98338H11.515C11.678 2.98338 11.84 2.99138 12 3.00638V7.98338C12 9.63738 13.346 10.9834 15 10.9834H19.977C19.992 11.1434 20 11.3054 20 11.4684V19.9834V19.9834ZM15.5 13.9834H8.5C7.122 13.9834 6 15.1054 6 16.4834V18.4834C6 19.8614 7.122 20.9834 8.5 20.9834H15.5C16.878 20.9834 18 19.8614 18 18.4834V16.4834C18 15.1054 16.878 13.9834 15.5 13.9834ZM16 18.4834C16 18.7594 15.776 18.9834 15.5 18.9834H8.5C8.224 18.9834 8 18.7594 8 18.4834V16.4834C8 16.2074 8.224 15.9834 8.5 15.9834H15.5C15.776 15.9834 16 16.2074 16 16.4834V18.4834ZM6 10.9834C6 10.4314 6.448 9.98338 7 9.98338H9C9.552 9.98338 10 10.4314 10 10.9834C10 11.5354 9.552 11.9834 9 11.9834H7C6.448 11.9834 6 11.5354 6 10.9834ZM6 6.98338C6 6.43138 6.448 5.98338 7 5.98338H9C9.552 5.98338 10 6.43138 10 6.98338C10 7.53538 9.552 7.98338 9 7.98338H7C6.448 7.98338 6 7.53538 6 6.98338Z" fill="black"/>
</g>
<defs>
<clipPath id="clip0_2898_5991">
<rect width="24" height="24" fill="white" transform="translate(0 0.984375)"/>
</clipPath>
</defs>
</svg>
