<svg width="20" height="25" viewBox="0 0 20 25" fill="none" xmlns="http://www.w3.org/2000/svg">
<path d="M15 14.9856C15 15.2508 14.8946 15.5052 14.7071 15.6927C14.5196 15.8803 14.2652 15.9856 14 15.9856H6C5.73478 15.9856 5.48043 15.8803 5.29289 15.6927C5.10536 15.5052 5 15.2508 5 14.9856C5 14.7204 5.10536 14.466 5.29289 14.2785C5.48043 14.091 5.73478 13.9856 6 13.9856H14C14.2652 13.9856 14.5196 14.091 14.7071 14.2785C14.8946 14.466 15 14.7204 15 14.9856ZM11 17.9856H6C5.73478 17.9856 5.48043 18.091 5.29289 18.2785C5.10536 18.466 5 18.7204 5 18.9856C5 19.2508 5.10536 19.5052 5.29289 19.6927C5.48043 19.8803 5.73478 19.9856 6 19.9856H11C11.2652 19.9856 11.5196 19.8803 11.7071 19.6927C11.8946 19.5052 12 19.2508 12 18.9856C12 18.7204 11.8946 18.466 11.7071 18.2785C11.5196 18.091 11.2652 17.9856 11 17.9856ZM20 11.4706V19.9856C19.9984 21.3112 19.4711 22.5821 18.5338 23.5194C17.5964 24.4567 16.3256 24.984 15 24.9856H5C3.67441 24.984 2.40356 24.4567 1.46622 23.5194C0.528882 22.5821 0.00158786 21.3112 0 19.9856V5.98562C0.00158786 4.66002 0.528882 3.38918 1.46622 2.45184C2.40356 1.5145 3.67441 0.987207 5 0.985619H9.515C10.4346 0.983252 11.3456 1.16321 12.1952 1.51508C13.0449 1.86695 13.8163 2.38376 14.465 3.03562L17.949 6.52162C18.6012 7.16986 19.1184 7.94108 19.4704 8.79059C19.8225 9.64011 20.0025 10.551 20 11.4706ZM13.051 4.44962C12.7363 4.14478 12.3829 3.88254 12 3.66962V7.98562C12 8.25083 12.1054 8.50519 12.2929 8.69273C12.4804 8.88026 12.7348 8.98562 13 8.98562H17.316C17.103 8.60281 16.8404 8.24976 16.535 7.93562L13.051 4.44962ZM18 11.4706C18 11.3056 17.968 11.1476 17.953 10.9856H13C12.2044 10.9856 11.4413 10.6695 10.8787 10.1069C10.3161 9.54433 10 8.78127 10 7.98562V3.03262C9.838 3.01762 9.679 2.98562 9.515 2.98562H5C4.20435 2.98562 3.44129 3.30169 2.87868 3.8643C2.31607 4.42691 2 5.18997 2 5.98562V19.9856C2 20.7813 2.31607 21.5443 2.87868 22.1069C3.44129 22.6695 4.20435 22.9856 5 22.9856H15C15.7956 22.9856 16.5587 22.6695 17.1213 22.1069C17.6839 21.5443 18 20.7813 18 19.9856V11.4706Z" fill="white"/>
</svg>
