<svg width="24" height="25" viewBox="0 0 24 25" fill="none" xmlns="http://www.w3.org/2000/svg">
<g clip-path="url(#clip0_3163_25286)">
<path d="M22.459 9.08156L15.535 2.44556C14.5966 1.51706 13.3307 0.995006 12.0106 0.992199C10.6905 0.989392 9.4223 1.50606 8.48 2.43056L1.54 9.08156C1.05461 9.54906 0.668162 10.1094 0.403609 10.7292C0.139055 11.349 0.00180022 12.0157 0 12.6896L0 19.9816C0.00158786 21.3072 0.528882 22.578 1.46622 23.5153C2.40356 24.4527 3.6744 24.98 5 24.9816H19C20.3256 24.98 21.5964 24.4527 22.5338 23.5153C23.4711 22.578 23.9984 21.3072 24 19.9816V12.6896C23.9982 12.0156 23.8609 11.3488 23.5962 10.729C23.3314 10.1091 22.9447 9.54887 22.459 9.08156V9.08156ZM9.879 3.85956C10.446 3.29756 11.213 2.98358 12.0113 2.98658C12.8097 2.98958 13.5742 3.30931 14.137 3.87556L20.884 10.3396L14.121 17.1036C13.5493 17.6485 12.7898 17.9525 12 17.9525C11.2102 17.9525 10.4507 17.6485 9.879 17.1036L3.115 10.3396L9.879 3.85956ZM22 19.9816C22 20.7772 21.6839 21.5403 21.1213 22.1029C20.5587 22.6655 19.7956 22.9816 19 22.9816H5C4.20435 22.9816 3.44129 22.6655 2.87868 22.1029C2.31607 21.5403 2 20.7772 2 19.9816V12.6896C2.00101 12.4954 2.02077 12.3019 2.059 12.1116L8.465 18.5176C9.40572 19.4491 10.6761 19.9716 12 19.9716C13.3239 19.9716 14.5943 19.4491 15.535 18.5176L21.941 12.1116C21.9792 12.3019 21.999 12.4954 22 12.6896V19.9816Z" fill="#1E1E1E"/>
</g>
<defs>
<clipPath id="clip0_3163_25286">
<rect width="24" height="24" fill="white" transform="translate(0 0.984375)"/>
</clipPath>
</defs>
</svg>
