<svg width="24" height="25" viewBox="0 0 24 25" fill="none" xmlns="http://www.w3.org/2000/svg">
<g clip-path="url(#clip0_3163_25290)">
<path d="M12 8.98438C11.2089 8.98438 10.4355 9.21897 9.77772 9.6585C9.11993 10.098 8.60723 10.7227 8.30448 11.4536C8.00173 12.1845 7.92252 12.9888 8.07686 13.7647C8.2312 14.5407 8.61216 15.2534 9.17157 15.8128C9.73098 16.3722 10.4437 16.7532 11.2196 16.9075C11.9956 17.0619 12.7998 16.9826 13.5307 16.6799C14.2616 16.3771 14.8864 15.8645 15.3259 15.2067C15.7654 14.5489 16 13.7755 16 12.9844C16 11.9235 15.5786 10.9061 14.8284 10.1559C14.0783 9.4058 13.0609 8.98438 12 8.98438V8.98438ZM12 14.9844C11.6044 14.9844 11.2178 14.8671 10.8889 14.6473C10.56 14.4276 10.3036 14.1152 10.1522 13.7497C10.0009 13.3843 9.96126 12.9822 10.0384 12.5942C10.1156 12.2062 10.3061 11.8499 10.5858 11.5702C10.8655 11.2905 11.2219 11.1 11.6098 11.0228C11.9978 10.9456 12.3999 10.9852 12.7654 11.1366C13.1308 11.288 13.4432 11.5443 13.6629 11.8732C13.8827 12.2021 14 12.5888 14 12.9844C14 13.5148 13.7893 14.0235 13.4142 14.3986C13.0391 14.7737 12.5304 14.9844 12 14.9844Z" fill="#1E1E1E"/>
<path d="M21.2938 14.8844L20.8498 14.6284C21.0497 13.5408 21.0497 12.4259 20.8498 11.3384L21.2938 11.0824C21.6352 10.8854 21.9345 10.6231 22.1746 10.3104C22.4147 9.99779 22.5908 9.64091 22.6929 9.26019C22.7951 8.87947 22.8212 8.48236 22.7699 8.09153C22.7186 7.7007 22.5908 7.32381 22.3938 6.98238C22.1968 6.64094 21.9345 6.34164 21.6219 6.10158C21.3092 5.86151 20.9523 5.68538 20.5716 5.58324C20.1909 5.48109 19.7938 5.45494 19.403 5.50626C19.0121 5.55759 18.6352 5.68539 18.2938 5.88237L17.8488 6.13938C17.0083 5.42129 16.0425 4.86462 14.9998 4.49738V3.98438C14.9998 3.18873 14.6837 2.42566 14.1211 1.86305C13.5585 1.30045 12.7954 0.984375 11.9998 0.984375C11.2041 0.984375 10.4411 1.30045 9.87848 1.86305C9.31587 2.42566 8.9998 3.18873 8.9998 3.98438V4.49738C7.95719 4.86594 6.99165 5.42397 6.1518 6.14337L5.7048 5.88438C5.01524 5.48655 4.19588 5.37895 3.42698 5.58524C2.65808 5.79153 2.00262 6.29481 1.6048 6.98438C1.20697 7.67394 1.09937 8.49329 1.30566 9.26219C1.51195 10.0311 2.01524 10.6866 2.7048 11.0844L3.1488 11.3404C2.94891 12.4279 2.94891 13.5428 3.1488 14.6304L2.7048 14.8864C2.01524 15.2842 1.51195 15.9397 1.30566 16.7086C1.09937 17.4775 1.20697 18.2968 1.6048 18.9864C2.00262 19.6759 2.65808 20.1792 3.42698 20.3855C4.19588 20.5918 5.01524 20.4842 5.7048 20.0864L6.1498 19.8294C6.99056 20.5476 7.95678 21.1042 8.9998 21.4714V21.9844C8.9998 22.78 9.31587 23.5431 9.87848 24.1057C10.4411 24.6683 11.2041 24.9844 11.9998 24.9844C12.7954 24.9844 13.5585 24.6683 14.1211 24.1057C14.6837 23.5431 14.9998 22.78 14.9998 21.9844V21.4714C16.0424 21.1028 17.008 20.5448 17.8478 19.8254L18.2948 20.0834C18.9844 20.4812 19.8037 20.5888 20.5726 20.3825C21.3415 20.1762 21.997 19.6729 22.3948 18.9834C22.7926 18.2938 22.9002 17.4745 22.6939 16.7056C22.4876 15.9367 21.9844 15.2812 21.2948 14.8834L21.2938 14.8844ZM18.7458 11.1084C19.0844 12.3354 19.0844 13.6313 18.7458 14.8584C18.6867 15.0719 18.7002 15.2991 18.7841 15.5042C18.8681 15.7093 19.0178 15.8806 19.2098 15.9914L20.2938 16.6174C20.5236 16.75 20.6913 16.9685 20.7601 17.2247C20.8288 17.481 20.7929 17.7541 20.6603 17.9839C20.5277 18.2137 20.3092 18.3814 20.053 18.4501C19.7967 18.5189 19.5236 18.483 19.2938 18.3504L18.2078 17.7224C18.0157 17.6111 17.792 17.5669 17.572 17.5968C17.3521 17.6267 17.1483 17.7289 16.9928 17.8874C16.1027 18.796 14.9814 19.4444 13.7498 19.7624C13.5348 19.8176 13.3444 19.9429 13.2084 20.1183C13.0724 20.2937 12.9987 20.5094 12.9988 20.7314V21.9844C12.9988 22.2496 12.8934 22.5039 12.7059 22.6915C12.5184 22.879 12.264 22.9844 11.9988 22.9844C11.7336 22.9844 11.4792 22.879 11.2917 22.6915C11.1042 22.5039 10.9988 22.2496 10.9988 21.9844V20.7324C10.9989 20.5104 10.9252 20.2947 10.7892 20.1193C10.6532 19.9439 10.4628 19.8186 10.2478 19.7634C9.01615 19.4441 7.89513 18.7943 7.0058 17.8844C6.85032 17.7259 6.64654 17.6237 6.42655 17.5938C6.20657 17.5639 5.9829 17.6081 5.7908 17.7194L4.7068 18.3464C4.59303 18.4131 4.46719 18.4566 4.33652 18.4745C4.20586 18.4923 4.07295 18.4842 3.94545 18.4505C3.81795 18.4168 3.69838 18.3582 3.59362 18.2781C3.48886 18.198 3.40098 18.0979 3.33504 17.9837C3.26909 17.8695 3.22639 17.7434 3.2094 17.6126C3.1924 17.4818 3.20144 17.349 3.23599 17.2217C3.27054 17.0944 3.32993 16.9752 3.41073 16.871C3.49153 16.7668 3.59215 16.6796 3.7068 16.6144L4.7908 15.9884C4.98275 15.8776 5.13247 15.7063 5.21646 15.5012C5.30044 15.2961 5.31393 15.0689 5.2548 14.8554C4.91616 13.6283 4.91616 12.3324 5.2548 11.1054C5.31286 10.8923 5.29873 10.6659 5.21461 10.4617C5.13049 10.2574 4.98111 10.0868 4.7898 9.97637L3.7058 9.35038C3.47599 9.21777 3.30827 8.9993 3.23954 8.74303C3.17081 8.48676 3.20669 8.21368 3.3393 7.98387C3.47191 7.75406 3.69038 7.58635 3.94664 7.51761C4.20291 7.44888 4.47599 7.48477 4.7058 7.61737L5.7918 8.24538C5.98338 8.35689 6.20658 8.40159 6.42633 8.37244C6.64607 8.3433 6.84991 8.24197 7.0058 8.08437C7.89589 7.17572 9.01722 6.5274 10.2488 6.20937C10.4644 6.15394 10.6554 6.02813 10.7914 5.85188C10.9275 5.67563 11.0008 5.45902 10.9998 5.23637V3.98438C10.9998 3.71916 11.1052 3.4648 11.2927 3.27727C11.4802 3.08973 11.7346 2.98438 11.9998 2.98438C12.265 2.98438 12.5194 3.08973 12.7069 3.27727C12.8944 3.4648 12.9998 3.71916 12.9998 3.98438V5.23637C12.9997 5.45833 13.0734 5.67402 13.2094 5.84946C13.3454 6.02489 13.5358 6.15011 13.7508 6.20538C14.9828 6.52453 16.1042 7.17426 16.9938 8.08437C17.1493 8.24284 17.3531 8.34507 17.573 8.37494C17.793 8.40482 18.0167 8.36064 18.2088 8.24937L19.2928 7.62238C19.4066 7.55568 19.5324 7.51214 19.6631 7.49428C19.7937 7.47641 19.9266 7.48457 20.0541 7.51828C20.1816 7.55198 20.3012 7.61058 20.406 7.69069C20.5107 7.7708 20.5986 7.87084 20.6646 7.98505C20.7305 8.09926 20.7732 8.22538 20.7902 8.35616C20.8072 8.48694 20.7982 8.61979 20.7636 8.74707C20.7291 8.87434 20.6697 8.99352 20.5889 9.09775C20.5081 9.20198 20.4074 9.28919 20.2928 9.35437L19.2088 9.98038C19.0178 10.0911 18.8689 10.2619 18.7851 10.4661C18.7014 10.6703 18.6876 10.8965 18.7458 11.1094V11.1084Z" fill="#1E1E1E"/>
</g>
<defs>
<clipPath id="clip0_3163_25290">
<rect width="24" height="24" fill="white" transform="translate(0 0.984375)"/>
</clipPath>
</defs>
</svg>
