<svg width="24" height="25" viewBox="0 0 24 25" fill="none" xmlns="http://www.w3.org/2000/svg">
<g clip-path="url(#clip0_3163_25264)">
<path d="M24 7.98438V8.98438C24 9.53637 23.553 9.98438 23 9.98438C22.447 9.98438 22 9.53637 22 8.98438V7.98438C22 6.33037 20.654 4.98438 19 4.98438H5C3.346 4.98438 2 6.33037 2 7.98438V17.9844C2 19.6384 3.346 20.9844 5 20.9844H8C8.553 20.9844 9 21.4324 9 21.9844C9 22.5364 8.553 22.9844 8 22.9844H5C2.243 22.9844 0 20.7414 0 17.9844V7.98438C0 5.22738 2.243 2.98438 5 2.98438H19C21.757 2.98438 24 5.22738 24 7.98438ZM15 9.98438H19C19.553 9.98438 20 9.53637 20 8.98438C20 8.43238 19.553 7.98438 19 7.98438H15C14.447 7.98438 14 8.43238 14 8.98438C14 9.53637 14.447 9.98438 15 9.98438ZM23.121 12.8634C23.687 13.4294 24 14.1834 24 14.9844C24 15.7854 23.687 16.5394 23.121 17.1064L16.414 23.8134C15.659 24.5684 14.654 24.9854 13.586 24.9854H12C11.447 24.9854 11 24.5374 11 23.9854V22.3994C11 21.3314 11.416 20.3264 12.172 19.5714L18.879 12.8644C20.049 11.6944 21.951 11.6944 23.121 12.8644V12.8634ZM22 14.9844C22 14.7174 21.896 14.4664 21.707 14.2774C21.316 13.8864 20.684 13.8874 20.293 14.2774L13.586 20.9844C13.214 21.3574 13 21.8724 13 22.3984V22.9844H13.586C14.12 22.9844 14.622 22.7764 15 22.3984L21.707 15.6914C21.896 15.5024 22 15.2514 22 14.9844V14.9844ZM9 15.9844H6.732C6.376 15.9844 6.044 15.7924 5.865 15.4844C5.59 15.0054 4.979 14.8404 4.499 15.1194C4.021 15.3964 3.857 16.0074 4.135 16.4854C4.669 17.4104 5.665 17.9844 6.733 17.9844H7.001C7.001 18.5364 7.448 18.9844 8.001 18.9844C8.554 18.9844 9.001 18.5364 9.001 17.9844C10.655 17.9844 12.001 16.6384 12.001 14.9844C12.001 13.6244 11.027 12.4744 9.686 12.2514L6.645 11.7444C6.272 11.6824 6.001 11.3624 6.001 10.9844C6.001 10.4334 6.449 9.98438 7.001 9.98438H9.269C9.625 9.98438 9.957 10.1764 10.136 10.4844C10.411 10.9624 11.021 11.1264 11.502 10.8494C11.98 10.5724 12.144 9.96137 11.866 9.48337C11.332 8.55837 10.336 7.98338 9.268 7.98338H9C9 7.43138 8.553 6.98338 8 6.98338C7.447 6.98338 7 7.43138 7 7.98338C5.346 7.98338 4 9.32937 4 10.9834C4 12.3434 4.974 13.4934 6.315 13.7164L9.356 14.2234C9.729 14.2854 10 14.6054 10 14.9834C10 15.5344 9.552 15.9834 9 15.9834V15.9844ZM14 12.9844C14 13.5364 14.448 13.9844 15 13.9844C15.552 13.9844 16 13.5364 16 12.9844C16 12.4324 15.552 11.9844 15 11.9844C14.448 11.9844 14 12.4324 14 12.9844Z" fill="#1E1E1E"/>
</g>
<defs>
<clipPath id="clip0_3163_25264">
<rect width="24" height="24" fill="white" transform="translate(0 0.984375)"/>
</clipPath>
</defs>
</svg>
