<svg width="24" height="25" viewBox="0 0 24 25" fill="none" xmlns="http://www.w3.org/2000/svg">
<g clip-path="url(#clip0_3163_25259)">
<path d="M23.4209 17.5674L20.1299 14.2764C20.0382 14.1787 19.9277 14.1005 19.8052 14.0463C19.6826 13.9921 19.5504 13.9631 19.4164 13.9611C19.2825 13.959 19.1494 13.9838 19.0253 14.0342C18.9011 14.0845 18.7883 14.1593 18.6936 14.2541C18.5988 14.3489 18.5241 14.4617 18.4739 14.5859C18.4236 14.7101 18.3989 14.8432 18.401 14.9772C18.4032 15.1112 18.4323 15.2433 18.4866 15.3658C18.5408 15.4884 18.6191 15.5987 18.7169 15.6904L21.0069 17.9844C19.762 17.9872 18.5292 17.7409 17.3809 17.2601C16.2327 16.7792 15.1922 16.0735 14.3209 15.1844C14.2241 15.0953 14.1105 15.0265 13.9866 14.9822C13.8628 14.9379 13.7313 14.9189 13.5999 14.9263C13.4686 14.9338 13.3401 14.9676 13.2221 15.0256C13.1041 15.0837 12.9989 15.1649 12.9129 15.2644L12.8999 15.2844C12.7318 15.48 12.6457 15.7329 12.6597 15.9905C12.6736 16.248 12.7866 16.4902 12.9749 16.6664C14.0247 17.7281 15.2765 18.5687 16.6566 19.1386C18.0366 19.7084 19.5169 19.996 21.0099 19.9844L18.7169 22.2774C18.6124 22.3673 18.5276 22.4778 18.4679 22.6019C18.4081 22.7261 18.3747 22.8613 18.3696 22.9991C18.3646 23.1368 18.3881 23.2741 18.4387 23.4023C18.4892 23.5305 18.5657 23.6469 18.6634 23.7441C18.761 23.8414 18.8777 23.9174 19.0062 23.9674C19.1346 24.0174 19.272 24.0403 19.4097 24.0347C19.5474 24.0291 19.6824 23.9951 19.8064 23.9348C19.9303 23.8745 20.0405 23.7893 20.1299 23.6844L23.4209 20.3934C23.7952 20.0184 24.0055 19.5102 24.0055 18.9804C24.0055 18.4506 23.7952 17.9424 23.4209 17.5674V17.5674Z" fill="#1E1E1E"/>
<path d="M21.0069 7.98373L18.7169 10.2737C18.6974 10.3 18.6793 10.3274 18.6629 10.3557C18.5015 10.5525 18.4219 10.8037 18.4405 11.0575C18.4592 11.3113 18.5746 11.5482 18.763 11.7192C18.9514 11.8903 19.1983 11.9824 19.4527 11.9765C19.7071 11.9707 19.9496 11.8673 20.1299 11.6877L21.8359 9.98372L23.4219 8.39873C23.69 8.12848 23.8754 7.78732 23.9564 7.41533C24.0374 7.04333 24.0105 6.65596 23.8789 6.29873C23.7817 6.02527 23.6253 5.77668 23.4209 5.57072L20.1299 2.28372C20.0386 2.18453 19.9282 2.10483 19.8053 2.04939C19.6824 1.99396 19.5496 1.96394 19.4148 1.96115C19.28 1.95836 19.1461 1.98285 19.021 2.03314C18.8959 2.08344 18.7823 2.15851 18.687 2.25383C18.5916 2.34915 18.5166 2.46277 18.4663 2.58784C18.416 2.71292 18.3915 2.84687 18.3943 2.98165C18.3971 3.11643 18.4271 3.24926 18.4825 3.37214C18.538 3.49502 18.6177 3.60543 18.7169 3.69672L21.0099 5.98873C16.0769 6.00073 13.3729 8.66272 10.9209 11.4627C8.66886 8.92072 5.99986 6.38373 1.48686 6.02973L1.00586 5.98373C0.740643 5.98373 0.486289 6.08908 0.298753 6.27662C0.111216 6.46415 0.00585938 6.71851 0.00585938 6.98373C0.0109795 7.24734 0.11798 7.49873 0.304418 7.68517C0.490856 7.8716 0.742246 7.9786 1.00586 7.98373C1.07786 7.98373 1.29286 8.01673 1.29286 8.01673C5.18886 8.31173 7.42486 10.5057 9.59986 12.9837C7.43786 15.4497 5.21686 17.6837 1.35286 17.9437L0.952859 17.9647C0.689632 17.9812 0.443718 18.1015 0.269215 18.2993C0.0947127 18.497 0.00591595 18.756 0.0223594 19.0192C0.0388028 19.2825 0.159139 19.5284 0.356896 19.7029C0.554654 19.8774 0.813632 19.9662 1.07686 19.9497C1.23286 19.9427 1.48686 19.9367 1.61186 19.9267C6.63186 19.5397 9.35486 16.3267 11.7829 13.5177C14.2349 10.6837 16.5509 8.00173 21.0069 7.98373Z" fill="#1E1E1E"/>
</g>
<defs>
<clipPath id="clip0_3163_25259">
<rect width="24" height="24" fill="white" transform="translate(0 0.984375)"/>
</clipPath>
</defs>
</svg>
