<svg width="24" height="25" viewBox="0 0 24 25" fill="none" xmlns="http://www.w3.org/2000/svg">
<g clip-path="url(#clip0_3163_25295)">
<path d="M12 16.9844C11.2089 16.9844 10.4355 16.7498 9.77772 16.3103C9.11992 15.8707 8.60723 15.246 8.30448 14.5151C8.00173 13.7842 7.92252 12.9799 8.07686 12.204C8.2312 11.4281 8.61216 10.7154 9.17157 10.156C9.73098 9.59654 10.4437 9.21558 11.2196 9.06124C11.9956 8.9069 12.7998 8.98611 13.5307 9.28886C14.2616 9.59161 14.8864 10.1043 15.3259 10.7621C15.7654 11.4199 16 12.1933 16 12.9844C16 14.0452 15.5786 15.0627 14.8284 15.8128C14.0783 16.563 13.0609 16.9844 12 16.9844ZM12 10.9844C11.6044 10.9844 11.2178 11.1017 10.8889 11.3214C10.56 11.5412 10.3036 11.8536 10.1522 12.219C10.0009 12.5845 9.96126 12.9866 10.0384 13.3746C10.1156 13.7625 10.3061 14.1189 10.5858 14.3986C10.8655 14.6783 11.2219 14.8688 11.6098 14.9459C11.9978 15.0231 12.3999 14.9835 12.7654 14.8321C13.1308 14.6808 13.4432 14.4244 13.6629 14.0955C13.8827 13.7666 14 13.3799 14 12.9844C14 12.4539 13.7893 11.9452 13.4142 11.5702C13.0391 11.1951 12.5304 10.9844 12 10.9844ZM18 23.9844C18 22.3931 17.3679 20.867 16.2426 19.7417C15.1174 18.6165 13.5913 17.9844 12 17.9844C10.4087 17.9844 8.88258 18.6165 7.75736 19.7417C6.63214 20.867 6 22.3931 6 23.9844C6 24.2496 6.10536 24.504 6.29289 24.6915C6.48043 24.879 6.73478 24.9844 7 24.9844C7.26522 24.9844 7.51957 24.879 7.70711 24.6915C7.89464 24.504 8 24.2496 8 23.9844C8 22.9235 8.42143 21.9061 9.17157 21.156C9.92172 20.4058 10.9391 19.9844 12 19.9844C13.0609 19.9844 14.0783 20.4058 14.8284 21.156C15.5786 21.9061 16 22.9235 16 23.9844C16 24.2496 16.1054 24.504 16.2929 24.6915C16.4804 24.879 16.7348 24.9844 17 24.9844C17.2652 24.9844 17.5196 24.879 17.7071 24.6915C17.8946 24.504 18 24.2496 18 23.9844ZM18 8.98438C17.2089 8.98438 16.4355 8.74978 15.7777 8.31026C15.1199 7.87073 14.6072 7.24602 14.3045 6.51511C14.0017 5.78421 13.9225 4.97994 14.0769 4.20402C14.2312 3.42809 14.6122 2.71536 15.1716 2.15595C15.731 1.59654 16.4437 1.21558 17.2196 1.06124C17.9956 0.906895 18.7998 0.986108 19.5307 1.28886C20.2616 1.59161 20.8864 2.1043 21.3259 2.7621C21.7654 3.41989 22 4.19325 22 4.98438C22 6.04524 21.5786 7.06266 20.8284 7.81281C20.0783 8.56295 19.0609 8.98438 18 8.98438ZM18 2.98438C17.6044 2.98438 17.2178 3.10168 16.8889 3.32144C16.56 3.5412 16.3036 3.85356 16.1522 4.21901C16.0009 4.58446 15.9613 4.9866 16.0384 5.37456C16.1156 5.76252 16.3061 6.11889 16.5858 6.39859C16.8655 6.6783 17.2219 6.86878 17.6098 6.94595C17.9978 7.02312 18.3999 6.98351 18.7654 6.83214C19.1308 6.68076 19.4432 6.42442 19.6629 6.09552C19.8827 5.76662 20 5.37994 20 4.98438C20 4.45394 19.7893 3.94524 19.4142 3.57016C19.0391 3.19509 18.5304 2.98438 18 2.98438ZM24 15.9844C23.9984 14.3936 23.3658 12.8684 22.2409 11.7435C21.116 10.6186 19.5908 9.98597 18 9.98438C17.7348 9.98438 17.4804 10.0897 17.2929 10.2773C17.1054 10.4648 17 10.7192 17 10.9844C17 11.2496 17.1054 11.5039 17.2929 11.6915C17.4804 11.879 17.7348 11.9844 18 11.9844C19.0609 11.9844 20.0783 12.4058 20.8284 13.156C21.5786 13.9061 22 14.9235 22 15.9844C22 16.2496 22.1054 16.5039 22.2929 16.6915C22.4804 16.879 22.7348 16.9844 23 16.9844C23.2652 16.9844 23.5196 16.879 23.7071 16.6915C23.8946 16.5039 24 16.2496 24 15.9844ZM6 8.98438C5.20887 8.98438 4.43552 8.74978 3.77772 8.31026C3.11992 7.87073 2.60723 7.24602 2.30448 6.51511C2.00173 5.78421 1.92252 4.97994 2.07686 4.20402C2.2312 3.42809 2.61216 2.71536 3.17157 2.15595C3.73098 1.59654 4.44371 1.21558 5.21964 1.06124C5.99556 0.906895 6.79983 0.986108 7.53073 1.28886C8.26164 1.59161 8.88635 2.1043 9.32588 2.7621C9.7654 3.41989 10 4.19325 10 4.98438C10 6.04524 9.57857 7.06266 8.82843 7.81281C8.07828 8.56295 7.06087 8.98438 6 8.98438V8.98438ZM6 2.98438C5.60444 2.98438 5.21776 3.10168 4.88886 3.32144C4.55996 3.5412 4.30362 3.85356 4.15224 4.21901C4.00087 4.58446 3.96126 4.9866 4.03843 5.37456C4.1156 5.76252 4.30608 6.11889 4.58579 6.39859C4.86549 6.6783 5.22186 6.86878 5.60982 6.94595C5.99778 7.02312 6.39991 6.98351 6.76537 6.83214C7.13082 6.68076 7.44318 6.42442 7.66294 6.09552C7.8827 5.76662 8 5.37994 8 4.98438C8 4.45394 7.78929 3.94524 7.41421 3.57016C7.03914 3.19509 6.53043 2.98438 6 2.98438ZM2 15.9844C2 14.9235 2.42143 13.9061 3.17157 13.156C3.92172 12.4058 4.93913 11.9844 6 11.9844C6.26522 11.9844 6.51957 11.879 6.70711 11.6915C6.89464 11.5039 7 11.2496 7 10.9844C7 10.7192 6.89464 10.4648 6.70711 10.2773C6.51957 10.0897 6.26522 9.98438 6 9.98438C4.40919 9.98597 2.88399 10.6186 1.75911 11.7435C0.63424 12.8684 0.00158843 14.3936 0 15.9844C0 16.2496 0.105357 16.5039 0.292893 16.6915C0.48043 16.879 0.734784 16.9844 1 16.9844C1.26522 16.9844 1.51957 16.879 1.70711 16.6915C1.89464 16.5039 2 16.2496 2 15.9844Z" fill="#1E1E1E"/>
</g>
<defs>
<clipPath id="clip0_3163_25295">
<rect width="24" height="24" fill="white" transform="translate(0 0.984375)"/>
</clipPath>
</defs>
</svg>
