<svg width="16" height="14" viewBox="0 0 16 14" fill="none" xmlns="http://www.w3.org/2000/svg">
<path d="M0.665758 13.9991C0.842569 13.9991 1.01214 13.9289 1.13716 13.8038C1.26219 13.6788 1.33243 13.5093 1.33243 13.3324C1.33348 12.2719 1.75525 11.2551 2.50517 10.5052C3.25508 9.75527 4.27188 9.3335 5.33243 9.33244H9.21909V10.3898C9.21915 10.6534 9.29738 10.9112 9.44389 11.1304C9.5904 11.3496 9.79862 11.5204 10.0422 11.6213C10.2858 11.7222 10.5539 11.7486 10.8125 11.6972C11.0711 11.6458 11.3086 11.5189 11.4951 11.3324L15.4144 7.41311C15.7894 7.03805 16 6.52944 16 5.99911C16 5.46878 15.7894 4.96016 15.4144 4.58511L11.4951 0.665773C11.3086 0.479361 11.0711 0.352419 10.8125 0.300995C10.5539 0.249572 10.2858 0.275976 10.0422 0.376869C9.79862 0.477763 9.5904 0.648615 9.44389 0.867828C9.29738 1.08704 9.21915 1.34477 9.21909 1.60844V2.66577H5.99909C4.40834 2.66754 2.88324 3.30025 1.7584 4.42508C0.633563 5.54992 0.0008564 7.07502 -0.000907898 8.66577V13.3324C-0.000907898 13.5093 0.0693293 13.6788 0.194353 13.8038C0.319377 13.9289 0.488947 13.9991 0.665758 13.9991ZM10.5524 1.60844L14.4718 5.52777C14.5967 5.65279 14.667 5.82233 14.667 5.99911C14.667 6.17588 14.5967 6.34542 14.4718 6.47044L10.5524 10.3898V8.66577C10.5524 8.48896 10.4822 8.31939 10.3572 8.19437C10.2321 8.06934 10.0626 7.99911 9.88576 7.99911H5.33243C4.57537 7.99888 3.82697 8.16015 3.13719 8.47216C2.44742 8.78417 1.83214 9.23973 1.33243 9.80844V8.66577C1.33384 7.42853 1.82596 6.24236 2.70082 5.3675C3.57568 4.49264 4.76185 4.00052 5.99909 3.99911H9.88576C10.0626 3.99911 10.2321 3.92887 10.3572 3.80384C10.4822 3.67882 10.5524 3.50925 10.5524 3.33244V1.60844Z" fill="black"/>
</svg>
