<?xml version="1.0" standalone="no"?>
<!DOCTYPE svg PUBLIC "-//W3C//DTD SVG 20010904//EN"
 "http://www.w3.org/TR/2001/REC-SVG-20010904/DTD/svg10.dtd">
<svg version="1.0" xmlns="http://www.w3.org/2000/svg"
 width="132.000000pt" height="83.000000pt" viewBox="0 0 2000.000000 1589.000000"
 preserveAspectRatio="xMidYMid meet">

<g transform="translate(0.000000,1589.000000) scale(0.100000,-0.100000)"
fill="#0E8478" stroke="none">
<path d="M6887 14334 c-3 -4 -28 -10 -54 -15 -51 -9 -181 -69 -217 -99 -11
-10 -39 -33 -61 -52 -216 -180 -404 -512 -495 -878 -11 -47 -25 -101 -30 -121
-5 -19 -15 -81 -21 -138 -29 -253 40 -395 262 -541 83 -55 364 -200 564 -292
405 -186 683 -322 790 -386 180 -107 318 -257 388 -419 45 -107 58 -198 57
-398 -1 -212 -1 -210 5 -203 3 3 14 29 25 59 10 30 38 106 60 169 110 305 134
392 156 548 15 107 16 137 5 223 -21 169 -64 275 -165 402 -65 82 -149 155
-271 235 -181 120 -220 161 -257 269 -16 48 -21 103 -28 318 -11 327 -28 501
-74 751 -46 252 -159 427 -330 510 -88 43 -286 80 -309 58z m38 -694 c106 -48
223 -173 285 -305 63 -135 118 -342 136 -512 7 -66 2 -73 -34 -53 -9 5 -60 26
-112 45 -52 20 -113 43 -135 52 -22 8 -49 19 -60 23 -11 4 -58 22 -105 40
-120 45 -304 139 -397 201 -88 60 -253 217 -253 242 0 21 109 132 183 186 32
24 84 54 115 68 32 13 66 29 77 34 61 27 217 16 300 -21z"/>
<path d="M17960 14256 c-64 -32 -275 -151 -295 -165 -5 -5 -35 -22 -65 -38
-30 -16 -145 -82 -255 -145 -110 -63 -220 -126 -245 -140 -25 -14 -137 -78
-250 -143 -113 -65 -266 -153 -340 -195 -74 -42 -259 -148 -410 -235 -151 -86
-293 -167 -315 -180 -22 -12 -112 -64 -200 -115 -88 -51 -178 -102 -200 -114
-22 -13 -84 -48 -137 -79 -54 -31 -102 -57 -108 -57 -5 0 -10 -4 -10 -10 0 -5
-5 -10 -10 -10 -9 0 -71 -34 -295 -165 -93 -54 -283 -162 -370 -210 -27 -16
-78 -46 -113 -67 -34 -21 -64 -38 -67 -38 -2 0 -88 -49 -192 -109 -103 -59
-208 -119 -233 -133 -25 -14 -117 -67 -205 -118 -88 -51 -221 -128 -295 -170
-306 -174 -504 -287 -655 -375 -88 -51 -182 -105 -210 -120 -27 -15 -97 -56
-155 -90 -58 -34 -136 -79 -175 -100 -38 -21 -74 -41 -80 -45 -5 -4 -116 -68
-245 -143 -129 -74 -275 -158 -323 -186 -49 -28 -91 -51 -93 -51 -17 0 -77
-59 -103 -99 -36 -56 -68 -173 -147 -546 -8 -38 -19 -90 -24 -115 -34 -157
-35 -293 -3 -395 60 -193 174 -307 437 -435 89 -43 204 -95 256 -115 52 -21
109 -43 125 -51 17 -7 54 -22 82 -33 252 -98 411 -249 452 -430 9 -42 17 -58
25 -50 7 7 84 313 91 364 4 28 13 56 19 64 7 9 11 65 10 155 0 113 -3 147 -17
171 -9 17 -17 35 -17 40 0 6 -22 38 -50 72 -79 98 -177 156 -435 258 -160 63
-302 132 -421 203 -55 32 -155 91 -222 131 -108 64 -123 76 -118 95 3 11 6 26
6 33 0 20 154 117 420 265 53 29 84 47 203 117 49 28 90 51 91 51 2 0 66 37
142 81 76 45 173 101 214 124 116 65 700 399 803 459 51 29 112 65 137 78 25
14 169 96 320 183 151 87 293 168 315 180 22 12 164 93 315 180 151 87 304
175 340 195 36 20 225 128 420 240 195 112 384 220 420 240 36 20 189 108 340
195 151 87 291 167 310 178 165 93 830 475 938 538 45 27 85 49 87 49 3 0 34
18 70 40 36 22 67 40 70 40 3 0 34 18 70 40 36 22 67 40 70 40 3 0 34 18 70
40 36 22 107 61 158 86 183 92 240 157 257 296 13 104 28 197 40 238 5 19 21
82 35 140 13 58 28 115 31 128 9 30 -7 28 -86 -12z"/>
<path d="M10300 14103 c-12 -32 -33 -89 -46 -128 -14 -38 -29 -79 -33 -90 -12
-26 -90 -235 -148 -395 -114 -314 -115 -320 -111 -376 7 -85 38 -119 148 -168
104 -46 291 -51 829 -21 358 19 534 15 754 -17 69 -10 80 -15 88 -36 21 -56
45 -36 -366 -304 -71 -47 -229 -150 -350 -230 -487 -320 -675 -444 -770 -506
-365 -237 -408 -270 -349 -265 16 1 474 173 539 202 11 5 45 19 75 30 103 39
545 211 565 221 11 5 74 32 141 60 211 89 358 186 523 345 245 237 434 551
592 989 70 193 38 348 -89 438 -60 43 -85 53 -180 77 -149 37 -269 43 -672 32
-206 -6 -454 -16 -550 -21 -259 -16 -372 7 -469 95 -20 19 -48 55 -61 80 -13
25 -27 45 -31 45 -4 0 -17 -26 -29 -57z"/>
<path d="M7035 11524 c-137 -105 -418 -297 -657 -448 -51 -33 -129 -82 -173
-111 -44 -28 -153 -98 -243 -156 -90 -57 -219 -140 -288 -184 -68 -44 -174
-111 -235 -150 -61 -38 -152 -97 -202 -129 -51 -32 -117 -75 -147 -94 -30 -20
-84 -54 -120 -77 -57 -37 -134 -86 -523 -334 -48 -31 -150 -96 -227 -146 -77
-49 -168 -108 -203 -130 -67 -42 -260 -167 -342 -220 -55 -36 -398 -256 -600
-385 -71 -46 -166 -106 -210 -135 -44 -28 -122 -78 -172 -111 -242 -155 -674
-436 -723 -470 -52 -37 -252 -231 -424 -412 l-79 -83 22 -22 22 -22 67 36 c72
39 136 76 627 364 176 104 340 199 365 213 25 13 92 53 150 87 58 34 159 94
225 132 66 39 266 157 445 263 179 106 337 200 352 209 65 38 390 234 723 436
198 120 403 244 455 275 52 31 167 101 255 155 88 54 189 115 225 137 36 21
148 90 250 152 102 63 255 157 340 209 85 51 205 124 265 162 109 67 194 119
475 290 80 49 171 112 203 139 168 145 277 381 277 601 0 54 -4 75 -12 74 -7
0 -80 -52 -163 -115z"/>
<path d="M15734 11102 c-140 -148 -259 -274 -437 -458 -53 -55 -97 -104 -97
-108 0 -4 42 -47 92 -94 51 -48 136 -127 188 -177 425 -402 493 -465 505 -465
4 0 16 9 26 21 24 28 393 412 536 560 62 63 113 120 113 125 0 6 -17 26 -37
45 -21 18 -182 168 -357 334 -176 165 -336 315 -357 332 l-37 33 -138 -148z"/>
<path d="M9945 9791 c-137 -36 -287 -175 -372 -346 -37 -74 -47 -100 -72 -195
-11 -41 -25 -93 -31 -115 -103 -367 -156 -661 -234 -1305 -19 -148 -23 -170
-36 -170 -6 0 -10 4 -10 9 0 35 -368 769 -469 936 -280 460 -543 738 -926 978
-50 32 -96 57 -101 57 -6 0 -20 -37 -31 -82 -12 -46 -49 -191 -83 -323 -56
-215 -62 -251 -63 -345 -1 -101 0 -108 35 -180 57 -121 114 -168 334 -278 67
-33 181 -97 255 -142 123 -76 134 -80 146 -64 7 10 13 24 13 31 0 26 44 103
59 103 9 -1 25 -15 37 -33 11 -18 48 -72 83 -121 121 -172 282 -463 409 -736
32 -70 178 -429 227 -560 7 -19 25 -64 39 -100 14 -36 26 -71 26 -78 0 -8 6
-12 13 -10 15 5 22 46 92 518 31 206 63 418 71 470 9 52 22 136 29 185 38 250
69 436 110 655 60 316 83 378 180 476 68 69 139 107 234 124 135 24 234 -26
342 -175 46 -64 67 -85 84 -85 20 0 24 6 28 48 2 26 12 90 20 142 54 331 55
370 16 476 -33 88 -128 179 -229 218 -50 19 -179 29 -225 17z"/>
<path d="M16135 8950 c-207 -17 -389 -52 -550 -105 -160 -53 -184 -63 -294
-118 -408 -202 -744 -554 -978 -1023 -155 -312 -214 -537 -214 -819 0 -206 37
-428 101 -613 42 -122 51 -144 89 -221 87 -176 170 -303 275 -422 23 -25 50
-56 62 -70 26 -30 155 -151 220 -205 73 -61 202 -148 322 -220 59 -35 134 -80
167 -99 33 -20 99 -59 148 -87 48 -27 87 -55 87 -61 0 -13 -30 -25 -190 -81
-316 -110 -489 -157 -795 -216 -87 -16 -372 -30 -500 -24 -173 8 -353 52 -484
119 -139 69 -291 204 -379 335 -101 151 -185 391 -198 568 -6 72 -33 172 -55
198 -11 14 -90 -24 -132 -64 -38 -35 -188 -247 -371 -522 -233 -350 -426 -554
-661 -697 -21 -13 -195 -98 -230 -113 -57 -23 -108 -39 -180 -54 -44 -9 -105
-22 -135 -29 -31 -7 -134 -12 -240 -12 -199 0 -240 7 -360 63 -142 66 -294
197 -355 306 -32 58 -68 168 -86 266 -5 25 -13 63 -18 85 -6 22 -11 57 -11 77
0 20 -4 39 -9 42 -5 3 -12 32 -15 63 -4 32 -13 92 -21 133 -8 41 -21 116 -30
165 -24 131 -20 124 -63 118 -53 -7 -157 -43 -312 -108 -213 -89 -220 -91
-310 -125 -47 -17 -100 -38 -118 -46 -18 -7 -39 -14 -47 -14 -9 0 -23 -4 -33
-10 -17 -10 -106 -42 -332 -121 -63 -22 -122 -43 -130 -46 -8 -4 -33 -12 -55
-18 -22 -7 -85 -29 -140 -50 -55 -20 -116 -41 -135 -46 -19 -6 -93 -30 -165
-53 -71 -24 -157 -51 -190 -61 -33 -10 -69 -21 -80 -26 -42 -15 -426 -132
-565 -170 -210 -58 -743 -191 -837 -209 -26 -5 -77 -16 -113 -24 -214 -47
-380 -80 -565 -112 -49 -8 -110 -19 -135 -23 -43 -8 -311 -50 -450 -71 -36 -5
-128 -16 -205 -25 -77 -9 -174 -20 -215 -25 -363 -47 -1354 -46 -1910 1 -267
23 -490 58 -750 119 -146 35 -384 111 -453 145 -16 8 -34 15 -39 15 -25 0
-420 193 -483 236 -17 12 -70 47 -119 80 -124 82 -121 80 -216 160 -189 159
-348 364 -430 555 -17 41 -35 83 -40 94 -27 57 -64 209 -80 320 -14 105 -12
387 5 511 8 60 24 152 36 204 11 52 25 113 29 135 16 76 100 320 159 460 62
148 88 225 96 284 4 31 1 39 -24 58 -48 37 -57 37 -71 1 -22 -60 -62 -152
-106 -244 -24 -50 -44 -93 -44 -96 0 -3 -27 -61 -59 -129 -105 -221 -197 -447
-271 -669 -64 -194 -130 -538 -130 -680 0 -32 -4 -62 -10 -65 -5 -3 -10 -42
-10 -85 0 -43 5 -82 10 -85 6 -3 10 -36 10 -73 0 -61 10 -140 39 -304 5 -32
22 -102 37 -155 15 -54 29 -110 31 -126 3 -15 9 -30 14 -33 5 -3 9 -12 9 -21
0 -29 114 -277 173 -378 90 -152 188 -277 326 -416 135 -135 222 -205 404
-324 99 -64 420 -235 442 -235 4 0 21 -7 38 -14 57 -27 214 -86 226 -86 6 0
19 -4 29 -9 30 -17 328 -101 412 -117 14 -3 57 -11 95 -19 529 -106 1195 -145
1845 -110 157 9 461 35 526 45 34 6 97 13 140 16 44 3 97 10 119 15 22 5 78
14 125 19 88 9 199 24 285 41 227 42 326 60 430 78 66 12 138 26 160 31 22 5
76 16 120 26 44 9 127 27 185 40 58 13 137 31 175 39 39 9 95 22 125 29 146
38 203 52 350 91 152 40 177 46 220 60 25 8 101 30 170 50 169 49 476 147 635
202 72 25 164 56 205 70 67 22 344 122 395 143 11 4 40 15 65 25 25 10 59 23
75 30 17 7 48 20 70 28 72 27 389 158 443 183 29 13 55 24 59 24 5 0 214 89
328 140 133 59 195 82 208 77 8 -3 19 -35 26 -78 7 -41 19 -103 26 -139 38
-186 45 -223 45 -250 0 -16 4 -31 9 -34 5 -4 12 -25 16 -49 4 -23 21 -80 37
-127 120 -342 328 -559 652 -680 195 -74 536 -77 766 -9 284 85 502 220 704
438 131 140 271 348 507 751 56 96 105 177 109 180 4 3 9 10 11 15 12 29 82
145 94 155 16 13 18 8 34 -95 19 -121 41 -234 57 -296 9 -35 21 -85 27 -111 6
-27 14 -48 18 -48 4 0 11 -15 15 -32 12 -58 99 -214 167 -301 160 -205 394
-341 707 -410 79 -17 128 -21 285 -20 234 0 350 22 615 114 39 14 474 193 665
274 17 7 111 48 210 90 99 42 203 87 230 100 28 13 79 35 115 50 36 15 98 42
138 61 41 19 76 34 79 34 2 0 30 12 61 26 31 15 113 51 182 81 222 96 660 291
785 348 28 13 138 61 245 108 107 47 231 101 275 122 44 20 107 48 139 62 54
23 287 127 426 190 30 14 102 47 160 73 58 26 137 62 175 80 105 48 165 75
215 98 106 48 209 95 265 121 33 16 87 40 120 54 146 62 194 87 253 132 97 73
134 137 202 344 31 97 70 203 84 236 15 33 31 69 36 80 58 139 125 292 132
301 13 18 -1 23 -35 13 -18 -5 -45 -9 -62 -9 -31 0 -88 -18 -165 -52 -25 -12
-81 -36 -125 -55 -44 -19 -89 -38 -100 -43 -11 -5 -45 -20 -75 -33 -30 -14
-100 -43 -155 -67 -55 -23 -128 -55 -162 -71 -35 -15 -102 -45 -150 -65 -49
-20 -110 -47 -138 -59 -27 -13 -99 -44 -160 -70 -60 -26 -126 -54 -145 -63
-56 -25 -276 -120 -380 -163 -52 -22 -113 -48 -135 -59 -23 -10 -86 -37 -140
-60 -55 -23 -136 -58 -180 -77 -361 -158 -379 -164 -510 -170 -116 -6 -226 10
-431 62 -674 170 -1287 583 -1635 1101 -70 105 -184 320 -214 404 -109 310
-120 383 -67 446 31 37 248 150 467 244 55 23 114 49 132 56 17 8 36 14 42 14
6 0 19 5 29 10 24 14 171 67 267 96 44 13 100 31 125 39 163 53 495 121 715
146 50 5 122 14 160 19 116 17 508 23 670 11 295 -22 378 -33 687 -92 262 -50
343 -32 247 53 -64 57 -375 262 -601 396 -134 79 -359 194 -415 212 -15 5 -53
18 -83 30 -150 58 -251 85 -430 116 -104 17 -448 26 -585 14z"/>
<path d="M4588 8471 c-1 -6 -35 -43 -74 -83 -38 -40 -157 -167 -264 -283 -106
-115 -223 -241 -259 -278 -36 -37 -67 -72 -69 -76 -3 -10 208 -214 503 -487
226 -208 212 -197 270 -202 59 -5 97 11 148 61 89 89 561 595 565 606 1 5 -19
27 -45 51 -26 24 -93 87 -148 139 -56 53 -164 155 -240 226 -212 197 -340 319
-343 328 -5 10 -40 9 -44 -2z"/>
<path d="M3884 7026 c-27 -19 -156 -153 -299 -311 -65 -71 -169 -185 -232
-253 -62 -68 -113 -127 -113 -131 0 -5 19 -26 43 -47 23 -20 132 -121 242
-224 110 -103 227 -211 259 -241 33 -30 105 -98 160 -151 56 -54 108 -97 117
-98 9 0 38 24 65 53 100 106 411 435 488 513 43 45 81 86 85 90 3 5 14 15 24
23 19 15 16 16 347 -288 74 -68 160 -147 190 -174 30 -28 79 -73 107 -101 l53
-50 355 354 c195 195 355 357 355 361 0 4 -62 62 -137 130 -76 68 -154 138
-173 156 -19 17 -48 44 -65 59 -16 15 -97 90 -178 168 -213 203 -232 205 -373
48 -48 -53 -128 -141 -178 -196 -50 -54 -100 -108 -111 -120 -88 -97 -203
-224 -219 -240 -19 -19 -23 -14 -344 313 -364 372 -403 402 -468 357z"/>
<path d="M16960 3404 c-34 -6 -51 -13 -151 -62 -170 -83 -286 -220 -433 -514
-133 -265 -114 -358 103 -500 41 -27 81 -54 88 -60 14 -11 8 -25 -102 -203
-182 -294 -208 -455 -98 -607 87 -120 267 -167 588 -153 237 10 452 52 645
125 206 79 182 67 400 188 203 113 370 259 591 517 56 66 107 123 112 126 13
9 4 43 -13 47 -8 1 -55 -30 -105 -69 -253 -201 -569 -370 -845 -452 -107 -32
-269 -71 -380 -91 -47 -9 -106 -21 -133 -26 -82 -17 -287 -23 -362 -11 -161
25 -179 31 -257 78 -44 26 -82 53 -85 59 -7 17 41 105 74 136 15 14 75 62 133
107 58 44 110 85 117 91 7 5 15 10 18 10 3 0 16 9 28 21 24 22 331 229 341
229 3 0 25 14 49 30 25 17 47 30 50 30 3 0 47 27 97 61 130 86 254 213 309
317 23 46 41 86 37 89 -3 3 -25 -4 -48 -15 -24 -11 -101 -48 -171 -81 -70 -34
-130 -61 -132 -61 -2 0 -37 -20 -77 -44 -131 -80 -173 -91 -333 -91 -125 1
-149 4 -230 29 -182 58 -235 93 -235 154 0 48 51 94 166 151 82 41 96 45 182
49 103 5 143 -6 222 -58 26 -17 48 -26 54 -20 5 5 11 80 14 167 4 144 3 163
-15 205 -36 80 -118 119 -213 102z"/>
<path d="M9070 2624 c-38 -38 -178 -128 -240 -154 -150 -63 -135 -61 -865 -70
-647 -8 -1053 -25 -1190 -50 -99 -18 -165 -40 -258 -86 -260 -128 -445 -364
-518 -662 -18 -72 -22 -115 -21 -242 1 -85 5 -171 10 -190 9 -34 11 -31 111
173 56 115 119 234 141 265 97 142 230 241 410 305 189 68 327 77 1075 77 599
0 829 8 895 31 19 6 55 18 80 27 67 22 181 95 229 147 84 91 128 182 162 334
29 128 26 141 -21 95z"/>
<path d="M11296 2458 c-58 -64 -298 -319 -421 -446 -60 -63 -115 -120 -122
-127 -10 -10 0 -29 50 -90 34 -43 71 -90 82 -104 34 -45 333 -429 434 -556 52
-66 96 -122 98 -124 1 -2 31 27 65 65 59 65 101 109 323 344 87 90 139 147
270 288 32 34 62 61 66 60 4 -2 36 -30 71 -63 36 -33 109 -100 164 -150 54
-49 130 -120 169 -156 38 -36 92 -85 119 -110 28 -24 92 -83 144 -132 51 -48
98 -87 104 -87 6 0 151 142 323 315 324 326 334 339 320 404 -5 26 -80 106
-215 233 -20 18 -107 101 -195 184 -280 264 -280 264 -322 264 -34 0 -45 -9
-162 -132 -69 -73 -219 -227 -332 -342 l-207 -210 -33 28 c-19 16 -68 61 -110
100 -42 39 -122 114 -180 166 -57 52 -140 129 -184 170 -151 141 -266 245
-273 248 -5 1 -25 -17 -46 -40z"/>
<path d="M3175 2365 c-5 -2 -27 -6 -48 -10 l-37 -6 2 -192 3 -192 145 -7 c353
-17 509 -30 720 -63 198 -31 391 -80 495 -124 11 -5 43 -17 70 -26 123 -44
337 -167 487 -282 64 -48 235 -215 290 -281 24 -28 39 -39 43 -32 14 22 18
263 6 319 -17 81 -65 172 -118 227 -46 46 -234 184 -253 184 -4 0 -10 4 -12 9
-1 4 -39 31 -83 59 -385 246 -614 333 -1050 399 -91 14 -631 29 -660 18z"/>
</g>
</svg>
