<svg width="531" height="602" viewBox="0 0 531 602" fill="none" xmlns="http://www.w3.org/2000/svg">
<g clip-path="url(#clip0_14418_78006)">
<path d="M245.207 446.478C352.669 446.478 439.785 359.362 439.785 251.899C439.785 144.436 352.669 57.3203 245.207 57.3203C137.744 57.3203 50.6279 144.436 50.6279 251.899C50.6279 359.362 137.744 446.478 245.207 446.478Z" fill="#93A3B0" fill-opacity="0.24"/>
<path d="M250.047 340.781V457.58C250.047 477.802 233.653 494.196 213.431 494.196H36.6125C21.5795 494.196 9.39167 506.384 9.39167 521.417V596.757C9.39167 599.352 7.29022 601.453 4.69583 601.453C2.10145 601.453 0 599.352 0 596.757V521.417C0 501.195 16.3936 484.804 36.6125 484.804H213.434C228.467 484.804 240.652 472.619 240.652 457.586V340.781H250.049H250.047Z" fill="#0E8478"/>
<path d="M260.614 365.992V384.709C260.614 389.18 256.991 392.801 252.522 392.801H238.173C235.705 392.801 233.497 391.697 232.015 389.959C230.81 388.543 230.081 386.713 230.081 384.709V365.992H260.611H260.614Z" fill="#0E8478"/>
<path d="M276.563 322.367V359.755C276.563 365.529 271.882 370.21 266.105 370.21H224.589C218.815 370.21 214.134 365.529 214.134 359.755V322.367H276.563Z" fill="#13897D"/>
<path d="M210.415 322.375H280.279C281.037 322.375 281.651 321.761 281.651 321.003V315.514C281.651 314.756 281.037 314.142 280.279 314.142H210.415C209.658 314.142 209.043 314.756 209.043 315.514V321.003C209.043 321.761 209.658 322.375 210.415 322.375Z" fill="#095049"/>
<path d="M235.979 314.131H225.339V288.686C225.339 285.748 227.72 283.367 230.657 283.367C233.595 283.367 235.976 285.748 235.976 288.686V314.131H235.979Z" fill="#0E8478"/>
<path d="M260.037 283.367C262.975 283.367 265.356 285.751 265.356 288.686V314.131H254.716V288.686C254.716 285.748 257.1 283.367 260.034 283.367H260.037Z" fill="#0E8478"/>
<path d="M276.563 322.359V359.747C276.563 365.521 271.882 370.203 266.105 370.203H224.589C218.815 370.203 214.134 365.521 214.134 359.747C258.962 356.634 263.078 322.359 263.078 322.359H276.56H276.563Z" fill="#095049"/>
<path d="M276.563 322.359H214.134V325.375H276.563V322.359Z" fill="#0E8478"/>
<path d="M276.564 338.164V359.749C276.564 365.523 271.882 370.205 266.105 370.205H236.962C266.394 370.205 276.564 338.164 276.564 338.164Z" fill="#0E8478"/>
<path d="M260.614 370.203H230.084V372.158H260.614V370.203Z" fill="#0E8478"/>
<path d="M235.982 310.398H225.342V314.123H235.982V310.398Z" fill="#15172D"/>
<path d="M265.356 310.398H254.716V314.123H265.356V310.398Z" fill="#15172D"/>
<path d="M260.614 370.206V384.712C260.614 389.182 256.991 392.803 252.523 392.803H238.173C235.705 392.803 233.497 391.699 232.016 389.961C254.382 392.702 257.798 370.203 257.798 370.203H260.614V370.206Z" fill="#0E8478"/>
<path d="M530.836 4.69583C530.836 7.29022 528.732 9.39455 526.137 9.39455H277.267C262.234 9.39455 250.046 21.5824 250.046 36.6154V160.047H240.651V36.6154C240.651 16.3936 257.042 0 277.267 0H526.137C528.732 0 530.836 2.10433 530.836 4.69583Z" fill="#0E8478"/>
<path d="M260.614 149.48V130.763C260.614 126.292 256.991 122.672 252.522 122.672H238.173C235.705 122.672 233.497 123.776 232.015 125.514C230.81 126.93 230.081 128.76 230.081 130.763V149.48H260.611H260.614Z" fill="#0E8478"/>
<path d="M276.563 193.117V155.729C276.563 149.955 271.882 145.273 266.105 145.273H224.589C218.815 145.273 214.134 149.955 214.134 155.729V193.117H276.563Z" fill="#13897D"/>
<path d="M210.415 201.352H280.279C281.037 201.352 281.651 200.737 281.651 199.979V194.491C281.651 193.733 281.037 193.119 280.279 193.119H210.415C209.658 193.119 209.043 193.733 209.043 194.491V199.979C209.043 200.737 209.658 201.352 210.415 201.352Z" fill="#095049"/>
<path d="M276.563 193.117V155.729C276.563 149.955 271.882 145.273 266.105 145.273H224.589C218.815 145.273 214.134 149.955 214.134 155.729C258.962 158.842 263.078 193.117 263.078 193.117H276.56H276.563Z" fill="#095049"/>
<path d="M276.563 190.102H214.134V193.117H276.563V190.102Z" fill="#0E8478"/>
<path d="M276.564 177.314V155.729C276.564 149.955 271.882 145.273 266.105 145.273H236.962C266.394 145.273 276.564 177.314 276.564 177.314Z" fill="#0E8478"/>
<path d="M260.614 143.32H230.084V145.275H260.614V143.32Z" fill="#0E8478"/>
<path d="M260.614 145.269V130.763C260.614 126.292 256.991 122.672 252.523 122.672H238.173C235.705 122.672 233.497 123.776 232.016 125.514C254.382 122.773 257.798 145.272 257.798 145.272H260.614V145.269Z" fill="#0E8478"/>
<path d="M163.463 233.993H144.132C142.662 233.993 141.472 232.803 141.472 231.333C141.472 229.862 142.662 228.672 144.132 228.672H163.463C164.934 228.672 166.124 229.862 166.124 231.333C166.124 232.803 164.934 233.993 163.463 233.993Z" fill="#13897D"/>
<path d="M187.998 209.457C186.527 209.457 185.337 208.267 185.337 206.796V187.465C185.337 185.995 186.527 184.805 187.998 184.805C189.468 184.805 190.658 185.995 190.658 187.465V206.796C190.658 208.267 189.468 209.457 187.998 209.457Z" fill="#13897D"/>
<path d="M170.26 216.252C169.58 216.252 168.9 215.993 168.378 215.474L155.101 202.196C154.063 201.156 154.063 199.472 155.101 198.435C156.138 197.397 157.825 197.397 158.862 198.435L172.14 211.712C173.181 212.75 173.181 214.436 172.14 215.474C171.621 215.993 170.941 216.252 170.258 216.252H170.26Z" fill="#13897D"/>
<path d="M327.232 293.859H346.563C348.033 293.859 349.224 295.05 349.224 296.52C349.224 297.99 348.033 299.181 346.563 299.181H327.232C325.762 299.181 324.571 297.99 324.571 296.52C324.571 295.05 325.762 293.859 327.232 293.859Z" fill="#13897D"/>
<path d="M302.701 318.391C304.171 318.391 305.361 319.581 305.361 321.051V340.382C305.361 341.853 304.171 343.043 302.701 343.043C301.231 343.043 300.04 341.853 300.04 340.382V321.051C300.04 319.581 301.231 318.391 302.701 318.391Z" fill="#13897D"/>
<path d="M320.437 311.594C321.118 311.594 321.798 311.853 322.32 312.372L335.597 325.65C336.635 326.687 336.635 328.374 335.597 329.411C334.559 330.449 332.873 330.449 331.835 329.411L318.558 316.134C317.52 315.093 317.517 313.41 318.558 312.372C319.077 311.853 319.757 311.594 320.44 311.594H320.437Z" fill="#13897D"/>
</g>
<defs>
<clipPath id="clip0_14418_78006">
<rect width="530.837" height="601.45" fill="white"/>
</clipPath>
</defs>
</svg>
