<svg width="16" height="18" viewBox="0 0 16 18" fill="none" xmlns="http://www.w3.org/2000/svg">
<path fill-rule="evenodd" clip-rule="evenodd" d="M1.40005 2.39922C1.40005 1.18419 2.38502 0.199219 3.60005 0.199219H12.4C13.6151 0.199219 14.6 1.18419 14.6 2.39922V15.5992C15.2076 15.5992 15.7 16.0917 15.7 16.6992C15.7 17.3067 15.2076 17.7992 14.6 17.7992H11.3C10.6925 17.7992 10.2 17.3067 10.2 16.6992V14.4992C10.2 13.8917 9.70756 13.3992 9.10005 13.3992H6.90005C6.29254 13.3992 5.80005 13.8917 5.80005 14.4992V16.6992C5.80005 17.3067 5.30756 17.7992 4.70005 17.7992H1.40005C0.792536 17.7992 0.300049 17.3067 0.300049 16.6992C0.300049 16.0917 0.792536 15.5992 1.40005 15.5992V2.39922ZM4.70005 3.49922H6.90005V5.69922H4.70005V3.49922ZM6.90005 7.89922H4.70005V10.0992H6.90005V7.89922ZM9.10005 3.49922H11.3V5.69922H9.10005V3.49922ZM11.3 7.89922H9.10005V10.0992H11.3V7.89922Z" fill="#637381"/>
</svg>
