<svg width="16" height="18" viewBox="0 0 16 18" fill="none" xmlns="http://www.w3.org/2000/svg">
<path d="M6.90005 1.29922C6.90005 0.691706 7.39254 0.199219 8.00005 0.199219C8.60756 0.199219 9.10005 0.691706 9.10005 1.29922V7.34922C9.10005 7.65297 9.34629 7.89922 9.65005 7.89922C9.9538 7.89922 10.2 7.65297 10.2 7.34922V2.39922C10.2 1.79171 10.6925 1.29922 11.3 1.29922C11.9076 1.29922 12.4 1.79171 12.4 2.39922V7.34922C12.4 7.65297 12.6463 7.89922 12.95 7.89922C13.2538 7.89922 13.5 7.65297 13.5 7.34922V4.59922C13.5 3.99171 13.9925 3.49922 14.6 3.49922C15.2076 3.49922 15.7 3.99171 15.7 4.59922V10.0992C15.7 14.3518 12.2526 17.7992 8.00005 17.7992C3.74746 17.7992 0.300049 14.3518 0.300049 10.0992V7.89922C0.300049 7.29171 0.792536 6.79922 1.40005 6.79922C2.00756 6.79922 2.50005 7.29171 2.50005 7.89922V10.6492C2.50005 10.953 2.74629 11.1992 3.05005 11.1992C3.35381 11.1992 3.60005 10.953 3.60005 10.6492V2.39922C3.60005 1.79171 4.09254 1.29922 4.70005 1.29922C5.30756 1.29922 5.80005 1.79171 5.80005 2.39922V7.34922C5.80005 7.65297 6.04629 7.89922 6.35005 7.89922C6.65381 7.89922 6.90005 7.65297 6.90005 7.34922V1.29922Z" fill="#637381"/>
</svg>
