<svg width="18" height="18" viewBox="0 0 18 18" fill="none" xmlns="http://www.w3.org/2000/svg">
<path d="M9.77777 0.521401C9.34819 0.0918246 8.65171 0.0918246 8.22213 0.521401L0.522134 8.2214C0.092557 8.65098 0.092557 9.34746 0.522134 9.77703C0.95171 10.2066 1.64819 10.2066 2.07777 9.77703L2.39995 9.45485V16.6992C2.39995 17.3067 2.89244 17.7992 3.49995 17.7992H5.69995C6.30746 17.7992 6.79995 17.3067 6.79995 16.6992V14.4992C6.79995 13.8917 7.29244 13.3992 7.89995 13.3992H10.1C10.7075 13.3992 11.2 13.8917 11.2 14.4992V16.6992C11.2 17.3067 11.6924 17.7992 12.2999 17.7992H14.5C15.1075 17.7992 15.5999 17.3067 15.5999 16.6992V9.45485L15.9221 9.77703C16.3517 10.2066 17.0482 10.2066 17.4778 9.77703C17.9073 9.34746 17.9073 8.65098 17.4778 8.2214L9.77777 0.521401Z" fill="#637381"/>
</svg>
