<svg width="20" height="14" viewBox="0 0 20 14" fill="none" xmlns="http://www.w3.org/2000/svg">
<g opacity="0.48">
<path d="M18.8 2.80156C18.8 4.01659 17.815 5.00156 16.6 5.00156C15.3849 5.00156 14.4 4.01659 14.4 2.80156C14.4 1.58654 15.3849 0.601562 16.6 0.601562C17.815 0.601562 18.8 1.58654 18.8 2.80156Z" fill="#00AB55"/>
<path d="M5.59998 2.80156C5.59998 4.01659 4.615 5.00156 3.39998 5.00156C2.18495 5.00156 1.19998 4.01659 1.19998 2.80156C1.19998 1.58654 2.18495 0.601562 3.39998 0.601562C4.615 0.601562 5.59998 1.58654 5.59998 2.80156Z" fill="#00AB55"/>
<path d="M16.6 13.8016V10.5016C16.6 9.342 16.3009 8.25228 15.7758 7.30532C16.0392 7.23758 16.3154 7.20156 16.6 7.20156C18.4225 7.20156 19.9 8.67902 19.9 10.5016V13.8016H16.6Z" fill="#00AB55"/>
<path d="M4.22416 7.30532C3.69901 8.25228 3.39998 9.342 3.39998 10.5016V13.8016H0.0999756V10.5016C0.0999756 8.67902 1.57744 7.20156 3.39998 7.20156C3.68456 7.20156 3.96072 7.23758 4.22416 7.30532Z" fill="#00AB55"/>
</g>
</svg>
