<svg width="178" height="100" viewBox="0 0 178 100" fill="none" xmlns="http://www.w3.org/2000/svg">
<path d="M145.725 15.9237V77.5693H64.4981V44.4727C64.4993 43.2235 64.2537 41.9863 63.7753 40.8319C63.2969 39.6775 62.5952 38.6286 61.7103 37.7453C60.8254 36.8619 59.7746 36.1615 58.6181 35.684C57.4617 35.2065 56.2222 34.9613 54.9708 34.9625H25.9453V15.9053C25.9453 13.8961 26.3419 11.9066 27.1125 10.0504C27.883 8.19432 29.0124 6.50793 30.4361 5.08765C31.8598 3.66737 33.5499 2.54103 35.4098 1.77299C37.2697 1.00495 39.2631 0.610256 41.2758 0.611468H130.385C134.454 0.611468 138.355 2.22472 141.232 5.09632C144.109 7.96792 145.725 11.8626 145.725 15.9237Z" fill="#3E5464"/>
<path d="M64.4981 44.3251V77.5324H41.2759C37.2091 77.5299 33.3097 75.9156 30.435 73.0443C27.5602 70.1729 25.9453 66.2796 25.9453 62.2201V34.9625H55.1186C57.6062 34.9625 59.9919 35.9489 61.7509 37.7048C63.5099 39.4606 64.4981 41.842 64.4981 44.3251Z" fill="#2B3F4B"/>
<path d="M64.4998 77.5693V90.4832C64.4974 92.7666 63.587 94.9556 61.9686 96.5693C60.3503 98.183 58.1564 99.0894 55.8689 99.0894H0.941406V43.5687C0.941406 41.2862 1.84976 39.0972 3.46664 37.4832C5.08352 35.8692 7.27649 34.9625 9.5631 34.9625H25.9471V62.257C25.9471 66.3165 27.562 70.2098 30.4367 73.0812C33.3115 75.9525 37.2109 77.5668 41.2776 77.5693H64.4998Z" fill="#7298A4"/>
<path d="M88.6843 68.5203C86.3371 68.5203 84.646 67.9761 83.611 66.8876C83.091 66.3301 82.6861 65.6757 82.4197 64.9619C82.1533 64.248 82.0306 63.4887 82.0586 62.7275V61.0948C82.0027 59.5546 82.561 58.0553 83.611 56.9254C84.646 55.837 86.3371 55.2927 88.6843 55.2927C91.0314 55.2927 92.6948 55.837 93.6743 56.9254C94.7244 58.0553 95.2827 59.5546 95.2268 61.0948V62.7275C95.2547 63.4887 95.132 64.248 94.8656 64.9619C94.5992 65.6757 94.1944 66.3301 93.6743 66.8876C92.6393 67.9761 90.976 68.5203 88.6843 68.5203ZM86.4942 50.3947L83.1398 26.6423V10.5552H94.2288V26.6423L91.0407 50.3947H86.4942Z" fill="#E1DDD4"/>
<path d="M127.152 19.7333H169.596C171.814 19.743 173.939 20.6263 175.508 22.1912C177.078 23.7561 177.965 25.8762 177.977 28.0905V41.7792C177.975 44.0015 177.09 46.1324 175.518 47.7055C173.945 49.2787 171.813 50.166 169.586 50.1733H118.762V28.0905C118.774 25.8746 119.662 23.7532 121.234 22.188C122.805 20.6228 124.932 19.7406 127.152 19.7333Z" fill="#EDCB5F"/>
<path d="M162.833 40.4602C165.696 40.4602 168.017 38.1433 168.017 35.2854C168.017 32.4274 165.696 30.1106 162.833 30.1106C159.969 30.1106 157.648 32.4274 157.648 35.2854C157.648 38.1433 159.969 40.4602 162.833 40.4602Z" fill="#2B3F4B"/>
<path d="M148.469 40.4602C151.332 40.4602 153.653 38.1433 153.653 35.2854C153.653 32.4274 151.332 30.1106 148.469 30.1106C145.606 30.1106 143.285 32.4274 143.285 35.2854C143.285 38.1433 145.606 40.4602 148.469 40.4602Z" fill="#2B3F4B"/>
<path d="M134.122 40.4602C136.985 40.4602 139.306 38.1433 139.306 35.2854C139.306 32.4274 136.985 30.1106 134.122 30.1106C131.259 30.1106 128.938 32.4274 128.938 35.2854C128.938 38.1433 131.259 40.4602 134.122 40.4602Z" fill="#2B3F4B"/>
</svg>
