<svg width="193" height="196" viewBox="0 0 193 196" fill="none" xmlns="http://www.w3.org/2000/svg">
<path opacity="0.76" d="M37.8471 162.742H191.945C191.945 139.885 191.945 117.027 192.512 94.1834C193.079 69.7686 187.131 51.3184 162.246 44.6447C162.246 35.0233 149.796 18.5058 115.823 0C87.2028 15.3775 67.7676 34.4533 67.7676 45.4511C44.9296 51.3602 37.2662 66.0841 37.5013 87.5931C37.8471 112.62 37.8471 137.646 37.8471 162.742Z" fill="#E5E0D3"/>
<path d="M7.2781 62.2606H86.2637C88.0614 62.2606 89.7854 62.9784 91.0565 64.256C92.3277 65.5337 93.0418 67.2666 93.0418 69.0734V178.773H7.2781C6.38799 178.773 5.50659 178.597 4.68423 178.255C3.86188 177.912 3.11466 177.411 2.48526 176.778C1.85585 176.145 1.35658 175.394 1.01595 174.568C0.675321 173.741 0.5 172.855 0.5 171.961L0.5 69.0734C0.5 68.1788 0.675321 67.2928 1.01595 66.4663C1.35658 65.6397 1.85585 64.8887 2.48526 64.256C3.11466 63.6234 3.86188 63.1216 4.68423 62.7792C5.50659 62.4368 6.38799 62.2606 7.2781 62.2606Z" fill="#CCC8B7"/>
<path d="M80.6307 52.9591H138.978C142.045 52.9591 144.986 54.1837 147.155 56.3635C149.324 58.5433 150.542 61.4998 150.542 64.5825V83.5471C150.542 85.0736 150.243 86.585 149.662 87.9953C149.08 89.4055 148.229 90.6868 147.155 91.7662C146.081 92.8455 144.806 93.7017 143.403 94.2858C142 94.87 140.496 95.1706 138.978 95.1706H69.0664V64.5825C69.0664 61.4998 70.2848 58.5433 72.4535 56.3635C74.6222 54.1837 77.5636 52.9591 80.6307 52.9591Z" fill="#EDCB5F"/>
<path d="M129.698 81.6979C133.633 81.6979 136.822 78.4921 136.822 74.5376C136.822 70.583 133.633 67.3772 129.698 67.3772C125.764 67.3772 122.574 70.583 122.574 74.5376C122.574 78.4921 125.764 81.6979 129.698 81.6979Z" fill="#2B3F4B"/>
<path d="M109.96 81.6979C113.894 81.6979 117.084 78.4921 117.084 74.5376C117.084 70.583 113.894 67.3772 109.96 67.3772C106.025 67.3772 102.836 70.583 102.836 74.5376C102.836 78.4921 106.025 81.6979 109.96 81.6979Z" fill="#2B3F4B"/>
<path d="M90.2216 81.6979C94.156 81.6979 97.3455 78.4921 97.3455 74.5376C97.3455 70.583 94.156 67.3772 90.2216 67.3772C86.2871 67.3772 83.0977 70.583 83.0977 74.5376C83.0977 78.4921 86.2871 81.6979 90.2216 81.6979Z" fill="#2B3F4B"/>
<path d="M177.562 120.739V190.564C177.564 191.278 177.425 191.986 177.154 192.646C176.883 193.307 176.484 193.907 175.982 194.412C175.479 194.917 174.882 195.317 174.225 195.59C173.568 195.862 172.864 196.002 172.153 196H49.6079C48.8971 196.002 48.193 195.862 47.5359 195.59C46.8789 195.317 46.2819 194.917 45.7793 194.412C45.2767 193.907 44.8784 193.307 44.6072 192.646C44.3361 191.986 44.1974 191.278 44.1992 190.564V120.739C44.1988 120.432 44.2266 120.124 44.2822 119.822C44.5026 118.561 45.1565 117.418 46.1299 116.592C47.1032 115.766 48.3341 115.31 49.6079 115.303H172.195C173.476 115.3 174.716 115.752 175.698 116.578C176.68 117.405 177.34 118.554 177.562 119.822C177.59 120.127 177.59 120.434 177.562 120.739Z" fill="#7298A4"/>
<path d="M177.559 119.822L159.258 130.945L124.676 151.884C120.535 154.388 115.793 155.712 110.96 155.712C106.128 155.712 101.386 154.388 97.2451 151.884L63.8111 131.626L44.293 119.822C44.4834 118.531 45.144 117.356 46.1466 116.527C47.1109 115.735 48.318 115.302 49.5633 115.303H172.136C173.378 115.3 174.581 115.733 175.539 116.527C176.607 117.325 177.33 118.504 177.559 119.822Z" fill="#3E5464"/>
<path d="M32.5941 85.5771L27.1163 140.65H21.7491L16.2852 85.5771H32.5941Z" fill="#2B3F4B"/>
<path d="M23.9353 156.792C27.2585 156.792 29.9526 154.084 29.9526 150.744C29.9526 147.403 27.2585 144.695 23.9353 144.695C20.612 144.695 17.918 147.403 17.918 150.744C17.918 154.084 20.612 156.792 23.9353 156.792Z" fill="#2B3F4B"/>
</svg>
