<svg width="207" height="188" viewBox="0 0 207 188" fill="none" xmlns="http://www.w3.org/2000/svg">
<path d="M170.258 81.445V159.46C170.258 161.079 169.615 162.631 168.472 163.775C167.329 164.92 165.778 165.563 164.162 165.563H26.6941C25.0773 165.563 23.5267 164.92 22.3835 163.775C21.2402 162.631 20.598 161.079 20.598 159.46V81.445C20.5941 81.1048 20.6268 80.7651 20.6955 80.4319C20.9349 78.9852 21.7043 77.6797 22.8535 76.7704C23.9308 75.8906 25.2794 75.4118 26.6697 75.4156H164.186C165.579 75.416 166.93 75.8941 168.014 76.7704C169.156 77.6841 169.921 78.9882 170.16 80.4319C170.229 80.7651 170.262 81.1048 170.258 81.445Z" fill="#7298A4"/>
<path d="M170.173 80.4319L149.641 92.7591L110.833 116.193C106.187 118.99 100.868 120.467 95.4464 120.467C90.025 120.467 84.7059 118.99 80.0598 116.193L42.6296 93.6257L20.6836 80.4319C20.9295 79.0221 21.6625 77.7436 22.7545 76.82C23.8466 75.8963 25.2282 75.3863 26.6578 75.379H164.198C165.628 75.3863 167.01 75.8963 168.102 76.82C169.194 77.7436 169.927 79.0221 170.173 80.4319Z" fill="#3E5464"/>
<path d="M149.64 27.7545V92.7591L110.832 116.193C106.186 118.99 100.867 120.467 95.4457 120.467C90.0243 120.467 84.7052 118.99 80.0591 116.193L42.6289 93.6257V27.7179L149.64 27.7545Z" fill="#CBC8B5"/>
<path d="M133.62 53.0314H59.418" stroke="#2B3F4B" stroke-width="1.43835" stroke-miterlimit="10"/>
<path d="M133.62 69.6792H59.418" stroke="#2B3F4B" stroke-width="1.43835" stroke-miterlimit="10"/>
<path d="M138.498 -1.71747e-06H195.448C198.443 -1.71747e-06 201.314 1.19074 203.432 3.31027C205.549 5.4298 206.738 8.3045 206.738 11.302V29.7317C206.738 32.7292 205.549 35.6039 203.432 37.7234C201.314 39.843 198.443 41.0337 195.448 41.0337H127.172V11.302C127.172 9.81468 127.465 8.34203 128.035 6.96842C128.604 5.59481 129.439 4.34726 130.492 3.29729C131.544 2.24733 132.793 1.4156 134.167 0.849777C135.541 0.283958 137.013 -0.00482012 138.498 -1.71747e-06Z" fill="#50A589"/>
<path d="M186.399 27.9498C190.244 27.9498 193.361 24.8296 193.361 20.9806C193.361 17.1317 190.244 14.0115 186.399 14.0115C182.554 14.0115 179.438 17.1317 179.438 20.9806C179.438 24.8296 182.554 27.9498 186.399 27.9498Z" fill="#2B3F4B"/>
<path d="M167.126 27.9498C170.971 27.9498 174.088 24.8296 174.088 20.9806C174.088 17.1317 170.971 14.0115 167.126 14.0115C163.281 14.0115 160.164 17.1317 160.164 20.9806C160.164 24.8296 163.281 27.9498 167.126 27.9498Z" fill="#2B3F4B"/>
<path d="M147.86 27.9498C151.705 27.9498 154.822 24.8296 154.822 20.9806C154.822 17.1317 151.705 14.0115 147.86 14.0115C144.015 14.0115 140.898 17.1317 140.898 20.9806C140.898 24.8296 144.015 27.9498 147.86 27.9498Z" fill="#2B3F4B"/>
<path d="M31.9376 187.154C49.4382 187.154 63.6253 172.952 63.6253 155.433C63.6253 137.913 49.4382 123.711 31.9376 123.711C14.437 123.711 0.25 137.913 0.25 155.433C0.25 172.952 14.437 187.154 31.9376 187.154Z" fill="#EDCB5F"/>
<path d="M51.0805 155.567L12.7969 155.286" stroke="#2B3F4B" stroke-width="1.26592" stroke-miterlimit="10"/>
</svg>
