<svg width="22" height="16" viewBox="0 0 22 16" fill="none" xmlns="http://www.w3.org/2000/svg">
<path d="M20.4714 1.15039H1.1708C1.07647 1.15039 1 1.22686 1 1.32119V11.7401C1 11.8344 1.07647 11.9109 1.1708 11.9109H20.4714C20.5657 11.9109 20.6422 11.8344 20.6422 11.7401V1.32119C20.6422 1.22686 20.5657 1.15039 20.4714 1.15039Z" fill="#78C2A4"/>
<path d="M2.11021 11.7401V1.32119C2.11021 1.27589 2.12821 1.23245 2.16024 1.20042C2.19227 1.16839 2.23571 1.15039 2.28101 1.15039H1.1708C1.1255 1.15039 1.08206 1.16839 1.05003 1.20042C1.018 1.23245 1 1.27589 1 1.32119V11.7401C1 11.7854 1.018 11.8288 1.05003 11.8609C1.08206 11.8929 1.1255 11.9109 1.1708 11.9109H2.28101C2.23571 11.9109 2.19227 11.8929 2.16024 11.8609C2.12821 11.8288 2.11021 11.7854 2.11021 11.7401Z" fill="#65A589"/>
<path d="M19.3614 3.96876V9.0928C18.9085 9.09297 18.4741 9.27298 18.1538 9.59326C17.8336 9.91354 17.6536 10.3479 17.6534 10.8008H3.98927C3.9891 10.3479 3.80909 9.91354 3.48881 9.59326C3.16853 9.27298 2.73419 9.09297 2.28125 9.0928V3.96876C2.73419 3.96859 3.16853 3.78858 3.48881 3.4683C3.80909 3.14803 3.9891 2.71368 3.98927 2.26074H17.6534C17.6534 2.71374 17.8333 3.14818 18.1537 3.46849C18.474 3.78881 18.9084 3.96876 19.3614 3.96876Z" fill="#B3E59F"/>
<path d="M17.1693 7.55548C17.7353 7.55548 18.1941 7.09666 18.1941 6.53067C18.1941 5.96468 17.7353 5.50586 17.1693 5.50586C16.6034 5.50586 16.1445 5.96468 16.1445 6.53067C16.1445 7.09666 16.6034 7.55548 17.1693 7.55548Z" fill="#95D6A4"/>
<path d="M10.8209 10.1604C12.8255 10.1604 14.4505 8.53544 14.4505 6.5309C14.4505 4.52636 12.8255 2.90137 10.8209 2.90137C8.8164 2.90137 7.19141 4.52636 7.19141 6.5309C7.19141 8.53544 8.8164 10.1604 10.8209 10.1604Z" fill="#95D6A4"/>
<path d="M0.574219 14.3027H21.0704V15.4983H0.574219V14.3027Z" fill="#B3E59F"/>
<path d="M0.574219 11.9111H21.0704V13.1067H0.574219V11.9111Z" fill="#B3E59F"/>
<path d="M0.574219 13.1064H21.0704V14.3021H0.574219V13.1064Z" fill="#A8D394"/>
<path d="M0.574219 14.3027H1.85523V15.4983H0.574219V14.3027Z" fill="#98C185"/>
<path d="M0.574219 11.9111H1.85523V13.1067H0.574219V11.9111Z" fill="#98C185"/>
<path d="M0.574219 13.1064H1.85523V14.3021H0.574219V13.1064Z" fill="#90B57D"/>
<path d="M9.32812 11.8262H12.3172V15.5838H9.32812V11.8262Z" fill="#EFDAA0"/>
<path d="M9.32812 11.8262H10.6091V15.5838H9.32812V11.8262Z" fill="#CCB989"/>
<path d="M8.47551 6.5309C8.47574 5.6795 8.77523 4.85527 9.32161 4.20231C9.868 3.54936 10.6265 3.10923 11.4645 2.95888C10.9418 2.8647 10.4048 2.88639 9.89136 3.02243C9.37794 3.15846 8.90062 3.40552 8.49311 3.74617C8.0856 4.08682 7.75782 4.51276 7.5329 4.99393C7.30798 5.47509 7.19141 5.99976 7.19141 6.5309C7.19141 7.06204 7.30798 7.58671 7.5329 8.06787C7.75782 8.54904 8.0856 8.97498 8.49311 9.31563C8.90062 9.65628 9.37794 9.90334 9.89136 10.0394C10.4048 10.1754 10.9418 10.1971 11.4645 10.1029C10.6265 9.95257 9.868 9.51244 9.32161 8.85949C8.77523 8.20653 8.47574 7.3823 8.47551 6.5309Z" fill="#8ABF91"/>
<path d="M3.56226 8.85343V4.20814C3.56196 4.14639 3.58412 4.08663 3.62461 4.04001C3.6651 3.99338 3.72116 3.96307 3.78234 3.95471C4.19369 3.901 4.57146 3.69953 4.84523 3.38786C5.119 3.07618 5.27007 2.67558 5.27028 2.26074H3.98927C3.9891 2.71368 3.80909 3.14803 3.48881 3.4683C3.16853 3.78858 2.73419 3.96859 2.28125 3.96876V9.0928C2.73419 9.09297 3.16853 9.27298 3.48881 9.59326C3.80909 9.91354 3.9891 10.3479 3.98927 10.8008H5.27028C5.27007 10.386 5.119 9.98538 4.84523 9.6737C4.57146 9.36203 4.19369 9.16056 3.78234 9.10685C3.72116 9.09849 3.6651 9.06818 3.62461 9.02155C3.58412 8.97493 3.56196 8.91518 3.56226 8.85343Z" fill="#9AC487"/>
<path d="M4.47403 7.55548C5.04001 7.55548 5.49884 7.09666 5.49884 6.53067C5.49884 5.96468 5.04001 5.50586 4.47403 5.50586C3.90804 5.50586 3.44922 5.96468 3.44922 6.53067C3.44922 7.09666 3.90804 7.55548 4.47403 7.55548Z" fill="#95D6A4"/>
<path d="M3.73536 2.26011C3.73493 2.64502 3.58183 3.01405 3.30966 3.28622C3.03748 3.5584 2.66846 3.71149 2.28355 3.71192C2.2156 3.71192 2.15043 3.73891 2.10238 3.78696C2.05434 3.83501 2.02734 3.90017 2.02734 3.96812V9.09217C2.02734 9.16012 2.05434 9.22528 2.10238 9.27333C2.15043 9.32138 2.2156 9.34837 2.28355 9.34837C2.66846 9.3488 3.03748 9.5019 3.30966 9.77407C3.58183 10.0462 3.73493 10.4153 3.73536 10.8002C3.73536 10.8681 3.76235 10.9333 3.8104 10.9813C3.85845 11.0294 3.92361 11.0564 3.99156 11.0564H17.6557C17.7236 11.0564 17.7888 11.0294 17.8368 10.9813C17.8849 10.9333 17.9119 10.8681 17.9119 10.8002C17.9123 10.4153 18.0654 10.0462 18.3376 9.77407C18.6098 9.5019 18.9788 9.3488 19.3637 9.34837C19.4316 9.34837 19.4968 9.32138 19.5449 9.27333C19.5929 9.22528 19.6199 9.16012 19.6199 9.09217V3.96812C19.6199 3.90017 19.5929 3.83501 19.5449 3.78696C19.4968 3.73891 19.4316 3.71192 19.3637 3.71192C18.9788 3.71149 18.6098 3.5584 18.3376 3.28622C18.0654 3.01405 17.9123 2.64502 17.9119 2.26011C17.9119 2.19216 17.8849 2.12699 17.8368 2.07895C17.7888 2.0309 17.7236 2.00391 17.6557 2.00391H3.99156C3.92361 2.00391 3.85845 2.0309 3.8104 2.07895C3.76235 2.12699 3.73536 2.19216 3.73536 2.26011ZM17.4161 2.51631C17.4732 2.94485 17.6697 3.3427 17.9754 3.6484C18.2811 3.95409 18.679 4.15064 19.1075 4.20767V8.85262C18.679 8.90966 18.2811 9.1062 17.9754 9.4119C17.6697 9.7176 17.4732 10.1154 17.4161 10.544H4.23111C4.17408 10.1154 3.97753 9.7176 3.67183 9.4119C3.36613 9.1062 2.96829 8.90966 2.53975 8.85262V4.20767C2.96829 4.15064 3.36613 3.95409 3.67183 3.6484C3.97753 3.3427 4.17408 2.94485 4.23111 2.51631H17.4161Z" fill="#284268"/>
<path d="M3.19531 6.53003C3.19531 6.78339 3.27044 7.03107 3.4112 7.24173C3.55196 7.45239 3.75203 7.61658 3.9861 7.71354C4.22018 7.81049 4.47774 7.83586 4.72624 7.78643C4.97473 7.737 5.20298 7.615 5.38214 7.43585C5.56129 7.25669 5.68329 7.02844 5.73272 6.77995C5.78215 6.53146 5.75678 6.27389 5.65982 6.03981C5.56287 5.80574 5.39868 5.60567 5.18802 5.46491C4.97735 5.32415 4.72968 5.24902 4.47632 5.24902C4.13669 5.2494 3.81108 5.38448 3.57092 5.62464C3.33077 5.86479 3.19569 6.1904 3.19531 6.53003ZM4.47632 5.76143C4.62834 5.76143 4.77694 5.80651 4.90334 5.89096C5.02974 5.97542 5.12825 6.09546 5.18642 6.2359C5.2446 6.37635 5.25982 6.53089 5.23016 6.67998C5.20051 6.82908 5.1273 6.96603 5.01981 7.07352C4.91232 7.18101 4.77537 7.25422 4.62627 7.28387C4.47718 7.31353 4.32264 7.29831 4.18219 7.24014C4.04175 7.18196 3.92171 7.08345 3.83725 6.95705C3.7528 6.83065 3.70772 6.68205 3.70772 6.53003C3.70795 6.32626 3.78901 6.1309 3.9331 5.98681C4.07719 5.84272 4.27255 5.76167 4.47632 5.76143Z" fill="#284268"/>
<path d="M17.1716 7.81105C17.425 7.81105 17.6727 7.73592 17.8833 7.59516C18.094 7.4544 18.2582 7.25433 18.3551 7.02026C18.4521 6.78618 18.4775 6.52861 18.428 6.28012C18.3786 6.03163 18.2566 5.80338 18.0774 5.62422C17.8983 5.44507 17.67 5.32307 17.4215 5.27364C17.1731 5.22421 16.9155 5.24958 16.6814 5.34654C16.4473 5.44349 16.2473 5.60768 16.1065 5.81834C15.9658 6.029 15.8906 6.27668 15.8906 6.53004C15.891 6.86967 16.0261 7.19528 16.2662 7.43544C16.5064 7.67559 16.832 7.81067 17.1716 7.81105ZM17.1716 5.76143C17.3237 5.76143 17.4723 5.80651 17.5987 5.89096C17.725 5.97542 17.8236 6.09546 17.8817 6.2359C17.9399 6.37635 17.9551 6.53089 17.9255 6.67998C17.8958 6.82908 17.8226 6.96603 17.7151 7.07352C17.6076 7.18101 17.4707 7.25422 17.3216 7.28387C17.1725 7.31353 17.0179 7.29831 16.8775 7.24014C16.7371 7.18196 16.617 7.08345 16.5326 6.95705C16.4481 6.83065 16.403 6.68205 16.403 6.53004C16.4033 6.32626 16.4843 6.13089 16.6284 5.9868C16.7725 5.8427 16.9679 5.76165 17.1716 5.76143Z" fill="#284268"/>
<path d="M5.71323 3.55342H7.81926C7.88721 3.55342 7.95237 3.52643 8.00042 3.47838C8.04847 3.43033 8.07546 3.36517 8.07546 3.29722C8.07546 3.22927 8.04847 3.1641 8.00042 3.11606C7.95237 3.06801 7.88721 3.04102 7.81926 3.04102H5.71323C5.64528 3.04102 5.58012 3.06801 5.53207 3.11606C5.48402 3.1641 5.45703 3.22927 5.45703 3.29722C5.45703 3.36517 5.48402 3.43033 5.53207 3.47838C5.58012 3.52643 5.64528 3.55342 5.71323 3.55342Z" fill="#284268"/>
<path d="M4.53355 3.55342H4.80119C4.86914 3.55342 4.93431 3.52643 4.98235 3.47838C5.0304 3.43033 5.05739 3.36517 5.05739 3.29722C5.05739 3.22927 5.0304 3.1641 4.98235 3.11606C4.93431 3.06801 4.86914 3.04102 4.80119 3.04102H4.53355C4.4656 3.04102 4.40043 3.06801 4.35238 3.11606C4.30434 3.1641 4.27734 3.22927 4.27734 3.29722C4.27734 3.36517 4.30434 3.43033 4.35238 3.47838C4.40043 3.52643 4.4656 3.55342 4.53355 3.55342Z" fill="#284268"/>
<path d="M21.0727 11.6541H20.9019V1.32056C20.9019 1.20731 20.8569 1.0987 20.7768 1.01862C20.6968 0.938542 20.5881 0.893555 20.4749 0.893555H6.12428C6.05633 0.893555 5.99116 0.920547 5.94311 0.968595C5.89507 1.01664 5.86807 1.08181 5.86807 1.14976C5.86807 1.21771 5.89507 1.28287 5.94311 1.33092C5.99116 1.37897 6.05633 1.40596 6.12428 1.40596H20.3895V11.6541H12.5097C12.4857 11.6272 12.4564 11.6057 12.4235 11.591C12.3907 11.5762 12.3551 11.5686 12.3191 11.5686H9.33009C9.2941 11.5686 9.25852 11.5762 9.22567 11.591C9.19283 11.6057 9.16347 11.6272 9.13952 11.6541H1.25972V1.40596H3.98926C4.05721 1.40596 4.12237 1.37897 4.17042 1.33092C4.21847 1.28287 4.24546 1.21771 4.24546 1.14976C4.24546 1.08181 4.21847 1.01664 4.17042 0.968595C4.12237 0.920547 4.05721 0.893555 3.98926 0.893555H1.17432C1.06107 0.893555 0.952462 0.938542 0.872383 1.01862C0.792304 1.0987 0.747316 1.20731 0.747316 1.32056V11.6541H0.576515C0.508566 11.6541 0.4434 11.681 0.395352 11.7291C0.347305 11.7771 0.320312 11.8423 0.320312 11.9103V15.4971C0.320312 15.565 0.347305 15.6302 0.395352 15.6782C0.4434 15.7263 0.508566 15.7533 0.576515 15.7533H9.13952C9.16347 15.7802 9.19283 15.8017 9.22567 15.8164C9.25852 15.8311 9.2941 15.8387 9.33009 15.8387H12.3191C12.3551 15.8387 12.3907 15.8311 12.4235 15.8164C12.4564 15.8017 12.4857 15.7802 12.5097 15.7533H21.0727C21.1406 15.7533 21.2058 15.7263 21.2539 15.6782C21.3019 15.6302 21.3289 15.565 21.3289 15.4971V11.9103C21.3289 11.8423 21.3019 11.7771 21.2539 11.7291C21.2058 11.681 21.1406 11.6541 21.0727 11.6541ZM9.07389 15.2409H0.832717V14.5577H9.07389V15.2409ZM9.07389 14.0453H0.832717V13.3621H9.07389V14.0453ZM9.07389 12.8497H0.832717V12.1665H9.07389V12.8497ZM12.0629 15.3263H9.5863V12.0811H12.0629V15.3263ZM20.8165 15.2409H12.5753V14.5577H20.8165V15.2409ZM20.8165 12.8497H18.7902C18.7222 12.8497 18.6571 12.8767 18.609 12.9247C18.561 12.9727 18.534 13.0379 18.534 13.1059C18.534 13.1738 18.561 13.239 18.609 13.287C18.6571 13.3351 18.7222 13.3621 18.7902 13.3621H20.8165V14.0453H12.5753V13.3621H16.6552C16.7231 13.3621 16.7883 13.3351 16.8363 13.287C16.8844 13.239 16.9114 13.1738 16.9114 13.1059C16.9114 13.0379 16.8844 12.9727 16.8363 12.9247C16.7883 12.8767 16.7231 12.8497 16.6552 12.8497H12.5753V12.1665H20.8165V12.8497Z" fill="#284268"/>
<path d="M6.9386 6.44067C6.92723 6.91683 7.00382 7.391 7.16453 7.83936C7.17606 7.87101 7.1937 7.90007 7.21646 7.9249C7.23921 7.94973 7.26664 7.96983 7.29716 7.98406C7.32769 7.99829 7.36072 8.00636 7.39436 8.00783C7.42801 8.00929 7.46162 8.00412 7.49326 7.99259C7.52491 7.98107 7.55397 7.96342 7.5788 7.94067C7.60363 7.91791 7.62373 7.89049 7.63796 7.85996C7.65219 7.82944 7.66026 7.79641 7.66173 7.76276C7.66319 7.72911 7.65802 7.69551 7.64649 7.66386C7.37423 6.90307 7.38371 6.06989 7.67321 5.31549C7.96271 4.56109 8.51305 3.93546 9.22437 3.55212C9.9357 3.16878 10.7609 3.05313 11.5502 3.22615C12.3395 3.39918 13.0406 3.84941 13.5263 4.49516C14.0121 5.14091 14.2502 5.93938 14.1976 6.74571C14.145 7.55203 13.805 8.31278 13.2395 8.88991C12.6739 9.46704 11.9202 9.82232 11.1151 9.89128C10.3101 9.96024 9.50691 9.73831 8.85145 9.26577C8.79635 9.22894 8.72913 9.2149 8.66389 9.22659C8.59866 9.23828 8.54049 9.2748 8.50161 9.32847C8.46273 9.38214 8.44616 9.44879 8.45538 9.51442C8.4646 9.58005 8.49889 9.63955 8.55106 9.68043C9.04704 10.0382 9.62048 10.2739 10.2247 10.3682C10.829 10.4626 11.447 10.4129 12.0284 10.2233C12.6098 10.0338 13.1383 9.70958 13.5708 9.2772C14.0033 8.84482 14.3276 8.31644 14.5174 7.73506C14.7071 7.15367 14.757 6.53571 14.6628 5.93143C14.5686 5.32716 14.3331 4.75365 13.9755 4.25757C13.6178 3.76149 13.1481 3.35684 12.6046 3.07656C12.061 2.79628 11.459 2.64828 10.8474 2.6446C8.73693 2.63179 6.98643 4.33067 6.9386 6.44067Z" fill="#284268"/>
<path d="M10.0189 4.37207C9.95093 4.37207 9.88576 4.39906 9.83772 4.44711C9.78967 4.49516 9.76268 4.56032 9.76268 4.62827V7.26831C9.76331 7.33926 9.74988 7.40964 9.72317 7.47537C9.69645 7.54111 9.65698 7.6009 9.60703 7.6513C9.55708 7.7017 9.49764 7.7417 9.43215 7.769C9.36665 7.7963 9.2964 7.81036 9.22544 7.81036C9.15449 7.81036 9.08423 7.7963 9.01874 7.769C8.95324 7.7417 8.8938 7.7017 8.84385 7.6513C8.79391 7.6009 8.75443 7.54111 8.72772 7.47537C8.701 7.40964 8.68757 7.33926 8.68821 7.26831V6.90642C8.68821 6.83847 8.66121 6.77331 8.61317 6.72526C8.56512 6.67721 8.49995 6.65022 8.432 6.65022C8.36406 6.65022 8.29889 6.67721 8.25084 6.72526C8.2028 6.77331 8.1758 6.83847 8.1758 6.90642V7.26831C8.17492 7.40671 8.20142 7.54393 8.25377 7.67205C8.30613 7.80017 8.3833 7.91668 8.48086 8.01486C8.57841 8.11304 8.69442 8.19095 8.82221 8.24412C8.94999 8.29729 9.08704 8.32467 9.22544 8.32467C9.36385 8.32467 9.50089 8.29729 9.62868 8.24412C9.75646 8.19095 9.87247 8.11304 9.97003 8.01486C10.0676 7.91668 10.1448 7.80017 10.1971 7.67205C10.2495 7.54393 10.276 7.40671 10.2751 7.26831V4.62827C10.2751 4.56032 10.2481 4.49516 10.2 4.44711C10.152 4.39906 10.0868 4.37207 10.0189 4.37207Z" fill="#284268"/>
<path d="M12.5849 6.50282V6.34188C12.5849 6.27393 12.558 6.20877 12.5099 6.16072C12.4619 6.11267 12.3967 6.08568 12.3287 6.08568C12.2608 6.08568 12.1956 6.11267 12.1476 6.16072C12.0995 6.20877 12.0725 6.27393 12.0725 6.34188V6.50282C12.0702 6.62528 12.0199 6.74193 11.9325 6.82771C11.845 6.91348 11.7275 6.96154 11.605 6.96154C11.4825 6.96154 11.3649 6.91348 11.2775 6.82771C11.19 6.74193 11.1397 6.62528 11.1374 6.50282V4.62827C11.1374 4.56032 11.1104 4.49516 11.0624 4.44711C11.0143 4.39906 10.9492 4.37207 10.8812 4.37207C10.8133 4.37207 10.7481 4.39906 10.7 4.44711C10.652 4.49516 10.625 4.56032 10.625 4.62827V6.50282C10.6284 6.76048 10.7331 7.00644 10.9166 7.18745C11.1 7.36845 11.3473 7.46994 11.605 7.46994C11.8627 7.46994 12.11 7.36845 12.2934 7.18745C12.4768 7.00644 12.5815 6.76048 12.5849 6.50282Z" fill="#284268"/>
<path d="M13.192 6.33321C13.1807 6.30148 13.1633 6.27228 13.1406 6.24731C13.118 6.22233 13.0907 6.20206 13.0602 6.18766C13.0298 6.17326 12.9968 6.16501 12.9631 6.16338C12.9295 6.16176 12.8958 6.16679 12.8641 6.17818C12.8324 6.18957 12.8032 6.20711 12.7783 6.22979C12.7534 6.25247 12.7332 6.27984 12.7189 6.31033C12.7045 6.34083 12.6964 6.37385 12.6948 6.40751C12.6933 6.44117 12.6984 6.47481 12.7098 6.50649L12.9346 7.13209L12.3291 8.26071L11.4441 8.25977H11.4439C11.3759 8.25973 11.3107 8.28668 11.2626 8.3347C11.2146 8.38272 11.1875 8.44787 11.1875 8.51582C11.1875 8.58377 11.2144 8.64895 11.2624 8.69703C11.3105 8.7451 11.3756 8.77213 11.4436 8.77217L12.482 8.77328H12.4822C12.5286 8.77329 12.574 8.76073 12.6138 8.73693C12.6536 8.71314 12.6861 8.67901 12.708 8.63818L13.4401 7.27365C13.457 7.24202 13.4671 7.20719 13.4698 7.17141C13.4724 7.13562 13.4675 7.09968 13.4554 7.06591L13.192 6.33321Z" fill="#284268"/>
<path d="M11.2881 8.09541C11.3561 8.09541 11.4213 8.06842 11.4693 8.02037C11.5174 7.97233 11.5444 7.90716 11.5444 7.83921C11.5444 7.77126 11.5174 7.70609 11.4693 7.65805C11.4213 7.61 11.3561 7.58301 11.2881 7.58301H11.225C11.157 7.58301 11.0918 7.61 11.0438 7.65805C10.9957 7.70609 10.9688 7.77126 10.9688 7.83921C10.9688 7.90716 10.9957 7.97233 11.0438 8.02037C11.0918 8.06842 11.157 8.09541 11.225 8.09541H11.2881Z" fill="#284268"/>
<path d="M11.9203 7.58301C11.8523 7.58301 11.7871 7.61 11.7391 7.65805C11.6911 7.70609 11.6641 7.77126 11.6641 7.83921C11.6641 7.90716 11.6911 7.97233 11.7391 8.02037C11.7871 8.06842 11.8523 8.09541 11.9203 8.09541H11.9835C12.0514 8.09541 12.1166 8.06842 12.1646 8.02037C12.2127 7.97233 12.2397 7.90716 12.2397 7.83921C12.2397 7.77126 12.2127 7.70609 12.1646 7.65805C12.1166 7.61 12.0514 7.58301 11.9835 7.58301H11.9203Z" fill="#284268"/>
</svg>
