<svg width="24" height="24" viewBox="0 0 24 24" fill="none" xmlns="http://www.w3.org/2000/svg">
<path d="M4.5 13.875V1.875C4.5 1.67609 4.57902 1.48532 4.71967 1.34467C4.86032 1.20402 5.05109 1.125 5.25 1.125H15L19.5 5.625V13.875" fill="#D6D6D4"/>
<path d="M19.5 21.375V22.125C19.5 22.3239 19.421 22.5147 19.2803 22.6553C19.1397 22.796 18.9489 22.875 18.75 22.875H5.25C5.05109 22.875 4.86032 22.796 4.71967 22.6553C4.57902 22.5147 4.5 22.3239 4.5 22.125V21.375" fill="#D6D6D4"/>
<path d="M15 1.125V5.625H19.5" fill="#44546C"/>
<path d="M19.875 13.875H4.125C3.71079 13.875 3.375 14.2108 3.375 14.625V20.625C3.375 21.0392 3.71079 21.375 4.125 21.375H19.875C20.2892 21.375 20.625 21.0392 20.625 20.625V14.625C20.625 14.2108 20.2892 13.875 19.875 13.875Z" fill="#348FD9"/>
<path d="M17.25 9.75H6.75C6.65054 9.75 6.55516 9.71049 6.48483 9.64017C6.41451 9.56984 6.375 9.47446 6.375 9.375C6.375 9.27554 6.41451 9.18016 6.48483 9.10983C6.55516 9.03951 6.65054 9 6.75 9H17.25C17.3495 9 17.4448 9.03951 17.5152 9.10983C17.5855 9.18016 17.625 9.27554 17.625 9.375C17.625 9.47446 17.5855 9.56984 17.5152 9.64017C17.4448 9.71049 17.3495 9.75 17.25 9.75Z" fill="#44546C"/>
<path d="M17.25 12H6.75C6.65054 12 6.55516 11.9605 6.48483 11.8902C6.41451 11.8198 6.375 11.7245 6.375 11.625C6.375 11.5255 6.41451 11.4302 6.48483 11.3598C6.55516 11.2895 6.65054 11.25 6.75 11.25H17.25C17.3495 11.25 17.4448 11.2895 17.5152 11.3598C17.5855 11.4302 17.625 11.5255 17.625 11.625C17.625 11.7245 17.5855 11.8198 17.5152 11.8902C17.4448 11.9605 17.3495 12 17.25 12Z" fill="#44546C"/>
<path d="M8.56502 15.6024C8.76259 15.5996 8.95956 15.6248 9.15002 15.6774C9.32509 15.7208 9.48714 15.8057 9.62252 15.9249C9.75957 16.0467 9.86726 16.198 9.93752 16.3674C10.0179 16.5779 10.0561 16.8022 10.05 17.0274V18.5874C10.0564 18.8139 10.0182 19.0394 9.93752 19.2512C9.86622 19.4189 9.75864 19.5687 9.62252 19.6899C9.48714 19.8091 9.32509 19.894 9.15002 19.9374C8.95916 19.988 8.76247 20.0132 8.56502 20.0124H7.50002C7.39367 20.0187 7.28821 19.9897 7.20002 19.9299C7.16669 19.9082 7.13906 19.8789 7.11948 19.8443C7.0999 19.8097 7.08894 19.7709 7.08752 19.7312V15.8837C7.08894 15.8439 7.0999 15.8051 7.11948 15.7705C7.13906 15.7359 7.16669 15.7066 7.20002 15.6849C7.28821 15.6251 7.39367 15.5961 7.50002 15.6024H8.56502ZM8.02877 16.4237V19.1912H8.56502C8.63831 19.1951 8.71165 19.1842 8.78061 19.1591C8.84957 19.1339 8.91273 19.0951 8.96627 19.0449C9.07111 18.9165 9.12218 18.7526 9.10877 18.5874V17.0274C9.12218 16.8622 9.07111 16.6983 8.96627 16.5699C8.91273 16.5197 8.84957 16.4809 8.78061 16.4557C8.71165 16.4306 8.63831 16.4197 8.56502 16.4237H8.02877Z" fill="#D6D6D4"/>
<path d="M12.0787 20.0493C11.8825 20.0506 11.687 20.0253 11.4975 19.9743C11.3221 19.9284 11.1599 19.8421 11.0238 19.7223C10.8877 19.6025 10.7815 19.4525 10.7137 19.2843C10.6327 19.074 10.5945 18.8496 10.6012 18.6243V17.0268C10.5952 16.8016 10.6334 16.5773 10.7137 16.3668C10.784 16.1974 10.8917 16.0462 11.0287 15.9243C11.1636 15.8065 11.3241 15.7217 11.4975 15.6768C11.6866 15.624 11.8824 15.5987 12.0787 15.6018C12.2763 15.599 12.4733 15.6242 12.6637 15.6768C12.8379 15.7225 12.9995 15.8071 13.1362 15.9243C13.2732 16.0454 13.3798 16.197 13.4475 16.3668C13.531 16.5765 13.5705 16.8012 13.5637 17.0268V18.6243C13.5713 18.85 13.5317 19.0748 13.4475 19.2843C13.3756 19.4548 13.2652 19.6062 13.125 19.7268C12.9864 19.8412 12.8255 19.9255 12.6525 19.9743C12.4653 20.0239 12.2724 20.0491 12.0787 20.0493ZM12.6225 17.0268C12.6297 16.9441 12.6205 16.8608 12.5954 16.7816C12.5703 16.7024 12.5298 16.629 12.4762 16.5656C12.4232 16.516 12.3606 16.4777 12.2922 16.4532C12.2238 16.4287 12.1512 16.4185 12.0787 16.4231C12.0068 16.4181 11.9346 16.4282 11.8668 16.4527C11.799 16.4773 11.7371 16.5157 11.685 16.5656C11.6321 16.6293 11.5922 16.7029 11.5678 16.782C11.5433 16.8611 11.5347 16.9443 11.5425 17.0268V18.6243C11.5344 18.7062 11.5429 18.7889 11.5673 18.8675C11.5918 18.9461 11.6318 19.019 11.685 19.0818C11.7369 19.1322 11.7987 19.1712 11.8665 19.1964C11.9343 19.2215 12.0065 19.2323 12.0787 19.2281C12.1514 19.232 12.2242 19.221 12.2925 19.1959C12.3609 19.1707 12.4234 19.1319 12.4762 19.0818C12.53 19.0193 12.5707 18.9465 12.5959 18.8679C12.621 18.7893 12.63 18.7065 12.6225 18.6243V17.0268Z" fill="#D6D6D4"/>
<path d="M16.125 16.9629C16.1279 16.913 16.1279 16.8629 16.125 16.8129C16.1165 16.7497 16.0934 16.6894 16.0575 16.6367C16.0171 16.574 15.9617 16.5224 15.8962 16.4867C15.8055 16.4378 15.7028 16.4157 15.6 16.4229C15.5266 16.4183 15.4531 16.4289 15.3841 16.4541C15.315 16.4792 15.2519 16.5184 15.1987 16.5692C15.0939 16.6975 15.0428 16.8615 15.0562 17.0267V18.6242C15.0436 18.7893 15.0946 18.953 15.1987 19.0817C15.2525 19.1327 15.3162 19.1721 15.3859 19.1972C15.4556 19.2224 15.5298 19.2329 15.6037 19.2279C15.7024 19.234 15.8009 19.2133 15.8887 19.1679C15.9517 19.1324 16.005 19.0821 16.0442 19.0213C16.0834 18.9606 16.1073 18.8912 16.1137 18.8192C16.1245 18.7546 16.132 18.6895 16.1362 18.6242C16.1354 18.5764 16.1489 18.5294 16.175 18.4893C16.201 18.4492 16.2385 18.4179 16.2825 18.3992C16.3834 18.3571 16.4919 18.3366 16.6012 18.3392C16.7329 18.3253 16.8652 18.3571 16.9762 18.4292C17.0247 18.4775 17.0606 18.5369 17.0809 18.6023C17.1011 18.6676 17.1051 18.7369 17.0925 18.8042C17.0965 18.9908 17.0567 19.1758 16.9762 19.3442C16.9037 19.4995 16.7943 19.6347 16.6575 19.7379C16.5146 19.8492 16.3516 19.9319 16.1775 19.9817C15.9829 20.0402 15.7807 20.0693 15.5775 20.0679C15.3887 20.0683 15.2007 20.043 15.0187 19.9929C14.8499 19.9423 14.693 19.8582 14.5575 19.7454C14.4217 19.6167 14.3166 19.459 14.25 19.2842C14.169 19.0739 14.1307 18.8495 14.1375 18.6242V17.0267C14.1314 16.8014 14.1696 16.5772 14.25 16.3667C14.3202 16.1973 14.4279 16.046 14.565 15.9242C14.6909 15.8119 14.8392 15.7276 15 15.6767C15.1816 15.6248 15.3698 15.5995 15.5587 15.6017C15.7614 15.5998 15.9634 15.6263 16.1587 15.6804C16.3322 15.7263 16.4952 15.8053 16.6387 15.9129C16.7731 16.011 16.8823 16.1395 16.9575 16.2879C17.038 16.447 17.078 16.6235 17.0737 16.8017C17.0851 16.8689 17.0805 16.9379 17.0603 17.003C17.0401 17.0682 17.0049 17.1277 16.9575 17.1767C16.8518 17.2414 16.7286 17.2715 16.605 17.2629C16.4931 17.2675 16.3816 17.247 16.2787 17.2029C16.2315 17.1837 16.1914 17.1503 16.1638 17.1073C16.1363 17.0643 16.1227 17.0139 16.125 16.9629Z" fill="#D6D6D4"/>
</svg>
