<svg width="16" height="16" viewBox="0 0 16 16" fill="none" xmlns="http://www.w3.org/2000/svg">
<g clip-path="url(#clip0_1729_14456)">
<path d="M6.66332 11.4728C6.83376 11.6434 7.03614 11.7787 7.25889 11.871C7.48164 11.9633 7.72039 12.0108 7.96151 12.0108C8.20263 12.0108 8.44138 11.9633 8.66413 11.871C8.88688 11.7787 9.08926 11.6434 9.2597 11.4728L11.2241 9.50843C11.3294 9.39194 11.3859 9.23942 11.3819 9.08242C11.3779 8.92543 11.3136 8.77601 11.2025 8.66508C11.0913 8.55415 10.9417 8.49022 10.7847 8.48652C10.6277 8.48282 10.4753 8.53964 10.3591 8.64521L8.569 10.4359L8.57329 0.998007C8.57329 0.835754 8.50883 0.680146 8.3941 0.565416C8.27937 0.450685 8.12376 0.38623 7.96151 0.38623V0.38623C7.79926 0.38623 7.64365 0.450685 7.52892 0.565416C7.41419 0.680146 7.34973 0.835754 7.34973 0.998007L7.34423 10.4243L5.56396 8.64521C5.44916 8.5305 5.2935 8.46609 5.13122 8.46614C4.96893 8.4662 4.81331 8.53073 4.6986 8.64552C4.58389 8.76031 4.51947 8.91598 4.51953 9.07826C4.51959 9.24055 4.58411 9.39616 4.69891 9.51088L6.66332 11.4728Z" fill="#1E1E1E"/>
<path d="M14.69 10.1748C14.5277 10.1748 14.3721 10.2393 14.2574 10.354C14.1427 10.4687 14.0782 10.6243 14.0782 10.7866V13.2337C14.0782 13.3959 14.0138 13.5515 13.899 13.6663C13.7843 13.781 13.6287 13.8455 13.4664 13.8455H2.45447C2.29222 13.8455 2.13661 13.781 2.02188 13.6663C1.90715 13.5515 1.84269 13.3959 1.84269 13.2337V10.7866C1.84269 10.6243 1.77824 10.4687 1.66351 10.354C1.54878 10.2393 1.39317 10.1748 1.23092 10.1748C1.06866 10.1748 0.913056 10.2393 0.798326 10.354C0.683595 10.4687 0.619141 10.6243 0.619141 10.7866L0.619141 13.2337C0.619141 13.7204 0.812505 14.1873 1.1567 14.5315C1.50089 14.8757 1.96771 15.069 2.45447 15.069H13.4664C13.9532 15.069 14.42 14.8757 14.7642 14.5315C15.1084 14.1873 15.3018 13.7204 15.3018 13.2337V10.7866C15.3018 10.6243 15.2373 10.4687 15.1226 10.354C15.0079 10.2393 14.8523 10.1748 14.69 10.1748Z" fill="#1E1E1E"/>
</g>
<defs>
<clipPath id="clip0_1729_14456">
<rect width="14.6826" height="14.6826" fill="white" transform="translate(0.617188 0.38623)"/>
</clipPath>
</defs>
</svg>
