<svg width="24" height="24" viewBox="0 0 24 24" fill="none" xmlns="http://www.w3.org/2000/svg">
<path d="M4.5 13.875V1.875C4.5 1.67609 4.57902 1.48532 4.71967 1.34467C4.86032 1.20402 5.05109 1.125 5.25 1.125H15L19.5 5.625V13.875" fill="#D6D6D4"/>
<path d="M19.5 21.375V22.125C19.5 22.3239 19.421 22.5147 19.2803 22.6553C19.1397 22.796 18.9489 22.875 18.75 22.875H5.25C5.05109 22.875 4.86032 22.796 4.71967 22.6553C4.57902 22.5147 4.5 22.3239 4.5 22.125V21.375" fill="#D6D6D4"/>
<path d="M15 1.125V5.625H19.5" fill="#44546C"/>
<path d="M19.875 13.875H4.125C3.71079 13.875 3.375 14.2108 3.375 14.625V20.625C3.375 21.0392 3.71079 21.375 4.125 21.375H19.875C20.2892 21.375 20.625 21.0392 20.625 20.625V14.625C20.625 14.2108 20.2892 13.875 19.875 13.875Z" fill="#FFA912"/>
<path d="M17.25 9.75H6.75C6.65054 9.75 6.55516 9.71049 6.48483 9.64017C6.41451 9.56984 6.375 9.47446 6.375 9.375C6.375 9.27554 6.41451 9.18016 6.48483 9.10983C6.55516 9.03951 6.65054 9 6.75 9H17.25C17.3495 9 17.4448 9.03951 17.5152 9.10983C17.5855 9.18016 17.625 9.27554 17.625 9.375C17.625 9.47446 17.5855 9.56984 17.5152 9.64017C17.4448 9.71049 17.3495 9.75 17.25 9.75Z" fill="#44546C"/>
<path d="M17.25 12H6.75C6.65054 12 6.55516 11.9605 6.48483 11.8902C6.41451 11.8198 6.375 11.7245 6.375 11.625C6.375 11.5255 6.41451 11.4302 6.48483 11.3598C6.55516 11.2895 6.65054 11.25 6.75 11.25H17.25C17.3495 11.25 17.4448 11.2895 17.5152 11.3598C17.5855 11.4302 17.625 11.5255 17.625 11.625C17.625 11.7245 17.5855 11.8198 17.5152 11.8902C17.4448 11.9605 17.3495 12 17.25 12Z" fill="#44546C"/>
<path d="M7.00881 15.8853C7.0096 15.8471 7.01874 15.8095 7.03558 15.7751C7.05242 15.7408 7.07656 15.7106 7.10631 15.6865C7.17824 15.6286 7.26904 15.5992 7.3613 15.604H8.62506C8.81274 15.6016 8.99975 15.6269 9.18005 15.679C9.34693 15.7232 9.5019 15.8039 9.63381 15.9153C9.76717 16.0335 9.87117 16.1811 9.93756 16.3465C10.0148 16.5526 10.0517 16.7716 10.0463 16.9915V17.0215C10.0525 17.2419 10.0142 17.4613 9.9338 17.6665C9.86384 17.8339 9.75601 17.9828 9.6188 18.1015C9.48275 18.2168 9.32256 18.3001 9.15005 18.3453C8.95951 18.3974 8.7626 18.4227 8.56506 18.4203H7.95006V19.7253C7.95037 19.772 7.93659 19.8178 7.9105 19.8566C7.88441 19.8954 7.84723 19.9254 7.8038 19.9428C7.70323 19.9911 7.59286 20.0155 7.48131 20.014C7.36971 20.0159 7.25924 19.9915 7.15881 19.9428C7.11438 19.9265 7.07609 19.8968 7.04923 19.8579C7.02236 19.8189 7.00824 19.7726 7.00881 19.7253V15.8853ZM7.95006 16.4253V17.6965H8.55005C8.62277 17.7004 8.69552 17.6895 8.76386 17.6643C8.8322 17.6392 8.8947 17.6004 8.94756 17.5503C9.0531 17.4223 9.10426 17.2581 9.09005 17.0928V17.029C9.10508 16.8637 9.05383 16.6991 8.94756 16.5715C8.8947 16.5214 8.8322 16.4826 8.76386 16.4575C8.69552 16.4324 8.62277 16.4214 8.55005 16.4253H7.95006Z" fill="#D6D6D4"/>
<path d="M13.0577 20.0139C12.9543 20.0155 12.8516 19.999 12.7539 19.9652C12.6574 19.9278 12.5784 19.8555 12.5327 19.7627L11.3852 17.6739V19.7252C11.3857 19.7725 11.3716 19.8188 11.3447 19.8578C11.3179 19.8967 11.2796 19.9264 11.2352 19.9427C11.1349 19.9918 11.0243 20.0162 10.9127 20.0139C10.8011 20.0153 10.6907 19.991 10.5902 19.9427C10.5467 19.9253 10.5096 19.8953 10.4835 19.8565C10.4574 19.8177 10.4436 19.7719 10.4439 19.7252V15.8927C10.4428 15.8453 10.4563 15.7987 10.4824 15.7591C10.5085 15.7196 10.5461 15.689 10.5902 15.6714C10.6916 15.6261 10.8016 15.6031 10.9127 15.6039C10.9851 15.5995 11.0577 15.5995 11.1302 15.6039C11.1896 15.6113 11.247 15.6304 11.2989 15.6602C11.359 15.6972 11.4112 15.7456 11.4527 15.8027C11.5096 15.8854 11.561 15.9718 11.6064 16.0614L12.5852 17.9364V15.8852C12.584 15.8377 12.5979 15.7912 12.6249 15.7521C12.6518 15.713 12.6904 15.6835 12.7352 15.6677C12.8373 15.625 12.947 15.6033 13.0577 15.6039C13.1683 15.6037 13.2779 15.6254 13.3802 15.6677C13.4239 15.6846 13.4614 15.7145 13.4875 15.7534C13.5137 15.7923 13.5273 15.8383 13.5264 15.8852V19.7252C13.5267 19.7719 13.5129 19.8177 13.4869 19.8565C13.4608 19.8953 13.4236 19.9253 13.3802 19.9427C13.2796 19.991 13.1692 20.0153 13.0577 20.0139Z" fill="#D6D6D4"/>
<path d="M16.1512 16.9654C16.1545 16.9079 16.1545 16.8503 16.1512 16.7929C16.1435 16.7283 16.1203 16.6666 16.0837 16.6129C16.0429 16.5558 15.9888 16.5095 15.9262 16.4779C15.8316 16.4374 15.7289 16.4194 15.6262 16.4254C15.5529 16.4207 15.4794 16.4313 15.4103 16.4565C15.3412 16.4817 15.2781 16.5209 15.225 16.5716C15.1201 16.7 15.0691 16.8639 15.0825 17.0291V18.6266C15.0699 18.7917 15.1208 18.9554 15.225 19.0841C15.2747 19.1321 15.3334 19.1698 15.3978 19.1949C15.4622 19.22 15.5309 19.2321 15.6 19.2304C15.6733 19.2343 15.7466 19.2234 15.8156 19.1983C15.8845 19.1732 15.9477 19.1343 16.0012 19.0841C16.1054 18.9554 16.1563 18.7917 16.1437 18.6266V18.4204H15.7687C15.7274 18.4216 15.6864 18.4122 15.6497 18.3932C15.6129 18.3742 15.5816 18.3461 15.5587 18.3116C15.5109 18.2367 15.4861 18.1493 15.4875 18.0604C15.4862 17.9726 15.511 17.8865 15.5587 17.8129C15.5798 17.7762 15.6106 17.746 15.6476 17.7256C15.6846 17.7051 15.7265 17.6951 15.7687 17.6966H16.785C16.8246 17.6943 16.8642 17.7012 16.9006 17.7168C16.9371 17.7324 16.9694 17.7563 16.995 17.7866C17.0431 17.8444 17.0685 17.9177 17.0662 17.9929V18.6266C17.073 18.8519 17.0347 19.0763 16.9537 19.2866C16.8859 19.4548 16.7798 19.6048 16.6437 19.7246C16.5076 19.8444 16.3454 19.9307 16.17 19.9766C15.9778 20.0272 15.7799 20.0524 15.5812 20.0516C15.385 20.0524 15.1896 20.0272 15 19.9766C14.8282 19.9278 14.6685 19.8435 14.5312 19.7291C14.4059 19.6042 14.3098 19.4531 14.25 19.2866C14.1658 19.0771 14.1262 18.8523 14.1337 18.6266V17.0291C14.1269 16.8035 14.1665 16.5789 14.25 16.3691C14.3176 16.1993 14.4242 16.0477 14.5612 15.9266C14.6948 15.8111 14.8523 15.7266 15.0225 15.6791C15.2041 15.6272 15.3923 15.602 15.5812 15.6041C15.7839 15.602 15.9859 15.6285 16.1812 15.6829C16.3547 15.7288 16.5177 15.8077 16.6612 15.9154C16.7957 16.0143 16.906 16.1426 16.9837 16.2904C17.0613 16.4503 17.0998 16.6264 17.0962 16.8041C17.1069 16.8711 17.1024 16.9396 17.0829 17.0045C17.0634 17.0694 17.0295 17.1291 16.9837 17.1791C16.8714 17.2478 16.7398 17.278 16.6087 17.2654C16.4957 17.2693 16.3831 17.2488 16.2787 17.2054C16.2354 17.1834 16.1998 17.1485 16.177 17.1055C16.1542 17.0626 16.1452 17.0136 16.1512 16.9654Z" fill="#D6D6D4"/>
</svg>
