<svg width="32" height="32" viewBox="0 0 32 32" fill="none" xmlns="http://www.w3.org/2000/svg">
<g clip-path="url(#clip0_1426_31846)">
<path d="M13.2252 18.7805C13.0719 18.6271 12.9279 18.4591 12.7979 18.2818C12.5812 17.9845 12.6466 17.5671 12.9446 17.3505C13.2419 17.1338 13.6586 17.1991 13.8759 17.4965C13.9619 17.6151 14.0586 17.7291 14.1672 17.8371C14.7026 18.3725 15.4139 18.6671 16.1706 18.6671C16.9272 18.6671 17.6392 18.3725 18.1739 17.8371L21.8406 14.1705C22.9452 13.0658 22.9452 11.2678 21.8406 10.1631C20.7359 9.05847 18.9379 9.05847 17.8332 10.1631L17.1279 10.8685C16.8672 11.1291 16.4459 11.1291 16.1852 10.8685C15.9246 10.6078 15.9246 10.1865 16.1852 9.9258L16.8906 9.22047C18.5152 7.59513 21.1586 7.59513 22.7832 9.22047C24.4079 10.8451 24.4079 13.4885 22.7832 15.1131L19.1166 18.7798C18.3299 19.5671 17.2832 20.0005 16.1706 20.0005C15.0579 20.0005 14.0112 19.5671 13.2252 18.7805ZM12.1706 24.0005C13.2839 24.0005 14.3299 23.5671 15.1166 22.7798L15.8219 22.0745C16.0826 21.8145 16.0826 21.3925 15.8219 21.1318C15.5619 20.8711 15.1399 20.8718 14.8792 21.1318L14.1732 21.8371C13.6379 22.3725 12.9266 22.6671 12.1699 22.6671C11.4132 22.6671 10.7019 22.3725 10.1666 21.8371C9.63124 21.3018 9.33657 20.5905 9.33657 19.8338C9.33657 19.0771 9.63124 18.3651 10.1666 17.8305L13.8332 14.1638C14.3686 13.6285 15.0799 13.3338 15.8366 13.3338C16.5932 13.3338 17.3052 13.6285 17.8399 14.1638C17.9466 14.2711 18.0439 14.3851 18.1306 14.5038C18.3466 14.8018 18.7632 14.8685 19.0619 14.6511C19.3599 14.4345 19.4259 14.0178 19.2092 13.7198C19.0826 13.5451 18.9392 13.3778 18.7832 13.2218C17.9959 12.4338 16.9492 12.0005 15.8366 12.0005C14.7239 12.0005 13.6772 12.4338 12.8906 13.2211L9.22457 16.8878C8.43724 17.6745 8.00391 18.7211 8.00391 19.8338C8.00391 20.9465 8.43724 21.9931 9.22457 22.7798C10.0112 23.5671 11.0572 24.0005 12.1706 24.0005Z" fill="#93A3B0"/>
</g>
<defs>
<clipPath id="clip0_1426_31846">
<rect width="16" height="16" fill="white" transform="translate(8 8)"/>
</clipPath>
</defs>
</svg>
