<svg width="32" height="32" viewBox="0 0 32 32" fill="none" xmlns="http://www.w3.org/2000/svg">
<g clip-path="url(#clip0_1426_31841)">
<path d="M20.6667 8H11.3333C10.4496 8.00106 9.60237 8.35259 8.97748 8.97748C8.35259 9.60237 8.00106 10.4496 8 11.3333L8 20.6667C8.00106 21.5504 8.35259 22.3976 8.97748 23.0225C9.60237 23.6474 10.4496 23.9989 11.3333 24H20.6667C21.5504 23.9989 22.3976 23.6474 23.0225 23.0225C23.6474 22.3976 23.9989 21.5504 24 20.6667V11.3333C23.9989 10.4496 23.6474 9.60237 23.0225 8.97748C22.3976 8.35259 21.5504 8.00106 20.6667 8V8ZM11.3333 9.33333H20.6667C21.1971 9.33333 21.7058 9.54405 22.0809 9.91912C22.456 10.2942 22.6667 10.8029 22.6667 11.3333V20.6667C22.6655 20.9637 22.5971 21.2565 22.4667 21.5233L16.358 15.4147C16.0485 15.105 15.681 14.8594 15.2765 14.6919C14.872 14.5243 14.4385 14.438 14.0007 14.438C13.5629 14.438 13.1293 14.5243 12.7249 14.6919C12.3204 14.8594 11.9529 15.105 11.6433 15.4147L9.33333 17.724V11.3333C9.33333 10.8029 9.54405 10.2942 9.91912 9.91912C10.2942 9.54405 10.8029 9.33333 11.3333 9.33333ZM11.3333 22.6667C10.8029 22.6667 10.2942 22.456 9.91912 22.0809C9.54405 21.7058 9.33333 21.1971 9.33333 20.6667V19.6093L12.5853 16.3573C12.7711 16.1715 12.9916 16.024 13.2343 15.9235C13.4771 15.8229 13.7372 15.7711 14 15.7711C14.2628 15.7711 14.5229 15.8229 14.7657 15.9235C15.0084 16.024 15.2289 16.1715 15.4147 16.3573L21.5233 22.4667C21.2565 22.5971 20.9637 22.6655 20.6667 22.6667H11.3333Z" fill="#93A3B0"/>
<path d="M18.6654 14.9999C19.1269 14.9999 19.578 14.8631 19.9617 14.6067C20.3454 14.3503 20.6445 13.9859 20.8211 13.5595C20.9977 13.1332 21.0439 12.664 20.9539 12.2114C20.8638 11.7588 20.6416 11.343 20.3153 11.0167C19.989 10.6903 19.5732 10.4681 19.1206 10.3781C18.668 10.2881 18.1988 10.3343 17.7724 10.5109C17.3461 10.6875 16.9817 10.9865 16.7253 11.3703C16.4689 11.754 16.332 12.2051 16.332 12.6666C16.332 13.2854 16.5779 13.8789 17.0154 14.3165C17.453 14.7541 18.0465 14.9999 18.6654 14.9999ZM18.6654 11.6666C18.8631 11.6666 19.0565 11.7252 19.2209 11.8351C19.3854 11.945 19.5136 12.1012 19.5892 12.2839C19.6649 12.4666 19.6847 12.6677 19.6462 12.8617C19.6076 13.0557 19.5123 13.2338 19.3725 13.3737C19.2326 13.5135 19.0544 13.6088 18.8605 13.6474C18.6665 13.686 18.4654 13.6662 18.2827 13.5905C18.1 13.5148 17.9438 13.3866 17.8339 13.2222C17.724 13.0577 17.6654 12.8644 17.6654 12.6666C17.6654 12.4014 17.7707 12.147 17.9583 11.9595C18.1458 11.7719 18.4001 11.6666 18.6654 11.6666Z" fill="#93A3B0"/>
</g>
<defs>
<clipPath id="clip0_1426_31841">
<rect width="16" height="16" fill="white" transform="translate(8 8)"/>
</clipPath>
</defs>
</svg>
