<svg width="16" height="16" viewBox="0 0 16 16" fill="none" xmlns="http://www.w3.org/2000/svg">
<path d="M12.6667 1.99999H8.31467C8.212 1.99999 8.108 1.97599 8.01667 1.92999L5.91467 0.879328C5.638 0.740661 5.32867 0.667328 5.01867 0.667328H3.33333C1.49533 0.666661 0 2.16199 0 3.99999V12C0 13.838 1.49533 15.3333 3.33333 15.3333H5.33333C5.70133 15.3333 6 15.0353 6 14.6667C6 14.298 5.70133 14 5.33333 14H3.33333C2.23067 14 1.33333 13.1027 1.33333 12V5.99999H14.6667V12C14.6667 13.1027 13.7693 14 12.6667 14H10.6667C10.2987 14 10 14.298 10 14.6667C10 15.0353 10.2987 15.3333 10.6667 15.3333H12.6667C14.5047 15.3333 16 13.838 16 12V5.33333C16 3.49533 14.5047 1.99999 12.6667 1.99999ZM1.33333 3.99999C1.33333 2.89733 2.23067 1.99999 3.33333 1.99999H5.01867C5.12133 1.99999 5.224 2.02399 5.31667 2.07066L7.42067 3.12199C7.69733 3.25999 8.006 3.33266 8.31467 3.33266H12.6667C13.5347 3.33266 14.268 3.89199 14.544 4.66599H1.33333V3.99933V3.99999ZM9.52867 10.5973L8.66667 9.73533V14.6667C8.66667 15.0353 8.368 15.3333 8 15.3333C7.632 15.3333 7.33333 15.0353 7.33333 14.6667V9.73533L6.47133 10.5973C6.34133 10.7273 6.17067 10.7927 6 10.7927C5.82933 10.7927 5.65867 10.7273 5.52867 10.5973C5.268 10.3367 5.268 9.91533 5.52867 9.65466L6.604 8.57933C7.34933 7.83333 8.65 7.83333 9.396 8.57933L10.4713 9.65466C10.732 9.91533 10.732 10.3367 10.4713 10.5973C10.2107 10.858 9.78933 10.858 9.52867 10.5973Z" fill="#8E8E8E"/>
</svg>
