<svg width="32" height="32" viewBox="0 0 32 32" fill="none" xmlns="http://www.w3.org/2000/svg">
<rect width="32" height="32" rx="16" fill="#0E8478"/>
<g clip-path="url(#clip0_1426_31826)">
<path d="M16 15.9999C16.7911 15.9999 17.5645 15.7653 18.2223 15.3258C18.8801 14.8862 19.3928 14.2615 19.6955 13.5306C19.9983 12.7997 20.0775 11.9954 19.9231 11.2195C19.7688 10.4436 19.3878 9.73086 18.8284 9.17145C18.269 8.61204 17.5563 8.23108 16.7804 8.07674C16.0044 7.9224 15.2002 8.00161 14.4693 8.30436C13.7384 8.60711 13.1136 9.1198 12.6741 9.7776C12.2346 10.4354 12 11.2088 12 11.9999C12.0011 13.0604 12.4228 14.0772 13.1727 14.8271C13.9227 15.5771 14.9395 15.9988 16 15.9999ZM16 9.33321C16.5274 9.33321 17.043 9.48961 17.4815 9.78263C17.9201 10.0756 18.2618 10.4921 18.4637 10.9794C18.6655 11.4667 18.7183 12.0028 18.6154 12.5201C18.5125 13.0374 18.2586 13.5126 17.8856 13.8855C17.5127 14.2584 17.0375 14.5124 16.5202 14.6153C16.003 14.7182 15.4668 14.6654 14.9795 14.4636C14.4922 14.2617 14.0758 13.9199 13.7827 13.4814C13.4897 13.0429 13.3333 12.5273 13.3333 11.9999C13.3333 11.2926 13.6143 10.6144 14.1144 10.1143C14.6145 9.61416 15.2928 9.33321 16 9.33321Z" fill="white"/>
<path d="M16 17.3334C14.4092 17.3351 12.8841 17.9678 11.7593 19.0927C10.6345 20.2175 10.0018 21.7426 10 23.3334C10 23.5102 10.0702 23.6798 10.1953 23.8048C10.3203 23.9298 10.4899 24 10.6667 24C10.8435 24 11.013 23.9298 11.1381 23.8048C11.2631 23.6798 11.3333 23.5102 11.3333 23.3334C11.3333 22.0957 11.825 20.9087 12.7002 20.0335C13.5753 19.1584 14.7623 18.6667 16 18.6667C17.2377 18.6667 18.4247 19.1584 19.2998 20.0335C20.175 20.9087 20.6667 22.0957 20.6667 23.3334C20.6667 23.5102 20.7369 23.6798 20.8619 23.8048C20.987 23.9298 21.1565 24 21.3333 24C21.5101 24 21.6797 23.9298 21.8047 23.8048C21.9298 23.6798 22 23.5102 22 23.3334C21.9982 21.7426 21.3655 20.2175 20.2407 19.0927C19.1159 17.9678 17.5908 17.3351 16 17.3334Z" fill="white"/>
</g>
<defs>
<clipPath id="clip0_1426_31826">
<rect width="16" height="16" fill="white" transform="translate(8 8)"/>
</clipPath>
</defs>
</svg>
