<svg width="406" height="307" viewBox="0 0 406 307" fill="none" xmlns="http://www.w3.org/2000/svg">
<path d="M118.101 169.498C118.101 169.498 115.208 118.972 140.375 111.98C165.542 104.988 199.179 176.325 140.177 201.5L118.101 169.498Z" fill="#F4A28C"/>
<path opacity="0.1" d="M118.101 169.498C118.101 169.498 115.208 118.972 140.375 111.98C165.542 104.988 199.179 176.325 140.177 201.5L118.101 169.498Z" fill="black"/>
<path d="M288.702 23.6474L134.883 41.3633L156.119 225.747L309.938 208.031L288.702 23.6474Z" fill="#BABABA"/>
<path d="M283.273 19.0099L133.789 36.2266L155.025 220.61L304.509 203.394L283.273 19.0099Z" fill="#CCCCCC"/>
<path opacity="0.3" d="M203.5 284.5C287.171 284.5 355 228.759 355 160C355 91.2405 287.171 35.5 203.5 35.5C119.829 35.5 52 91.2405 52 160C52 228.759 119.829 284.5 203.5 284.5Z" fill="#E6E6E6"/>
<path d="M277.253 14.7013L127.769 31.918L149.005 216.302L298.489 199.085L277.253 14.7013Z" fill="#E6E6E6"/>
<path d="M196.128 39.5023L145.952 45.2812L152.642 103.365L202.818 97.5857L196.128 39.5023Z" fill="white"/>
<path d="M151 93.2587C151 93.2587 152.565 80.4482 164.424 75.5595C176.283 70.6708 193.171 69.7311 201.806 87.4541L203 97.6716L152.194 103.5L151 93.2587Z" fill="#00AB55"/>
<path d="M171.102 57.5L170 73.798L180 78.5L176.125 61.9192L171.102 57.5Z" fill="#F4A28C"/>
<path opacity="0.31" d="M177.111 64.813C175.949 64.6512 174.868 64.1947 174 63.5C174.561 65.5496 175.991 67.3365 178 68.5L177.111 64.813Z" fill="#CE8172"/>
<path d="M178.486 55.6091C179.365 58.334 179.874 61.164 180 64.0237C179.986 64.3661 179.904 64.7022 179.758 65.0126C179.613 65.3229 179.407 65.6012 179.152 65.8313C178.898 66.0614 178.6 66.2387 178.276 66.3527C177.952 66.4668 177.609 66.5154 177.266 66.4957C176.164 66.5303 175.075 66.2479 174.129 65.6822C173.183 65.1165 172.421 64.2914 171.932 63.3053L169.466 59.2624C169.046 58.4011 168.905 57.4309 169.063 56.4861C169.22 55.5413 169.668 54.6688 170.345 53.9896C172.713 51.2984 177.644 52.5039 178.486 55.6091Z" fill="#F4A28C"/>
<path d="M179.185 58.5L180.74 60.1943C180.836 60.2882 180.909 60.4116 180.953 60.5519C180.997 60.6923 181.011 60.8446 180.992 60.9933C180.973 61.1421 180.923 61.2821 180.846 61.399C180.769 61.516 180.669 61.6058 180.555 61.6592L179 62.5L179.185 58.5Z" fill="#F4A28C"/>
<path d="M170.435 64.5L168.043 58.0955C168.043 58.0955 164.288 57.8676 165.12 55.241C165.952 52.6144 167.616 54.0417 167.362 51.2232C167.107 48.4047 169.291 47.5052 171.059 48.9324C172.826 50.3597 171.844 48.2008 173.797 47.6611C175.749 47.1214 176.373 47.9849 176.581 49.5441C176.789 51.1033 179.481 49.1123 180.429 51.0073C181.376 52.9023 181.711 54.7733 176.789 55.6968C171.867 56.6203 175.934 60.3622 170.435 64.5Z" fill="#FFB050"/>
<path d="M174 60.9353C174 60.9353 173.463 59.1136 171.85 59.5748C170.238 60.036 171.023 62.6648 173.325 62.4918L174 60.9353Z" fill="#F4A28C"/>
<path opacity="0.08" d="M151 93.5425C151 93.5425 156.784 102.534 168.927 96.1017C181.069 89.6689 194.658 86.2722 202.522 93.7752L203 97.8L152.159 103.5L151 93.5425Z" fill="black"/>
<path d="M244.765 35.6528L207.698 39.9219L208.692 48.5442L245.758 44.2751L244.765 35.6528Z" fill="#BABABA"/>
<path opacity="0.5" d="M246.693 52.4106L209.627 56.6797L210.62 65.302L247.686 61.0329L246.693 52.4106Z" fill="#BABABA"/>
<path opacity="0.11" d="M204.066 108.35L171.089 112.148L172.082 120.771L205.059 116.973L204.066 108.35Z" fill="#BABABA"/>
<path opacity="0.11" d="M206.982 133.803L174.004 137.602L174.997 146.224L207.975 142.426L206.982 133.803Z" fill="#BABABA"/>
<path opacity="0.11" d="M267.576 101.026L234.598 104.824L235.591 113.447L268.569 109.648L267.576 101.026Z" fill="#BABABA"/>
<path opacity="0.11" d="M270.505 126.491L237.527 130.289L238.52 138.911L271.498 135.113L270.505 126.491Z" fill="#BABABA"/>
<path opacity="0.36" d="M268.154 66.9231L211.558 73.4414L214.188 96.2741L270.783 89.7558L268.154 66.9231Z" fill="white"/>
<path opacity="0.36" d="M277.699 149.809L159.74 163.395L163.526 196.267L281.485 182.681L277.699 149.809Z" fill="white"/>
<path d="M165.571 111.141L153.703 112.508L155.07 124.375L166.938 123.008L165.571 111.141Z" fill="#00AB55"/>
<path d="M228.236 103.922L216.368 105.289L217.735 117.156L229.603 115.79L228.236 103.922Z" fill="#FFB050"/>
<path d="M168.499 136.594L156.631 137.961L157.998 149.828L169.865 148.462L168.499 136.594Z" fill="#24285B"/>
<path d="M231.177 129.375L219.309 130.742L220.676 142.61L232.544 141.243L231.177 129.375Z" fill="white"/>
<path d="M280.186 170.826L244.655 174.918L246.021 186.785L281.553 182.693L280.186 170.826Z" fill="#00AB55"/>
<path opacity="0.1" d="M162.632 128.5C162.632 128.5 173.558 135.757 165.503 151.389C157.449 167.02 166.503 179.041 168.467 183.804C170.431 188.568 173 223.359 173 223.359L155.194 225.5L146 189.156L149.847 152.529L162.632 128.5Z" fill="black"/>
<path d="M249.399 17.6451L249.048 15.0019C248.824 12.9924 249.395 10.9749 250.636 9.39097C251.877 7.80708 253.688 6.78589 255.671 6.55097V6.55097C256.653 6.43535 257.647 6.51689 258.598 6.79093C259.549 7.06497 260.437 7.52613 261.212 8.14805C261.987 8.76998 262.633 9.54047 263.114 10.4155C263.595 11.2905 263.9 12.2529 264.014 13.2477L266.962 39.2287C267.047 39.9628 266.988 40.7066 266.789 41.4175C266.589 42.1284 266.253 42.7924 265.8 43.3716C265.347 43.9507 264.785 44.4336 264.147 44.7925C263.509 45.1514 262.808 45.3794 262.083 45.4632V45.4632C260.62 45.6334 259.15 45.2085 257.996 44.2818C256.842 43.3551 256.098 42.0024 255.928 40.5207L254.337 26.5345" stroke="#24285B" stroke-width="2.03" stroke-miterlimit="10"/>
<path d="M132.542 146.762C132.542 146.762 146.843 121.055 155.983 120.51C163.491 120.071 167.364 134.122 155.113 150.046C152.621 153.253 150.85 156.954 149.919 160.899C148.987 164.845 148.918 168.944 149.715 172.919C151.085 179.583 151.05 187.966 145.997 195.661C135.367 211.846 121.984 203.961 118.754 186.863C115.525 169.765 115.06 164.595 132.542 146.762Z" fill="#F4A28C"/>
<path d="M163.278 204.5L174 295.514L110 300.5L112.158 206.858L163.278 204.5Z" fill="#24285B"/>
<path d="M116 206.5V193.5H160V204.353L116 206.5Z" fill="#00AB55"/>
<path d="M116 206.5V193.5H160V204.353L116 206.5Z" fill="#00AB55"/>
<path opacity="0.1" d="M143 193.5L145.81 297.5L174 295.301L163.314 204.496H160.669V193.5H143Z" fill="black"/>
</svg>
