<svg width="406" height="306" viewBox="0 0 406 306" fill="none" xmlns="http://www.w3.org/2000/svg">
<path opacity="0.42" d="M91.9487 284.493C91.9487 284.493 59.154 286.787 45.6748 281.255C32.1956 275.724 41.8787 259.839 55.0027 256.378C68.1266 252.917 76.0842 271.928 81.9509 254.348C87.8176 236.768 103.144 228.009 112.939 239.965C122.734 251.922 132.752 255.728 143.115 245.04C153.478 234.352 163.029 243.081 167.241 258.743C171.454 274.404 220.163 244.35 238.829 250.217C257.495 256.083 271.654 273.369 283.053 254.713C294.451 236.057 307.931 231.216 315.533 242.269C323.135 253.323 325.551 266.457 339.03 256.479C352.509 246.502 370.82 255.464 365.633 267.188C360.447 278.911 325.713 282.9 325.713 282.9C325.713 282.9 124.053 272.872 91.9487 284.493Z" fill="#E6E6E6"/>
<path d="M190.271 225.065C190.271 225.065 197.538 249.354 183.369 256.53C169.2 263.706 160.653 252.531 145.875 262.376C131.097 272.222 138.882 238.016 116.339 239.569C93.7954 241.122 102.25 258.996 102.25 258.996C102.25 258.996 82.8232 240.026 72.7544 256.53C62.6856 273.034 67.5475 288.543 112.938 283.874C158.329 279.205 191.631 285.559 230.952 284.717C270.273 283.874 342.602 291.649 346.459 269.887C350.316 248.126 330.138 238.473 309.138 250.673C288.137 262.874 291.659 234.758 267.36 247.628C243.061 260.499 214.316 275.318 206.968 218.396L190.271 225.065Z" fill="#E6E6E6"/>
<path d="M140.813 31.8191C88.7836 43.2886 54.1214 93.5006 63.7233 145.895C68.3009 170.905 83.0083 195.721 119.964 207.302C208.655 235.113 308.622 221.238 326.253 166.499C343.884 111.76 332.465 76.5197 289.449 49.0538C261.658 31.3116 195.166 19.8421 140.813 31.8191Z" fill="#24285B"/>
<path d="M175.252 136.313L133.637 182.75H178.967L175.252 136.313Z" fill="#00AB55"/>
<path d="M226.07 136.313L267.685 182.75H222.355L226.07 136.313Z" fill="#00AB55"/>
<path d="M199.762 62.0052V61.7312L199.62 61.8733L199.478 61.7312V62.0154C195.864 65.6491 159.588 105.457 180.487 218.396H220.661C241.57 105.295 203.477 65.5679 199.762 62.0052Z" fill="#00AB55"/>
<path opacity="0.11" d="M224.073 119.353L225.23 127.351C214.374 131.855 202.612 133.743 190.892 132.862C187.766 132.58 184.619 133.093 181.745 134.352C178.87 135.612 176.36 137.579 174.449 140.069C174.449 140.069 175.596 123.565 176.418 119.82L224.073 119.353Z" fill="#3B1E59"/>
<path opacity="0.7" d="M199.762 62.0052V61.7312L199.62 61.8733L199.478 61.7312V62.0154C195.864 65.6491 159.588 105.457 180.487 218.396H220.661C241.57 105.295 203.477 65.5679 199.762 62.0052Z" fill="white"/>
<path opacity="0.08" d="M185.653 156.421L174.488 168.997C174.756 180.198 175.886 191.362 177.868 202.39L206.095 181.42L185.653 156.421Z" fill="black"/>
<path d="M178.965 209.698L180.487 218.397H221.026L222.62 209.698H178.965Z" fill="#FFD200"/>
<path d="M178.397 109.487L178.316 109.731C177.177 112.718 176.576 115.882 176.54 119.079L176.418 119.82C176.418 119.82 198.961 132.629 224.072 119.353C224.196 118.91 224.254 118.452 224.245 117.993C224.152 115.064 223.512 112.179 222.357 109.487H178.397Z" fill="#FFD200"/>
<path d="M178.965 209.698L180.487 218.397H221.026L222.62 209.698H178.965Z" fill="#00AB55"/>
<path d="M178.397 109.487L178.316 109.731C177.177 112.718 176.576 115.882 176.54 119.079L176.418 119.82C176.418 119.82 198.961 132.629 224.072 119.353C224.196 118.91 224.254 118.452 224.245 117.993C224.152 115.064 223.512 112.179 222.357 109.487H178.397Z" fill="#00AB55"/>
<path opacity="0.08" d="M178.965 209.698L180.487 218.397H221.026L222.62 209.698H178.965Z" fill="black"/>
<path opacity="0.08" d="M178.397 109.487L178.316 109.731C177.177 112.718 176.576 115.882 176.54 119.079L176.418 119.82C176.418 119.82 198.961 132.629 224.072 119.353C224.196 118.91 224.254 118.452 224.245 117.993C224.152 115.064 223.512 112.179 222.357 109.487H178.397Z" fill="black"/>
<path d="M178.395 109.487C178.395 109.487 199.71 119.403 222.354 109.487C222.354 109.487 219.177 78.4076 204.084 60.5334C203.628 59.996 203.059 59.5662 202.418 59.2749C201.776 58.9836 201.078 58.838 200.373 58.8487C199.669 58.8594 198.975 59.026 198.343 59.3366C197.71 59.6472 197.155 60.0941 196.715 60.6451C191.721 66.9076 182.972 81.3714 178.395 109.487Z" fill="#00AB55"/>
<path d="M200.88 182.75C210.55 182.75 218.389 174.911 218.389 165.241C218.389 155.571 210.55 147.732 200.88 147.732C191.21 147.732 183.371 155.571 183.371 165.241C183.371 174.911 191.21 182.75 200.88 182.75Z" fill="#00AB55"/>
<path d="M200.879 175.929C206.782 175.929 211.567 171.144 211.567 165.241C211.567 159.338 206.782 154.553 200.879 154.553C194.977 154.553 190.191 159.338 190.191 165.241C190.191 171.144 194.977 175.929 200.879 175.929Z" fill="#24285B"/>
<path opacity="0.16" d="M203.387 165.241C205.466 165.241 207.152 163.555 207.152 161.475C207.152 159.395 205.466 157.709 203.387 157.709C201.307 157.709 199.621 159.395 199.621 161.475C199.621 163.555 201.307 165.241 203.387 165.241Z" fill="white"/>
<path d="M180.488 218.396L156.301 247.628L206.97 230.211V218.396H180.488Z" fill="#00AB55"/>
<path d="M220.834 218.396L245.022 247.628L194.363 230.211V218.396H220.834Z" fill="#00AB55"/>
<path d="M96.4464 147.174C98.2571 147.174 99.7249 145.706 99.7249 143.895C99.7249 142.085 98.2571 140.617 96.4464 140.617C94.6358 140.617 93.168 142.085 93.168 143.895C93.168 145.706 94.6358 147.174 96.4464 147.174Z" fill="white"/>
<path d="M170.755 49.7442C172.566 49.7442 174.033 48.2763 174.033 46.4657C174.033 44.6551 172.566 43.1873 170.755 43.1873C168.944 43.1873 167.477 44.6551 167.477 46.4657C167.477 48.2763 168.944 49.7442 170.755 49.7442Z" fill="white"/>
<path d="M255.911 117.505C257.722 117.505 259.19 116.038 259.19 114.227C259.19 112.416 257.722 110.948 255.911 110.948C254.101 110.948 252.633 112.416 252.633 114.227C252.633 116.038 254.101 117.505 255.911 117.505Z" fill="white"/>
<path d="M244.87 53.9258C245.739 53.9258 246.443 53.2214 246.443 52.3525C246.443 51.4837 245.739 50.7793 244.87 50.7793C244.001 50.7793 243.297 51.4837 243.297 52.3525C243.297 53.2214 244.001 53.9258 244.87 53.9258Z" fill="white"/>
<path d="M315.026 132.852C315.895 132.852 316.6 132.148 316.6 131.279C316.6 130.41 315.895 129.706 315.026 129.706C314.157 129.706 313.453 130.41 313.453 131.279C313.453 132.148 314.157 132.852 315.026 132.852Z" fill="white"/>
<path d="M279.948 196.797C280.817 196.797 281.521 196.093 281.521 195.224C281.521 194.355 280.817 193.651 279.948 193.651C279.079 193.651 278.375 194.355 278.375 195.224C278.375 196.093 279.079 196.797 279.948 196.797Z" fill="white"/>
<path d="M153.405 201.07C154.274 201.07 154.979 200.366 154.979 199.497C154.979 198.628 154.274 197.924 153.405 197.924C152.536 197.924 151.832 198.628 151.832 199.497C151.832 200.366 152.536 201.07 153.405 201.07Z" fill="white"/>
<path opacity="0.08" d="M132.185 123.22C150.117 123.22 164.655 108.683 164.655 90.7501C164.655 72.8175 150.117 58.2803 132.185 58.2803C114.252 58.2803 99.7148 72.8175 99.7148 90.7501C99.7148 108.683 114.252 123.22 132.185 123.22Z" fill="white"/>
<path d="M132.182 116.491C146.398 116.491 157.922 104.966 157.922 90.7502C157.922 76.5341 146.398 65.0098 132.182 65.0098C117.966 65.0098 106.441 76.5341 106.441 90.7502C106.441 104.966 117.966 116.491 132.182 116.491Z" fill="#FFB050"/>
<path opacity="0.08" d="M123.251 84.8428C126.234 84.8428 128.651 82.4252 128.651 79.443C128.651 76.4608 126.234 74.0432 123.251 74.0432C120.269 74.0432 117.852 76.4608 117.852 79.443C117.852 82.4252 120.269 84.8428 123.251 84.8428Z" fill="black"/>
<path opacity="0.08" d="M139.47 82.6909C141.46 82.6909 143.074 81.0776 143.074 79.0876C143.074 77.0976 141.46 75.4844 139.47 75.4844C137.48 75.4844 135.867 77.0976 135.867 79.0876C135.867 81.0776 137.48 82.6909 139.47 82.6909Z" fill="black"/>
</svg>
