<svg width="124" height="91" viewBox="0 0 124 91" fill="none" xmlns="http://www.w3.org/2000/svg">
<path d="M98.8706 53.138C129.931 80.9569 132.559 128.688 104.74 159.749C76.9211 190.809 29.1899 193.437 -1.87061 165.618C-32.9311 137.799 -35.559 90.068 -7.74006 59.0074C5.60247 44.1102 23.5255 35.7534 41.993 34.1594C46.2912 33.7885 49.8346 30.3474 49.8264 26.0332L49.8232 24.3418C49.8192 22.2738 48.4959 20.4885 46.936 19.1309C42.4553 15.2312 41.9843 8.43755 45.8839 3.95682C49.7836 -0.523899 56.5772 -0.994944 61.0579 2.90472C65.5387 6.80438 66.0097 13.598 62.11 18.0787C61.7779 18.4603 61.4248 18.8129 61.054 19.1361C58.4051 21.4445 55.5739 24.264 55.5806 27.7776C55.5875 31.4237 58.3736 34.4312 61.9619 35.0778C75.255 37.4733 88.0706 43.4651 98.8706 53.138Z" fill="#D39E00"/>
</svg>
