<svg width="78" height="78" viewBox="0 0 78 78" fill="none" xmlns="http://www.w3.org/2000/svg">
<path fill-rule="evenodd" clip-rule="evenodd" d="M39 68.64C57.9544 68.64 73.32 53.2744 73.32 34.32C73.32 15.3656 57.9544 0 39 0C20.0456 0 4.67999 15.3656 4.67999 34.32C4.67999 43.2429 8.08518 51.3705 13.667 57.4741C14.3862 58.2607 14.82 59.2749 14.82 60.3408V73.1872C14.82 76.1365 17.903 78.0717 20.559 76.7894L37.4153 68.6519C37.4251 68.6472 37.4249 68.6332 37.415 68.6288V68.6288C37.4021 68.623 37.4067 68.6037 37.4208 68.6043C37.9442 68.628 38.4707 68.64 39 68.64Z" fill="#D39E00"/>
<g clip-path="url(#clip0_1574_16285)">
<path d="M45.25 48H32.7562C32.0334 47.9996 31.3191 47.843 30.6624 47.541C30.0057 47.2389 29.422 46.7986 28.9512 46.25C28.4871 45.7134 28.1444 45.0829 27.9466 44.4016C27.7487 43.7202 27.7004 43.0042 27.805 42.3025C28.4761 38.6469 30.4262 35.3493 33.3062 33C30.4261 30.6498 28.4765 27.3514 27.8062 23.695C27.7019 22.9938 27.7502 22.2783 27.9478 21.5974C28.1454 20.9166 28.4877 20.2864 28.9512 19.75C29.422 19.2014 30.0057 18.7611 30.6624 18.459C31.3191 18.157 32.0334 18.0004 32.7562 18H45.25C45.9728 18.0006 46.687 18.1573 47.3436 18.4594C48.0003 18.7614 48.5841 19.2016 49.055 19.75C49.5186 20.2862 49.8611 20.9161 50.0591 21.5966C50.2571 22.2772 50.306 22.9925 50.2025 23.6937C49.5254 27.3512 47.5713 30.6493 44.6887 33C47.5697 35.3527 49.5215 38.6521 50.1962 42.31C50.2999 43.0114 50.251 43.7269 50.053 44.4077C49.855 45.0885 49.5124 45.7186 49.0487 46.255C48.578 46.8017 47.9951 47.2405 47.3396 47.5416C46.6841 47.8427 45.9714 47.9991 45.25 48V48ZM45.25 20.5H32.7562C32.3936 20.4998 32.0353 20.5778 31.7056 20.7289C31.376 20.8799 31.0829 21.1003 30.8462 21.375C30.6152 21.638 30.4444 21.9484 30.346 22.2844C30.2475 22.6204 30.2237 22.9738 30.2762 23.32C30.7462 26.445 32.6812 29.37 36.0262 32.0163C36.174 32.1333 36.2934 32.2822 36.3755 32.4519C36.4576 32.6216 36.5003 32.8077 36.5003 32.9962C36.5003 33.1848 36.4576 33.3709 36.3755 33.5406C36.2934 33.7103 36.174 33.8592 36.0262 33.9763C32.6812 36.625 30.75 39.5525 30.2762 42.6762C30.2231 43.023 30.2466 43.3772 30.3451 43.7138C30.4436 44.0505 30.6146 44.3615 30.8462 44.625C31.0829 44.8997 31.376 45.1201 31.7056 45.2711C32.0353 45.4222 32.3936 45.5002 32.7562 45.5H45.25C45.6126 45.5003 45.971 45.4223 46.3006 45.2713C46.6303 45.1202 46.9234 44.8998 47.16 44.625C47.391 44.3624 47.5617 44.0525 47.6602 43.7169C47.7587 43.3813 47.7825 43.0283 47.73 42.6825C47.2637 39.5738 45.33 36.6463 41.98 33.98C41.8331 33.8629 41.7145 33.7142 41.6329 33.545C41.5514 33.3758 41.5091 33.1903 41.5091 33.0025C41.5091 32.8147 41.5514 32.6292 41.6329 32.46C41.7145 32.2908 41.8331 32.1421 41.98 32.025C45.3312 29.3588 47.265 26.4312 47.73 23.3212C47.7823 22.9744 47.7578 22.6204 47.6582 22.2841C47.5587 21.9478 47.3864 21.6374 47.1537 21.375C46.9178 21.101 46.6257 20.881 46.2972 20.73C45.9687 20.5791 45.6115 20.5006 45.25 20.5V20.5ZM43.6012 43H34.3975C34.193 42.9999 33.9916 42.9496 33.811 42.8536C33.6304 42.7575 33.4762 42.6187 33.3618 42.4491C33.2474 42.2796 33.1764 42.0845 33.1549 41.8811C33.1335 41.6777 33.1622 41.4722 33.2387 41.2825C34.2176 39.1689 35.709 37.3333 37.5775 35.9425L38.225 35.4275C38.4462 35.2516 38.7205 35.1558 39.0031 35.1558C39.2857 35.1558 39.56 35.2516 39.7812 35.4275L40.4175 35.935C42.2833 37.3313 43.7747 39.1675 44.7587 41.28C44.8357 41.4697 44.8649 41.6754 44.8438 41.8791C44.8226 42.0827 44.7518 42.278 44.6375 42.4479C44.5232 42.6177 44.3689 42.7569 44.1882 42.8532C44.0075 42.9495 43.806 42.9999 43.6012 43V43ZM36.5425 40.5H41.4525C40.7393 39.5704 39.9157 38.7309 39 38C38.0802 38.7281 37.2547 39.5679 36.5425 40.5V40.5Z" fill="white"/>
</g>
<defs>
<clipPath id="clip0_1574_16285">
<rect width="30" height="30" fill="white" transform="translate(24 18)"/>
</clipPath>
</defs>
</svg>
