<svg width="24" height="24" viewBox="0 0 24 24" fill="none" xmlns="http://www.w3.org/2000/svg">
<path d="M4.5 13.875V1.875C4.5 1.67609 4.57902 1.48532 4.71967 1.34467C4.86032 1.20402 5.05109 1.125 5.25 1.125H15L19.5 5.625V13.875" fill="#D6D6D4"/>
<path d="M19.5 21.375V22.125C19.5 22.3239 19.421 22.5147 19.2803 22.6553C19.1397 22.796 18.9489 22.875 18.75 22.875H5.25C5.05109 22.875 4.86032 22.796 4.71967 22.6553C4.57902 22.5147 4.5 22.3239 4.5 22.125V21.375" fill="#D6D6D4"/>
<path d="M15 1.125V5.625H19.5" fill="#44546C"/>
<path d="M19.875 13.875H4.125C3.71079 13.875 3.375 14.2108 3.375 14.625V20.625C3.375 21.0392 3.71079 21.375 4.125 21.375H19.875C20.2892 21.375 20.625 21.0392 20.625 20.625V14.625C20.625 14.2108 20.2892 13.875 19.875 13.875Z" fill="#348FD9"/>
<path d="M17.25 9.75H6.75C6.65054 9.75 6.55516 9.71049 6.48483 9.64017C6.41451 9.56984 6.375 9.47446 6.375 9.375C6.375 9.27554 6.41451 9.18016 6.48483 9.10983C6.55516 9.03951 6.65054 9 6.75 9H17.25C17.3495 9 17.4448 9.03951 17.5152 9.10983C17.5855 9.18016 17.625 9.27554 17.625 9.375C17.625 9.47446 17.5855 9.56984 17.5152 9.64017C17.4448 9.71049 17.3495 9.75 17.25 9.75Z" fill="#44546C"/>
<path d="M17.25 12H6.75C6.65054 12 6.55516 11.9605 6.48483 11.8902C6.41451 11.8198 6.375 11.7245 6.375 11.625C6.375 11.5255 6.41451 11.4302 6.48483 11.3598C6.55516 11.2895 6.65054 11.25 6.75 11.25H17.25C17.3495 11.25 17.4448 11.2895 17.5152 11.3598C17.5855 11.4302 17.625 11.5255 17.625 11.625C17.625 11.7245 17.5855 11.8198 17.5152 11.8902C17.4448 11.9605 17.3495 12 17.25 12Z" fill="#44546C"/>
<path d="M8.5649 15.6034C8.76247 15.6005 8.95944 15.6258 9.1499 15.6784C9.32497 15.7218 9.48702 15.8067 9.6224 15.9259C9.75945 16.0477 9.86714 16.199 9.9374 16.3684C10.0177 16.5789 10.056 16.8031 10.0499 17.0284V18.5884C10.0563 18.8149 10.018 19.0404 9.9374 19.2521C9.8661 19.4199 9.75852 19.5697 9.6224 19.6909C9.48702 19.8101 9.32497 19.895 9.1499 19.9384C8.95904 19.9889 8.76235 20.0142 8.5649 20.0134H7.4999C7.39355 20.0197 7.28809 19.9907 7.1999 19.9309C7.16657 19.9092 7.13894 19.8799 7.11936 19.8453C7.09978 19.8107 7.08881 19.7719 7.0874 19.7321V15.8846C7.08881 15.8449 7.09978 15.8061 7.11936 15.7715C7.13894 15.7369 7.16657 15.7075 7.1999 15.6859C7.28809 15.6261 7.39355 15.5971 7.4999 15.6034H8.5649ZM8.02865 16.4246V19.1921H8.5649C8.63819 19.1961 8.71153 19.1852 8.78049 19.1601C8.84945 19.1349 8.9126 19.0961 8.96615 19.0459C9.07099 18.9175 9.12206 18.7536 9.10865 18.5884V17.0284C9.12206 16.8632 9.07099 16.6992 8.96615 16.5709C8.9126 16.5207 8.84945 16.4819 8.78049 16.4567C8.71153 16.4316 8.63819 16.4207 8.5649 16.4246H8.02865Z" fill="#D6D6D4"/>
<path d="M12.0786 20.0513C11.8824 20.0525 11.6868 20.0273 11.4974 19.9763C11.322 19.9303 11.1597 19.844 11.0236 19.7242C10.8876 19.6044 10.7814 19.4544 10.7136 19.2863C10.6326 19.0759 10.5943 18.8516 10.6011 18.6263V17.0288C10.595 16.8035 10.6333 16.5793 10.7136 16.3688C10.7839 16.1994 10.8916 16.0481 11.0286 15.9263C11.1635 15.8084 11.324 15.7237 11.4974 15.6788C11.6865 15.6259 11.8823 15.6007 12.0786 15.6038C12.2762 15.6009 12.4731 15.6262 12.6636 15.6788C12.8378 15.7244 12.9994 15.809 13.1361 15.9263C13.2731 16.0473 13.3797 16.1989 13.4474 16.3688C13.5308 16.5785 13.5704 16.8031 13.5636 17.0288V18.6263C13.5712 18.852 13.5316 19.0767 13.4474 19.2863C13.3755 19.4567 13.2651 19.6082 13.1249 19.7288C12.9863 19.8432 12.8253 19.9275 12.6524 19.9763C12.4651 20.0259 12.2723 20.0511 12.0786 20.0513ZM12.6224 17.0288C12.6296 16.946 12.6204 16.8627 12.5953 16.7835C12.5702 16.7044 12.5297 16.631 12.4761 16.5675C12.4231 16.5179 12.3604 16.4797 12.2921 16.4552C12.2237 16.4307 12.1511 16.4204 12.0786 16.425C12.0067 16.42 11.9345 16.4301 11.8667 16.4547C11.7989 16.4792 11.7369 16.5176 11.6849 16.5675C11.6319 16.6313 11.5921 16.7048 11.5677 16.784C11.5432 16.8631 11.5346 16.9463 11.5424 17.0288V18.6263C11.5343 18.7082 11.5427 18.7909 11.5672 18.8695C11.5917 18.9481 11.6317 19.0209 11.6849 19.0838C11.7368 19.1341 11.7986 19.1731 11.8663 19.1983C11.9341 19.2235 12.0064 19.2343 12.0786 19.23C12.1513 19.2339 12.2241 19.2229 12.2924 19.1978C12.3607 19.1727 12.4232 19.1339 12.4761 19.0838C12.5299 19.0212 12.5706 18.9485 12.5957 18.8699C12.6209 18.7913 12.6299 18.7084 12.6224 18.6263V17.0288Z" fill="#D6D6D4"/>
<path d="M16.125 16.9649C16.1279 16.9149 16.1279 16.8648 16.125 16.8149C16.1165 16.7517 16.0934 16.6913 16.0575 16.6386C16.0171 16.576 15.9617 16.5244 15.8962 16.4886C15.8055 16.4397 15.7028 16.4176 15.6 16.4249C15.5266 16.4203 15.4531 16.4309 15.3841 16.456C15.315 16.4812 15.2519 16.5204 15.1987 16.5711C15.0939 16.6995 15.0428 16.8635 15.0562 17.0286V18.6261C15.0436 18.7912 15.0946 18.9549 15.1987 19.0836C15.2525 19.1347 15.3162 19.174 15.3859 19.1992C15.4556 19.2244 15.5298 19.2348 15.6037 19.2299C15.7024 19.236 15.8009 19.2153 15.8887 19.1699C15.9517 19.1343 16.005 19.084 16.0442 19.0233C16.0834 18.9625 16.1073 18.8931 16.1137 18.8211C16.1245 18.7566 16.132 18.6915 16.1362 18.6261C16.1354 18.5783 16.1489 18.5314 16.175 18.4913C16.201 18.4512 16.2385 18.4198 16.2825 18.4011C16.3834 18.359 16.4919 18.3386 16.6012 18.3411C16.7329 18.3273 16.8652 18.3591 16.9762 18.4311C17.0247 18.4795 17.0606 18.5389 17.0809 18.6042C17.1011 18.6696 17.1051 18.7389 17.0925 18.8061C17.0965 18.9928 17.0567 19.1777 16.9762 19.3461C16.9037 19.5014 16.7943 19.6366 16.6575 19.7399C16.5146 19.8511 16.3516 19.9339 16.1775 19.9836C15.9829 20.0422 15.7807 20.0712 15.5775 20.0699C15.3887 20.0702 15.2007 20.045 15.0187 19.9949C14.8499 19.9443 14.693 19.8601 14.5575 19.7474C14.4217 19.6186 14.3166 19.461 14.25 19.2861C14.169 19.0758 14.1307 18.8514 14.1375 18.6261V17.0286C14.1314 16.8034 14.1696 16.5792 14.25 16.3686C14.3202 16.1993 14.4279 16.048 14.565 15.9261C14.6909 15.8139 14.8392 15.7295 15 15.6786C15.1816 15.6268 15.3698 15.6015 15.5587 15.6036C15.7614 15.6018 15.9634 15.6283 16.1587 15.6824C16.3322 15.7283 16.4952 15.8072 16.6387 15.9149C16.7731 16.013 16.8823 16.1415 16.9575 16.2899C17.038 16.4489 17.078 16.6254 17.0737 16.8036C17.0851 16.8709 17.0805 16.9399 17.0603 17.005C17.0401 17.0701 17.0049 17.1296 16.9575 17.1786C16.8518 17.2433 16.7286 17.2735 16.605 17.2649C16.4931 17.2695 16.3816 17.249 16.2787 17.2049C16.2315 17.1856 16.1914 17.1522 16.1638 17.1092C16.1363 17.0663 16.1227 17.0159 16.125 16.9649Z" fill="#D6D6D4"/>
</svg>
