<svg width="17" height="16" viewBox="0 0 17 16" fill="none" xmlns="http://www.w3.org/2000/svg">
<g clip-path="url(#clip0_4177_14805)">
<path d="M7.0854 12.0813C7.27114 12.2672 7.49167 12.4146 7.73441 12.5152C7.97714 12.6158 8.23732 12.6676 8.50007 12.6676C8.76282 12.6676 9.023 12.6158 9.26573 12.5152C9.50847 12.4146 9.729 12.2672 9.91474 12.0813L12.0554 9.94067C12.1702 9.81373 12.2317 9.64752 12.2273 9.47644C12.223 9.30536 12.1529 9.14253 12.0318 9.02165C11.9107 8.90077 11.7477 8.8311 11.5766 8.82707C11.4055 8.82304 11.2394 8.88496 11.1127 9L9.16207 10.9513L9.16674 0.666667C9.16674 0.489856 9.0965 0.320286 8.97147 0.195262C8.84645 0.0702379 8.67688 0 8.50007 0V0C8.32326 0 8.15369 0.0702379 8.02867 0.195262C7.90364 0.320286 7.8334 0.489856 7.8334 0.666667L7.8274 10.9387L5.8874 9C5.76231 8.875 5.59268 8.8048 5.41583 8.80487C5.23899 8.80493 5.06941 8.87524 4.9444 9.00033C4.8194 9.12543 4.74921 9.29506 4.74927 9.4719C4.74933 9.64875 4.81964 9.81833 4.94474 9.94333L7.0854 12.0813Z" fill="#1E1E1E"/>
<path d="M15.8333 10.667C15.6565 10.667 15.487 10.7372 15.3619 10.8623C15.2369 10.9873 15.1667 11.1568 15.1667 11.3337V14.0003C15.1667 14.1771 15.0964 14.3467 14.9714 14.4717C14.8464 14.5968 14.6768 14.667 14.5 14.667H2.5C2.32319 14.667 2.15362 14.5968 2.0286 14.4717C1.90357 14.3467 1.83333 14.1771 1.83333 14.0003V11.3337C1.83333 11.1568 1.7631 10.9873 1.63807 10.8623C1.51305 10.7372 1.34348 10.667 1.16667 10.667C0.989856 10.667 0.820286 10.7372 0.695262 10.8623C0.570238 10.9873 0.5 11.1568 0.5 11.3337L0.5 14.0003C0.5 14.5308 0.710714 15.0395 1.08579 15.4145C1.46086 15.7896 1.96957 16.0003 2.5 16.0003H14.5C15.0304 16.0003 15.5391 15.7896 15.9142 15.4145C16.2893 15.0395 16.5 14.5308 16.5 14.0003V11.3337C16.5 11.1568 16.4298 10.9873 16.3047 10.8623C16.1797 10.7372 16.0101 10.667 15.8333 10.667Z" fill="#1E1E1E"/>
</g>
<defs>
<clipPath id="clip0_4177_14805">
<rect width="16" height="16" fill="white" transform="translate(0.5)"/>
</clipPath>
</defs>
</svg>
