<svg width="48" height="44" viewBox="0 0 48 44" fill="none" xmlns="http://www.w3.org/2000/svg">
<path d="M46.4272 13.9075H39.3631C39.3767 13.7875 39.3845 13.666 39.3845 13.5425C39.3845 11.9095 38.1586 10.5582 36.5788 10.3585V7.07852C36.5788 6.13614 35.8121 5.36946 34.8698 5.36946H32.0759C32.1311 5.14511 32.1609 4.91092 32.1609 4.6698C32.1609 3.05439 30.8467 1.74011 29.2312 1.74011C27.6158 1.74011 26.3016 3.05439 26.3016 4.6698C26.3016 4.91092 26.3315 5.14511 26.3866 5.36946H12.6744C11.7321 5.36946 10.9654 6.13614 10.9654 7.07852V13.9074H8.91019C8.52187 13.9074 8.20706 14.2222 8.20706 14.6105C8.20706 14.9988 8.52187 15.3136 8.91019 15.3136H10.9654V18.8706H1.40625V15.4804C1.40625 15.3885 1.48097 15.3137 1.57284 15.3137H5.43891C5.82722 15.3137 6.14203 14.9989 6.14203 14.6106C6.14203 14.2223 5.82722 13.9075 5.43891 13.9075H1.57284C0.705563 13.9075 0 14.613 0 15.4804V42.2945C0 43.1618 0.705563 43.8673 1.57284 43.8673H20.7637C21.6309 43.8673 22.3365 43.1618 22.3365 42.2945V39.7997H25.6633V42.2945C25.6633 43.1618 26.3689 43.8673 27.2362 43.8673H32.9597C33.348 43.8673 33.6628 43.5525 33.6628 43.1642C33.6628 42.7759 33.348 42.4611 32.9597 42.4611H27.2362C27.1443 42.4611 27.0696 42.3864 27.0696 42.2945V39.7997H34.8697C35.812 39.7997 36.5787 39.033 36.5787 38.0907V20.2769H46.5938V42.2944C46.5938 42.3863 46.519 42.461 46.4272 42.461H36.4311C36.0427 42.461 35.7279 42.7758 35.7279 43.1641C35.7279 43.5524 36.0427 43.8672 36.4311 43.8672H46.4272C47.2944 43.8672 48 43.1617 48 42.2944V15.4804C48 14.613 47.2944 13.9075 46.4272 13.9075ZM37.9782 13.5425C37.9782 14.5374 37.1689 15.3468 36.174 15.3468C35.1791 15.3468 34.3697 14.5375 34.3697 13.5425C34.3697 12.5476 35.179 11.7383 36.174 11.7383C37.1688 11.7383 37.9782 12.5476 37.9782 13.5425ZM29.2312 3.14646C30.0712 3.14646 30.7547 3.82989 30.7547 4.66989C30.7547 5.50989 30.0712 6.19333 29.2312 6.19333C28.3912 6.19333 27.7078 5.50989 27.7078 4.66989C27.7078 3.82989 28.3912 3.14646 29.2312 3.14646ZM12.6744 6.77571H27.1976C27.725 7.28514 28.4419 7.59949 29.2312 7.59949C30.0206 7.59949 30.7375 7.28514 31.2649 6.77571H34.8698C35.0367 6.77571 35.1726 6.91155 35.1726 7.07852V10.4927C34.7678 10.6259 34.3986 10.8376 34.0824 11.1098H12.3716V7.07852C12.3716 6.91155 12.5075 6.77571 12.6744 6.77571V6.77571ZM34.8698 38.3934H12.6744C12.5075 38.3934 12.3716 38.2575 12.3716 38.0906V30.2141C12.3716 29.8258 12.0568 29.511 11.6685 29.511C11.2802 29.511 10.9654 29.8258 10.9654 30.2141V38.0906C10.9654 39.033 11.7321 39.7996 12.6744 39.7996H20.9303V42.2944C20.9303 42.3863 20.8556 42.461 20.7637 42.461H1.57284C1.48097 42.461 1.40625 42.3863 1.40625 42.2944V20.2769H10.9654V26.743C10.9654 27.1313 11.2802 27.4461 11.6685 27.4461C12.0568 27.4461 12.3716 27.1313 12.3716 26.743V12.516H33.1327C33.0235 12.8385 32.9634 13.1835 32.9634 13.5425C32.9634 14.9632 33.8913 16.1705 35.1726 16.5923V38.0906C35.1726 38.2576 35.0367 38.3934 34.8698 38.3934V38.3934ZM36.5788 18.8707V16.7266C37.5257 16.6069 38.3452 16.0738 38.8499 15.3137H46.4272C46.519 15.3137 46.5938 15.3884 46.5938 15.4804V18.8708H36.5788V18.8707Z" fill="#1E1E1E"/>
<path d="M15.1725 9.63591C15.1737 9.636 15.1748 9.63628 15.1761 9.63647C15.1914 9.63807 15.2072 9.63844 15.2228 9.6391C15.2312 9.63947 15.2394 9.64041 15.2479 9.6405H15.2516C15.6383 9.6405 15.9527 9.32803 15.9547 8.94103C15.9564 8.59969 15.7146 8.31413 15.3923 8.2486C15.3915 8.24841 15.3906 8.24831 15.3896 8.24813C15.368 8.24381 15.3459 8.24035 15.3236 8.238C15.3157 8.23716 15.3074 8.23725 15.2993 8.23669C15.2846 8.23566 15.27 8.23435 15.2551 8.23425H15.2462C15.245 8.23425 15.2437 8.23425 15.2424 8.23425C15.2182 8.23425 15.1943 8.23547 15.1708 8.23791C14.8163 8.27344 14.543 8.57307 14.543 8.93747C14.5429 9.29935 14.8203 9.59719 15.1725 9.63591V9.63591Z" fill="#1E1E1E"/>
<path d="M17.3775 9.6405C17.7658 9.6405 18.0806 9.32569 18.0806 8.93738C18.0806 8.54907 17.7658 8.23425 17.3775 8.23425H17.3687C16.9804 8.23425 16.6699 8.54907 16.6699 8.93738C16.6699 9.32569 16.9891 9.6405 17.3775 9.6405Z" fill="#1E1E1E"/>
<path d="M19.5044 9.6405C19.8927 9.6405 20.2075 9.32569 20.2075 8.93738C20.2075 8.54907 19.8927 8.23425 19.5044 8.23425H19.4957C19.1074 8.23425 18.7969 8.54907 18.7969 8.93738C18.7969 9.32569 19.1161 9.6405 19.5044 9.6405Z" fill="#1E1E1E"/>
<path d="M5.16517 11.1778C5.30242 11.315 5.48242 11.3837 5.66233 11.3837C5.84224 11.3837 6.02224 11.3151 6.15949 11.1778L6.53402 10.8032L6.90855 11.1778C7.0458 11.3151 7.2258 11.3837 7.4057 11.3837C7.58561 11.3837 7.76561 11.3151 7.90286 11.1778C8.17745 10.9032 8.17745 10.458 7.90286 10.1835L7.52833 9.80892L7.90286 9.43439C8.17745 9.1598 8.17745 8.71458 7.90286 8.44008C7.62827 8.16548 7.18305 8.16548 6.90855 8.44008L6.53402 8.81461L6.15949 8.44008C5.88499 8.16548 5.43977 8.16548 5.16517 8.44008C4.89058 8.71467 4.89058 9.1598 5.16517 9.43439L5.5397 9.80892L5.16517 10.1835C4.89058 10.458 4.89058 10.9032 5.16517 11.1778Z" fill="#1E1E1E"/>
<path d="M40.3652 10.3058C40.5024 10.4431 40.6824 10.5118 40.8623 10.5118C41.0423 10.5118 41.2223 10.4432 41.3595 10.3058L41.734 9.93128L42.1086 10.3058C42.2458 10.4431 42.4258 10.5118 42.6057 10.5118C42.7856 10.5118 42.9656 10.4432 43.1029 10.3058C43.3775 10.0312 43.3775 9.586 43.1029 9.3115L42.7284 8.93697L43.1029 8.56244C43.3775 8.28785 43.3775 7.84263 43.1029 7.56813C42.8283 7.29353 42.3831 7.29353 42.1086 7.56813L41.734 7.94266L41.3595 7.56813C41.0849 7.29353 40.6397 7.29353 40.3652 7.56813C40.0906 7.84272 40.0906 8.28794 40.3652 8.56244L40.7397 8.93697L40.3652 9.3115C40.0905 9.586 40.0905 10.0312 40.3652 10.3058Z" fill="#1E1E1E"/>
<path d="M22.4657 3.07632C22.603 3.21357 22.783 3.28229 22.9629 3.28229C23.1428 3.28229 23.3228 3.21367 23.46 3.07632L23.8346 2.70179L24.2091 3.07632C24.3463 3.21357 24.5263 3.28229 24.7062 3.28229C24.8861 3.28229 25.0661 3.21367 25.2034 3.07632C25.478 2.80173 25.478 2.35651 25.2034 2.08201L24.8289 1.70748L25.2034 1.33295C25.478 1.05835 25.478 0.613136 25.2034 0.338636C24.9288 0.064042 24.4836 0.064042 24.2091 0.338636L23.8346 0.713167L23.46 0.338636C23.1854 0.064042 22.7402 0.064042 22.4657 0.338636C22.1911 0.613229 22.1911 1.05845 22.4657 1.33295L22.8402 1.70748L22.4657 2.08201C22.1911 2.35651 22.1911 2.80173 22.4657 3.07632V3.07632Z" fill="#1E1E1E"/>
</svg>
