<svg width="16" height="17" viewBox="0 0 16 17" fill="none" xmlns="http://www.w3.org/2000/svg">
<path d="M9.333 16.5C9.18875 16.5 9.04839 16.4532 8.933 16.3667L6.26633 14.3667C6.18353 14.3046 6.11633 14.224 6.07004 14.1315C6.02376 14.0389 5.99966 13.9368 5.99966 13.8333V10.0867L1.32233 4.82467C0.990142 4.44992 0.773248 3.98721 0.697715 3.49216C0.622182 2.9971 0.691224 2.49077 0.896544 2.03401C1.10186 1.57725 1.43472 1.18951 1.85512 0.917377C2.27551 0.645248 2.76555 0.500316 3.26633 0.5H12.733C13.2337 0.500587 13.7237 0.64576 14.1439 0.918071C14.5641 1.19038 14.8967 1.57825 15.1018 2.03506C15.3069 2.49187 15.3758 2.99818 15.3 3.49316C15.2243 3.98815 15.0073 4.45073 14.675 4.82533L9.99966 10.0867V15.8333C9.99966 16.0101 9.92942 16.1797 9.8044 16.3047C9.67938 16.4298 9.50981 16.5 9.333 16.5V16.5ZM7.333 13.5L8.66633 14.5V9.83333C8.66646 9.67011 8.72648 9.5126 8.835 9.39067L13.6803 3.93933C13.8419 3.75672 13.9473 3.53136 13.984 3.2903C14.0206 3.04924 13.9869 2.80274 13.8868 2.58037C13.7868 2.35801 13.6247 2.16924 13.4201 2.03673C13.2154 1.90421 12.9768 1.83359 12.733 1.83333H3.26633C3.02263 1.8337 2.78421 1.90436 2.57966 2.03684C2.37512 2.16932 2.21313 2.358 2.11313 2.58023C2.01313 2.80247 1.97937 3.04884 2.01588 3.28979C2.05239 3.53074 2.15764 3.75604 2.319 3.93867L7.165 9.39067C7.27327 9.5127 7.33304 9.67019 7.333 9.83333V13.5Z" fill="white"/>
</svg>
