<svg width="48" height="48" viewBox="0 0 48 48" fill="none" xmlns="http://www.w3.org/2000/svg">
<rect x="0.851562" y="0.986328" width="46.2979" height="46.2979" rx="7.71631" fill="#0E8478" fill-opacity="0.16"/>
<g clip-path="url(#clip0_2049_36939)">
<path d="M28.5027 17.706H27.8596V17.0629C27.8596 16.8924 27.7919 16.7289 27.6713 16.6083C27.5507 16.4877 27.3871 16.4199 27.2166 16.4199C27.0461 16.4199 26.8825 16.4877 26.7619 16.6083C26.6413 16.7289 26.5736 16.8924 26.5736 17.0629V17.706H21.4294V17.0629C21.4294 16.8924 21.3616 16.7289 21.241 16.6083C21.1204 16.4877 20.9569 16.4199 20.7863 16.4199C20.6158 16.4199 20.4522 16.4877 20.3317 16.6083C20.2111 16.7289 20.1433 16.8924 20.1433 17.0629V17.706H19.5003C18.6479 17.707 17.8307 18.0461 17.228 18.6488C16.6252 19.2515 16.2862 20.0687 16.2852 20.9211V28.6374C16.2862 29.4898 16.6252 30.307 17.228 30.9097C17.8307 31.5125 18.6479 31.8515 19.5003 31.8525H28.5027C29.355 31.8515 30.1722 31.5125 30.775 30.9097C31.3777 30.307 31.7168 29.4898 31.7178 28.6374V20.9211C31.7168 20.0687 31.3777 19.2515 30.775 18.6488C30.1722 18.0461 29.355 17.707 28.5027 17.706ZM17.5712 20.9211C17.5712 20.4095 17.7744 19.9188 18.1362 19.557C18.498 19.1953 18.9887 18.992 19.5003 18.992H28.5027C29.0143 18.992 29.5049 19.1953 29.8667 19.557C30.2285 19.9188 30.4317 20.4095 30.4317 20.9211V21.5641H17.5712V20.9211ZM28.5027 30.5665H19.5003C18.9887 30.5665 18.498 30.3633 18.1362 30.0015C17.7744 29.6397 17.5712 29.149 17.5712 28.6374V22.8502H30.4317V28.6374C30.4317 29.149 30.2285 29.6397 29.8667 30.0015C29.5049 30.3633 29.0143 30.5665 28.5027 30.5665Z" fill="#0E8478"/>
<path d="M23.9997 27.0306C24.5324 27.0306 24.9642 26.5988 24.9642 26.0661C24.9642 25.5334 24.5324 25.1016 23.9997 25.1016C23.467 25.1016 23.0352 25.5334 23.0352 26.0661C23.0352 26.5988 23.467 27.0306 23.9997 27.0306Z" fill="#0E8478"/>
<path d="M20.7849 27.0306C21.3176 27.0306 21.7494 26.5988 21.7494 26.0661C21.7494 25.5334 21.3176 25.1016 20.7849 25.1016C20.2522 25.1016 19.8203 25.5334 19.8203 26.0661C19.8203 26.5988 20.2522 27.0306 20.7849 27.0306Z" fill="#0E8478"/>
<path d="M27.2145 27.0306C27.7472 27.0306 28.1791 26.5988 28.1791 26.0661C28.1791 25.5334 27.7472 25.1016 27.2145 25.1016C26.6818 25.1016 26.25 25.5334 26.25 26.0661C26.25 26.5988 26.6818 27.0306 27.2145 27.0306Z" fill="#0E8478"/>
</g>
<defs>
<clipPath id="clip0_2049_36939">
<rect width="15.4326" height="15.4326" fill="white" transform="translate(16.2852 16.4199)"/>
</clipPath>
</defs>
</svg>
