<svg width="16" height="18" viewBox="0 0 16 18" fill="none" xmlns="http://www.w3.org/2000/svg">
<path d="M9.10005 16.6992C9.10005 17.0805 9.29745 17.4345 9.62175 17.6349C9.94604 17.8354 10.351 17.8536 10.692 17.6831L15.092 15.4831C15.4646 15.2968 15.7 14.9159 15.7 14.4992V8.15889C15.7 7.77766 15.5027 7.42361 15.1784 7.22318C14.8541 7.02275 14.4491 7.00453 14.1081 7.17502L9.70811 9.37502C9.33545 9.56136 9.10005 9.94225 9.10005 10.3589V16.6992Z" fill="#637381"/>
<path d="M13.7323 4.90325C14.105 4.71692 14.3404 4.33603 14.3404 3.91938C14.3404 3.50273 14.105 3.12184 13.7323 2.93551L8.49198 0.315349C8.1823 0.160509 7.81779 0.160509 7.50811 0.315349L2.26779 2.93551C1.89513 3.12184 1.65972 3.50273 1.65972 3.91938C1.65972 4.33603 1.89513 4.71692 2.26779 4.90325L7.50811 7.52341C7.81779 7.67825 8.1823 7.67825 8.49198 7.52341L13.7323 4.90325Z" fill="#637381"/>
<path d="M1.89198 7.17502C1.551 7.00453 1.14604 7.02275 0.821745 7.22318C0.497446 7.42361 0.300049 7.77766 0.300049 8.15889V14.4992C0.300049 14.9159 0.535451 15.2968 0.908114 15.4831L5.30811 17.6831C5.6491 17.8536 6.05406 17.8354 6.37835 17.6349C6.70265 17.4345 6.90005 17.0805 6.90005 16.6992V10.3589C6.90005 9.94225 6.66465 9.56136 6.29198 9.37502L1.89198 7.17502Z" fill="#637381"/>
</svg>
