<svg width="18" height="18" viewBox="0 0 18 18" fill="none" xmlns="http://www.w3.org/2000/svg">
<path fill-rule="evenodd" clip-rule="evenodd" d="M10.6381 1.48725C10.2212 -0.230126 7.77873 -0.230127 7.36181 1.48725C7.09248 2.59666 5.82144 3.12314 4.84653 2.52912C3.33735 1.60955 1.61029 3.33662 2.52985 4.8458C3.12387 5.82071 2.59739 7.09175 1.48799 7.36107C-0.229394 7.778 -0.229394 10.2204 1.48799 10.6374C2.59739 10.9067 3.12387 12.1777 2.52985 13.1526C1.61029 14.6618 3.33735 16.3889 4.84653 15.4693C5.82145 14.8753 7.09248 15.4018 7.36181 16.5112C7.77873 18.2286 10.2212 18.2286 10.6381 16.5112C10.9074 15.4018 12.1785 14.8753 13.1534 15.4693C14.6626 16.3889 16.3896 14.6618 15.4701 13.1526C14.876 12.1777 15.4025 10.9067 16.5119 10.6374C18.2293 10.2204 18.2293 7.778 16.5119 7.36107C15.4025 7.09175 14.876 5.82071 15.4701 4.8458C16.3896 3.33662 14.6626 1.60956 13.1534 2.52912C12.1785 3.12314 10.9074 2.59666 10.6381 1.48725ZM8.99995 12.2992C10.8225 12.2992 12.2999 10.8218 12.2999 8.99922C12.2999 7.17668 10.8225 5.69922 8.99995 5.69922C7.17741 5.69922 5.69995 7.17668 5.69995 8.99922C5.69995 10.8218 7.17741 12.2992 8.99995 12.2992Z" fill="#637381"/>
</svg>
