<svg width="32" height="32" viewBox="0 0 32 32" fill="none" xmlns="http://www.w3.org/2000/svg">
<g clip-path="url(#clip0_2427_41380)">
<path d="M12.6667 8H10.6667C9.95942 8 9.28115 8.28095 8.78105 8.78105C8.28095 9.28115 8 9.95942 8 10.6667V12.6667C8 13.3739 8.28095 14.0522 8.78105 14.5523C9.28115 15.0524 9.95942 15.3333 10.6667 15.3333H12.6667C13.3739 15.3333 14.0522 15.0524 14.5523 14.5523C15.0524 14.0522 15.3333 13.3739 15.3333 12.6667V10.6667C15.3333 9.95942 15.0524 9.28115 14.5523 8.78105C14.0522 8.28095 13.3739 8 12.6667 8V8ZM14 12.6667C14 13.0203 13.8595 13.3594 13.6095 13.6095C13.3594 13.8595 13.0203 14 12.6667 14H10.6667C10.313 14 9.97391 13.8595 9.72386 13.6095C9.47381 13.3594 9.33333 13.0203 9.33333 12.6667V10.6667C9.33333 10.313 9.47381 9.97391 9.72386 9.72386C9.97391 9.47381 10.313 9.33333 10.6667 9.33333H12.6667C13.0203 9.33333 13.3594 9.47381 13.6095 9.72386C13.8595 9.97391 14 10.313 14 10.6667V12.6667Z" fill="#93A3B0"/>
<path d="M12.6667 16.666H10.6667C9.95942 16.666 9.28115 16.947 8.78105 17.4471C8.28095 17.9472 8 18.6254 8 19.3327V21.3327C8 22.0399 8.28095 22.7182 8.78105 23.2183C9.28115 23.7184 9.95942 23.9993 10.6667 23.9993H12.6667C13.3739 23.9993 14.0522 23.7184 14.5523 23.2183C15.0524 22.7182 15.3333 22.0399 15.3333 21.3327V19.3327C15.3333 18.6254 15.0524 17.9472 14.5523 17.4471C14.0522 16.947 13.3739 16.666 12.6667 16.666ZM14 21.3327C14 21.6863 13.8595 22.0254 13.6095 22.2755C13.3594 22.5255 13.0203 22.666 12.6667 22.666H10.6667C10.313 22.666 9.97391 22.5255 9.72386 22.2755C9.47381 22.0254 9.33333 21.6863 9.33333 21.3327V19.3327C9.33333 18.9791 9.47381 18.6399 9.72386 18.3899C9.97391 18.1398 10.313 17.9993 10.6667 17.9993H12.6667C13.0203 17.9993 13.3594 18.1398 13.6095 18.3899C13.8595 18.6399 14 18.9791 14 19.3327V21.3327Z" fill="#93A3B0"/>
<path d="M22.8608 20.6988L21.3322 22.2255V9.75482L22.8608 11.2815C22.9228 11.3434 22.9963 11.3925 23.0772 11.426C23.1581 11.4594 23.2448 11.4767 23.3324 11.4766C23.42 11.4766 23.5067 11.4593 23.5876 11.4258C23.6684 11.3922 23.7419 11.3431 23.8038 11.2812C23.8657 11.2192 23.9148 11.1457 23.9483 11.0648C23.9818 10.9839 23.999 10.8972 23.999 10.8096C23.9989 10.722 23.9817 10.6353 23.9481 10.5544C23.9146 10.4735 23.8654 10.4001 23.8035 10.3382L22.0788 8.61616C21.7038 8.24162 21.1955 8.03125 20.6655 8.03125C20.1355 8.03125 19.6272 8.24162 19.2522 8.61616L17.5275 10.3382C17.4656 10.4001 17.4164 10.4735 17.3829 10.5544C17.3493 10.6353 17.3321 10.722 17.332 10.8096C17.332 10.8972 17.3492 10.9839 17.3827 11.0648C17.4162 11.1457 17.4653 11.2192 17.5272 11.2812C17.5891 11.3431 17.6626 11.3922 17.7434 11.4258C17.8243 11.4593 17.911 11.4766 17.9986 11.4766C18.0862 11.4767 18.1729 11.4594 18.2538 11.426C18.3347 11.3925 18.4082 11.3434 18.4702 11.2815L19.9988 9.75482V22.2255L18.4702 20.6988C18.4082 20.6369 18.3347 20.5878 18.2538 20.5544C18.1729 20.5209 18.0862 20.5037 17.9986 20.5037C17.911 20.5037 17.8243 20.521 17.7434 20.5545C17.6626 20.5881 17.5891 20.6372 17.5272 20.6992C17.4653 20.7611 17.4162 20.8346 17.3827 20.9155C17.3492 20.9964 17.332 21.0832 17.332 21.1707C17.3321 21.2583 17.3493 21.345 17.3829 21.4259C17.4164 21.5068 17.4656 21.5803 17.5275 21.6422L19.2522 23.3642C19.6272 23.7387 20.1355 23.9491 20.6655 23.9491C21.1955 23.9491 21.7038 23.7387 22.0788 23.3642L23.8035 21.6422C23.8654 21.5803 23.9146 21.5068 23.9481 21.4259C23.9817 21.345 23.9989 21.2583 23.999 21.1707C23.999 21.0832 23.9818 20.9964 23.9483 20.9155C23.9148 20.8346 23.8657 20.7611 23.8038 20.6992C23.7419 20.6372 23.6684 20.5881 23.5876 20.5545C23.5067 20.521 23.42 20.5037 23.3324 20.5037C23.2448 20.5037 23.1581 20.5209 23.0772 20.5544C22.9963 20.5878 22.9228 20.6369 22.8608 20.6988Z" fill="#93A3B0"/>
</g>
<defs>
<clipPath id="clip0_2427_41380">
<rect width="16" height="16" fill="white" transform="translate(8 8)"/>
</clipPath>
</defs>
</svg>
