<svg width="128" height="130" viewBox="0 0 128 130" fill="none" xmlns="http://www.w3.org/2000/svg">
<path d="M126.55 77.8443C127.222 74.1404 127.573 70.3248 127.573 66.4271C127.573 31.3167 99.1103 2.85425 63.9999 2.85425C28.8895 2.85425 0.427055 31.3167 0.427055 66.4271C0.427055 70.3248 0.777878 74.1404 1.44942 77.8443H126.55Z" fill="#0E8478"/>
<path d="M104.873 0.181118C104.457 0.927904 104.219 1.78834 104.219 2.70431C104.219 4.96387 105.663 6.88611 107.679 7.59864V10.9553C107.251 11.392 106.987 11.9901 106.987 12.65C106.987 13.3098 107.251 13.9079 107.679 14.3446V15.5689H111.139V14.3444C111.567 13.9077 111.831 13.3096 111.831 12.6497C111.831 11.9898 111.567 11.3917 111.139 10.955V7.59423C113.167 6.86509 114.622 4.8907 114.598 2.64723C114.589 1.75072 114.352 0.908962 113.942 0.176447C113.768 -0.135709 113.3 -0.0028543 113.301 0.354711V0.368982C113.301 2.57872 111.46 4.35824 109.228 4.25705C107.228 4.16649 105.589 2.5084 105.519 0.507804C105.517 0.452016 105.517 0.396487 105.517 0.341218C105.519 -0.0158283 105.047 -0.130519 104.873 0.181118ZM13.401 2.70431C13.401 1.7886 13.6382 0.928164 14.0546 0.181118C14.2285 -0.130519 14.701 -0.0158283 14.6987 0.340958C14.6984 0.396228 14.6989 0.451756 14.701 0.507545C14.7705 2.5084 16.4097 4.16623 18.4098 4.25679C20.6418 4.35798 22.4831 2.5782 22.4831 0.368723C22.4831 0.364052 22.4831 0.359122 22.4831 0.354451C22.4818 -0.00311376 22.9496 -0.135968 23.1243 0.176188C23.5337 0.908703 23.7706 1.75072 23.7802 2.64697C23.8044 4.89044 22.3489 6.86483 20.3208 7.59397V10.9548C20.7487 11.3915 21.0129 11.9896 21.0129 12.6494C21.0129 13.3093 20.749 13.9074 20.3208 14.3441V15.5689H16.8612V14.3444C16.4333 13.9077 16.1691 13.3096 16.1691 12.6497C16.1691 11.9898 16.433 11.3917 16.8612 10.955V7.59838C14.845 6.88611 13.401 4.96387 13.401 2.70431Z" fill="#E27500"/>
<path d="M104.219 38.4792V49.3014H101.625C100.192 49.3014 99.0298 50.4631 99.0298 51.8962C99.0298 55.2856 101.196 58.1689 104.219 59.2377V85.6288H114.599V59.2377C117.622 58.1692 119.788 55.2856 119.788 51.8962C119.788 50.4631 118.627 49.3014 117.194 49.3014H114.599V38.4792C117.622 37.4107 119.788 34.5271 119.788 31.1377C119.788 29.7046 118.627 28.5429 117.194 28.5429H111.139V24.2379C113.785 23.4856 115.723 21.0509 115.723 18.1637C115.723 14.6765 112.896 11.8497 109.409 11.8497C105.922 11.8497 103.095 14.6765 103.095 18.1637C103.095 21.0509 105.033 23.4856 107.679 24.2379V28.5429H101.625C100.192 28.5429 99.0298 29.7046 99.0298 31.1377C99.0298 34.5271 101.196 37.4104 104.219 38.4792ZM10.8063 49.3014H13.4011V38.4792C10.3776 37.4107 8.21147 34.5271 8.21147 31.1377C8.21147 29.7046 9.37317 28.5429 10.8063 28.5429H16.8608V24.2379C14.2146 23.4856 12.2768 21.0509 12.2768 18.1637C12.2768 14.6765 15.1035 11.8497 18.5907 11.8497C22.0779 11.8497 24.9047 14.6765 24.9047 18.1637C24.9047 21.0509 22.9666 23.4856 20.3204 24.2379V28.5429H26.3751C27.8083 28.5429 28.97 29.7046 28.97 31.1377C28.97 34.5271 26.8038 37.4104 23.7803 38.4792V49.3014H26.3751C27.8083 49.3014 28.97 50.4631 28.97 51.8962C28.97 55.2856 26.8038 58.1689 23.7803 59.2377V85.6288H13.4011V59.2377C10.3776 58.1692 8.21147 55.2856 8.21147 51.8962C8.21147 50.4631 9.37317 49.3014 10.8063 49.3014Z" fill="#FDBF43"/>
<path d="M106.814 62.2755H104.219V85.6288H109.409V64.8703C109.409 63.4372 108.247 62.2755 106.814 62.2755ZM101.625 49.3014H104.219V41.517H106.814C108.247 41.517 109.409 42.6787 109.409 44.1118V49.3014H112.004C113.437 49.3014 114.599 50.4631 114.599 51.8962C114.599 56.1956 111.114 59.6807 106.814 59.6807C102.515 59.6807 99.0298 56.1956 99.0298 51.8962C99.0298 50.4631 100.191 49.3014 101.625 49.3014ZM18.5906 64.8703V85.6288H13.401V62.2755H15.9958C17.4289 62.2755 18.5906 63.4372 18.5906 64.8703ZM10.8062 49.3014H13.401V41.517H15.9958C17.4289 41.517 18.5906 42.6787 18.5906 44.1118V49.3014H21.1855C22.6186 49.3014 23.7803 50.4631 23.7803 51.8962C23.7803 56.1956 20.2952 59.6807 15.9958 59.6807C11.6965 59.6807 8.2114 56.1956 8.2114 51.8962C8.2114 50.4631 9.3731 49.3014 10.8062 49.3014ZM15.9958 38.9222C11.6965 38.9222 8.2114 35.4371 8.2114 31.1377C8.2114 29.7046 9.3731 28.5429 10.8062 28.5429H21.1855C22.6186 28.5429 23.7803 29.7046 23.7803 31.1377C23.7803 35.4371 20.2952 38.9222 15.9958 38.9222ZM14.6984 20.5854C13.9721 20.5854 13.2744 20.4627 12.6252 20.2369C12.3994 19.5875 12.2767 18.89 12.2767 18.1637C12.2767 14.6765 15.1035 11.8497 18.5906 11.8497C19.3169 11.8497 20.0147 11.9725 20.6639 12.1982C20.8896 12.8477 21.0124 13.5454 21.0124 14.2717C21.0124 17.7586 18.1856 20.5854 14.6984 20.5854ZM101.625 28.5429H112.004C113.437 28.5429 114.599 29.7046 114.599 31.1377C114.599 35.4371 111.114 38.9222 106.814 38.9222C102.515 38.9222 99.0298 35.4371 99.0298 31.1377C99.0298 29.7046 100.191 28.5429 101.625 28.5429ZM105.517 20.5854C104.791 20.5854 104.093 20.4627 103.444 20.2369C103.218 19.5875 103.095 18.89 103.095 18.1637C103.095 14.6765 105.922 11.8497 109.409 11.8497C110.135 11.8497 110.833 11.9725 111.482 12.1982C111.708 12.8477 111.831 13.5454 111.831 14.2717C111.831 17.7586 109.004 20.5854 105.517 20.5854Z" fill="#FDD78D"/>
<path d="M107.524 77.8444H111.294V71.9445C111.294 70.9038 110.45 70.0599 109.409 70.0599C108.368 70.0599 107.524 70.9038 107.524 71.9445V77.8444ZM107.524 49.3014V45.9964C107.524 44.9556 108.368 44.1118 109.409 44.1118C110.45 44.1118 111.294 44.9556 111.294 45.9964V49.3014H107.524ZM16.7061 71.9445C16.7061 70.9038 17.5499 70.0599 18.5907 70.0599C19.6315 70.0599 20.4753 70.9038 20.4753 71.9445V77.8444H16.7061V71.9445ZM16.7061 49.3014V45.9964C16.7061 44.9556 17.5499 44.1118 18.5907 44.1118C19.6315 44.1118 20.4753 44.9556 20.4753 45.9964V49.3014H16.7061Z" fill="#E27500"/>
<path d="M93.6213 62.2754C93.7659 61.0847 93.8403 59.8724 93.8403 58.6427C93.8403 42.1623 80.4804 28.8024 64 28.8024C47.5196 28.8024 34.1597 42.1623 34.1597 58.6427C34.1597 59.8724 34.2342 61.0847 34.3787 62.2754H93.6213Z" fill="#FFDF8E"/>
<path d="M34.1597 58.6427C34.1597 59.8724 34.2341 61.0847 34.3787 62.2755H80.9067C81.0513 61.0847 81.1257 59.8724 81.1257 58.6427C81.1257 44.344 71.0688 32.3944 57.6427 29.4812C44.2166 32.3944 34.1597 44.344 34.1597 58.6427Z" fill="#FFF2B4"/>
<path d="M54.6587 28.5429C54.6587 29.976 55.8204 31.1377 57.2535 31.1377H70.7465C72.1796 31.1377 73.3413 29.976 73.3413 28.5429C73.3413 27.1098 72.1796 25.9481 70.7465 25.9481H67.53L66.9225 22.0315C67.5261 21.3459 67.8922 20.4463 67.8922 19.461C67.8922 18.0456 67.1366 16.8066 66.0066 16.1254L64.4575 6.13565C64.2618 4.87405 63.7382 4.87405 63.5425 6.13565L61.9934 16.1254C60.8636 16.8066 60.1078 18.0456 60.1078 19.461C60.1078 20.4463 60.4739 21.3459 61.0775 22.0315L60.47 25.9481H57.2535C55.8204 25.9481 54.6587 27.1098 54.6587 28.5429Z" fill="#E27500"/>
<path d="M64.2593 19.4367V5.42624C64.0203 4.9532 63.6889 5.18959 63.5423 6.13592L61.9932 16.1257C60.8634 16.8068 60.1076 18.0458 60.1076 19.4613C60.1076 20.4466 60.4737 21.3462 61.0773 22.0317H61.6645C63.0976 22.0315 64.2593 20.8698 64.2593 19.4367ZM54.6642 28.3701C54.7535 26.9909 55.9603 25.9481 57.3423 25.9481H61.6645C63.0976 25.9481 64.2593 27.1098 64.2593 28.5429C64.2593 29.976 63.0976 31.1377 61.6645 31.1377H57.2533C55.7631 31.1377 54.5664 29.8813 54.6642 28.3701Z" fill="#FD8F01"/>
<path d="M1.4493 77.8444C5.11991 98.087 18.376 114.991 36.3453 123.686H91.6542C109.624 114.991 122.879 98.087 126.55 77.8444H1.4493Z" fill="#FDBF43"/>
<path d="M3.02187 80.4391H124.978C126.411 80.4391 127.573 79.2774 127.573 77.8443C127.573 76.4112 126.411 75.2495 124.978 75.2495H3.02187C1.58875 75.2495 0.427055 76.4112 0.427055 77.8443C0.427055 79.2774 1.58875 80.4391 3.02187 80.4391Z" fill="#F57E00"/>
<path d="M3.02191 80.4391H117.453C118.886 80.4391 120.048 79.2774 120.048 77.8443C120.048 76.4112 118.886 75.2495 117.453 75.2495H3.02191C1.5888 75.2495 0.427101 76.4112 0.427101 77.8443C0.427101 79.2774 1.5888 80.4391 3.02191 80.4391Z" fill="#FD8F01"/>
<path d="M93.8403 62.2754H83.7206V126.882C87.2386 125.735 90.622 124.29 93.8403 122.575V62.2754Z" fill="#E27500"/>
<path d="M34.1595 62.2754V122.576C38.1747 124.714 42.4465 126.434 46.9169 127.678H81.0825C82.8592 127.184 84.6047 126.614 86.3152 125.973V62.2754H34.1595Z" fill="#FD8F01"/>
<path d="M19.1781 87.5134V92.8943C19.1781 93.1807 19.4105 93.4132 19.697 93.4132H22.4286C22.715 93.4132 22.9475 93.1807 22.9475 92.8943V87.5134C22.9475 86.4726 22.1037 85.6288 21.0629 85.6288C20.0221 85.6288 19.1781 86.4726 19.1781 87.5134ZM27.6727 85.6288C28.7135 85.6288 29.5573 86.4726 29.5573 87.5134V92.8943C29.5573 93.1807 29.3248 93.4132 29.0383 93.4132H26.307C26.0206 93.4132 25.7881 93.1807 25.7881 92.8943V87.5134C25.7881 86.4726 26.6319 85.6288 27.6727 85.6288ZM13.9884 85.6288C15.0292 85.6288 15.873 86.4726 15.873 87.5134V92.8943C15.873 93.1807 15.6405 93.4132 15.3541 93.4132H12.6228C12.3363 93.4132 12.1038 93.1807 12.1038 92.8943V87.5134C12.1038 86.4726 12.9477 85.6288 13.9884 85.6288ZM6.9142 85.6288C7.95498 85.6288 8.79881 86.4726 8.79881 87.5134V92.8943C8.79881 93.1807 8.56631 93.4132 8.27985 93.4132H6.42249C5.92999 92.3644 5.46552 91.2997 5.02959 90.2206V87.5134C5.02959 86.4726 5.87342 85.6288 6.9142 85.6288ZM100.327 85.6288C101.368 85.6288 102.212 86.4726 102.212 87.5134V92.8943C102.212 93.1807 101.979 93.4132 101.693 93.4132H98.9617C98.6753 93.4132 98.4428 93.1807 98.4428 92.8943V87.5134C98.4428 86.4726 99.2866 85.6288 100.327 85.6288ZM107.402 85.6288C108.442 85.6288 109.286 86.4726 109.286 87.5134V92.8943C109.286 93.1807 109.054 93.4132 108.767 93.4132H106.036C105.749 93.4132 105.517 93.1807 105.517 92.8943V87.5134C105.517 86.4726 106.361 85.6288 107.402 85.6288ZM114.476 85.6288C115.517 85.6288 116.36 86.4726 116.36 87.5134V92.8943C116.36 93.1807 116.128 93.4132 115.841 93.4132H113.11C112.824 93.4132 112.591 93.1807 112.591 92.8943V87.5134C112.591 86.4726 113.435 85.6288 114.476 85.6288ZM121.086 85.6288C122.127 85.6288 122.97 86.4726 122.97 87.5134V90.2206C122.535 91.2997 122.07 92.3644 121.578 93.4132H119.72C119.434 93.4132 119.201 93.1807 119.201 92.8943V87.5134C119.201 86.4726 120.045 85.6288 121.086 85.6288Z" fill="#F57E00"/>
<path d="M65.4454 57.0858V59.6806C65.4454 61.1137 66.6071 62.2754 68.0402 62.2754C69.4733 62.2754 70.635 61.1137 70.635 59.6806V57.0858C70.635 55.6527 69.4733 54.491 68.0402 54.491C66.6071 54.491 65.4454 55.6527 65.4454 57.0858ZM75.8617 54.491C77.2948 54.491 78.4565 55.6527 78.4565 57.0858V59.6806C78.4565 61.1137 77.2948 62.2754 75.8617 62.2754C74.4286 62.2754 73.2669 61.1137 73.2669 59.6806V57.0858C73.2669 55.6527 74.4286 54.491 75.8617 54.491ZM83.6833 54.491C85.1164 54.491 86.2781 55.6527 86.2781 57.0858V59.6806C86.2781 61.1137 85.1164 62.2754 83.6833 62.2754C82.2501 62.2754 81.0885 61.1137 81.0885 59.6806V57.0858C81.0885 55.6527 82.2501 54.491 83.6833 54.491ZM91.5048 54.491C92.9379 54.491 94.0996 55.6527 94.0996 57.0858V59.6806C94.0996 61.1137 92.9379 62.2754 91.5048 62.2754C90.0717 62.2754 88.91 61.1137 88.91 59.6806V57.0858C88.91 55.6527 90.0717 54.491 91.5048 54.491ZM60.2189 54.491C61.652 54.491 62.8137 55.6527 62.8137 57.0858V59.6806C62.8137 61.1137 61.652 62.2754 60.2189 62.2754C58.7858 62.2754 57.6241 61.1137 57.6241 59.6806V57.0858C57.6241 55.6527 58.7858 54.491 60.2189 54.491ZM52.3974 54.491C53.8305 54.491 54.9922 55.6527 54.9922 57.0858V59.6806C54.9922 61.1137 53.8305 62.2754 52.3974 62.2754C50.9643 62.2754 49.8026 61.1137 49.8026 59.6806V57.0858C49.8026 55.6527 50.9643 54.491 52.3974 54.491ZM44.5758 54.491C46.0089 54.491 47.1706 55.6527 47.1706 57.0858V59.6806C47.1706 61.1137 46.0089 62.2754 44.5758 62.2754C43.1427 62.2754 41.981 61.1137 41.981 59.6806V57.0858C41.981 55.6527 43.1427 54.491 44.5758 54.491ZM36.7543 54.491C38.1874 54.491 39.3491 55.6527 39.3491 57.0858V59.6806C39.3491 61.1137 38.1874 62.2754 36.7543 62.2754C35.3212 62.2754 34.1595 61.1137 34.1595 59.6806V57.0858C34.1595 55.6527 35.3212 54.491 36.7543 54.491Z" fill="#FDCB6B"/>
<path d="M34.4191 64.8703H94.0998C95.5329 64.8703 96.6946 63.7086 96.6946 62.2755C96.6946 60.8424 95.5329 59.6807 94.0998 59.6807H34.4191C32.986 59.6807 31.8243 60.8424 31.8243 62.2755C31.8243 63.7086 32.986 64.8703 34.4191 64.8703Z" fill="#FD9D01"/>
<path d="M91.5049 72.6546C91.5049 71.2215 90.3432 70.0598 88.9101 70.0598H39.6087C38.1756 70.0598 37.0139 71.2215 37.0139 72.6546C37.0139 74.0877 38.1756 75.2494 39.6087 75.2494H88.9101C90.3432 75.2494 91.5049 74.0877 91.5049 72.6546ZM39.6087 80.4391H88.9101C90.3432 80.4391 91.5049 81.6008 91.5049 83.0339C91.5049 84.467 90.3432 85.6287 88.9101 85.6287H39.6087C38.1756 85.6287 37.0139 84.467 37.0139 83.0339C37.0139 81.6008 38.1756 80.4391 39.6087 80.4391ZM39.6087 90.8183H88.9101C90.3432 90.8183 91.5049 91.98 91.5049 93.4131C91.5049 94.8462 90.3432 96.0079 88.9101 96.0079H39.6087C38.1756 96.0079 37.0139 94.8462 37.0139 93.4131C37.0139 91.98 38.1756 90.8183 39.6087 90.8183ZM39.6087 101.198H88.9101C90.3432 101.198 91.5049 102.359 91.5049 103.792C91.5049 105.225 90.3432 106.387 88.9101 106.387H39.6087C38.1756 106.387 37.0139 105.225 37.0139 103.792C37.0139 102.359 38.1756 101.198 39.6087 101.198ZM39.6087 111.577H88.9101C90.3432 111.577 91.5049 112.738 91.5049 114.172C91.5049 115.605 90.3432 116.766 88.9101 116.766H39.6087C38.1756 116.766 37.0139 115.605 37.0139 114.172C37.0139 112.738 38.1756 111.577 39.6087 111.577ZM39.6087 121.956H88.9101C90.0855 121.956 91.0783 122.738 91.3972 123.81C88.6643 125.117 85.8238 126.235 82.8922 127.146H45.1076C42.3415 126.286 39.6564 125.242 37.0663 124.029C37.3079 122.846 38.3543 121.956 39.6087 121.956Z" fill="#E27500"/>
<path d="M34.1595 64.8703H83.7204C85.1535 64.8703 86.3152 63.7086 86.3152 62.2755C86.3152 60.8424 85.1535 59.6807 83.7204 59.6807H34.1595C32.7264 59.6807 31.5647 60.8424 31.5647 62.2755C31.5647 63.7086 32.7264 64.8703 34.1595 64.8703Z" fill="#FDBF43"/>
<path d="M46.8742 94.9701V127.667C52.3228 129.187 58.0664 130 64 130C69.9335 130 75.6772 129.187 81.1257 127.667V94.9701C81.1257 85.5118 73.4583 77.8444 64 77.8444C54.5416 77.8444 46.8742 85.5118 46.8742 94.9701Z" fill="#FFDF8E"/>
<path d="M10.6951 101.083C14.8841 107.513 20.205 113.138 26.3752 117.676V107.944C26.3752 102.785 22.1929 98.6028 17.0339 98.6028C14.5873 98.6028 12.3604 99.5434 10.6951 101.083ZM110.966 98.6028C113.413 98.6028 115.64 99.5434 117.305 101.083C113.116 107.513 107.795 113.138 101.625 117.676V107.944C101.625 102.785 105.807 98.6028 110.966 98.6028ZM64 83.0339C70.5921 83.0339 75.9361 88.3779 75.9361 94.9701V128.881C72.0701 129.615 68.0798 130 64 130C59.9202 130 55.9299 129.616 52.0639 128.881V94.9701C52.0639 88.3779 57.4079 83.0339 64 83.0339Z" fill="#783D3E"/>
</svg>
