<svg width="25" height="24" viewBox="0 0 25 24" fill="none" xmlns="http://www.w3.org/2000/svg">
<path d="M5 13.875V1.875C5 1.67609 5.07902 1.48532 5.21967 1.34467C5.36032 1.20402 5.55109 1.125 5.75 1.125H15.5L20 5.625V13.875" fill="#D6D6D4"/>
<path d="M20 21.375V22.125C20 22.3239 19.921 22.5147 19.7803 22.6553C19.6397 22.796 19.4489 22.875 19.25 22.875H5.75C5.55109 22.875 5.36032 22.796 5.21967 22.6553C5.07902 22.5147 5 22.3239 5 22.125V21.375" fill="#D6D6D4"/>
<path d="M15.5 1.125V5.625H20" fill="#44546C"/>
<path d="M20.375 13.875H4.625C4.21079 13.875 3.875 14.2108 3.875 14.625V20.625C3.875 21.0392 4.21079 21.375 4.625 21.375H20.375C20.7892 21.375 21.125 21.0392 21.125 20.625V14.625C21.125 14.2108 20.7892 13.875 20.375 13.875Z" fill="#F35244"/>
<path d="M17.75 9.75H7.25C7.15054 9.75 7.05516 9.71049 6.98483 9.64017C6.91451 9.56984 6.875 9.47446 6.875 9.375C6.875 9.27554 6.91451 9.18016 6.98483 9.10983C7.05516 9.03951 7.15054 9 7.25 9H17.75C17.8495 9 17.9448 9.03951 18.0152 9.10983C18.0855 9.18016 18.125 9.27554 18.125 9.375C18.125 9.47446 18.0855 9.56984 18.0152 9.64017C17.9448 9.71049 17.8495 9.75 17.75 9.75Z" fill="#44546C"/>
<path d="M17.75 12H7.25C7.15054 12 7.05516 11.9605 6.98483 11.8902C6.91451 11.8198 6.875 11.7245 6.875 11.625C6.875 11.5255 6.91451 11.4302 6.98483 11.3598C7.05516 11.2895 7.15054 11.25 7.25 11.25H17.75C17.8495 11.25 17.9448 11.2895 18.0152 11.3598C18.0855 11.4302 18.125 11.5255 18.125 11.625C18.125 11.7245 18.0855 11.8198 18.0152 11.8902C17.9448 11.9605 17.8495 12 17.75 12Z" fill="#44546C"/>
<path d="M7.77491 15.8851C7.7749 15.8467 7.78369 15.8089 7.80059 15.7744C7.81749 15.74 7.84206 15.7098 7.87241 15.6864C7.94336 15.6293 8.03267 15.5999 8.12366 15.6039H9.37241C9.56134 15.6012 9.74962 15.6265 9.93116 15.6789C10.098 15.7231 10.253 15.8038 10.3849 15.9151C10.5183 16.0325 10.6212 16.1805 10.6849 16.3464C10.7653 16.5516 10.8036 16.771 10.7974 16.9914V17.0214C10.8036 17.2417 10.7653 17.4611 10.6849 17.6664C10.6136 17.833 10.5059 17.9816 10.3699 18.1014C10.233 18.2175 10.0714 18.3008 9.89741 18.3451C9.70695 18.3977 9.50998 18.423 9.31241 18.4201H8.71616V19.7251C8.71648 19.7719 8.70269 19.8176 8.6766 19.8564C8.65051 19.8952 8.61333 19.9253 8.56991 19.9426C8.46824 19.9897 8.35756 20.014 8.24553 20.014C8.13351 20.014 8.02283 19.9897 7.92116 19.9426C7.87774 19.9253 7.84055 19.8952 7.81446 19.8564C7.78837 19.8176 7.77459 19.7719 7.77491 19.7251V15.8851ZM8.71616 16.4251V17.6964H9.31241C9.38517 17.7007 9.45804 17.6899 9.52644 17.6648C9.59485 17.6396 9.65731 17.6006 9.70991 17.5501C9.76618 17.4885 9.80973 17.4163 9.83804 17.3378C9.86636 17.2593 9.87888 17.176 9.87491 17.0926V17.0289C9.88184 16.9467 9.87248 16.864 9.84739 16.7855C9.82229 16.707 9.78194 16.6342 9.72866 16.5714C9.67606 16.5209 9.6136 16.4819 9.54519 16.4567C9.47679 16.4315 9.40392 16.4208 9.33116 16.4251H8.71616Z" fill="#D6D6D4"/>
<path d="M12.6875 15.6042C12.885 15.6014 13.082 15.6266 13.2725 15.6792C13.4458 15.7241 13.6063 15.8089 13.7412 15.9267C13.8808 16.0463 13.9889 16.1982 14.0562 16.3692C14.1397 16.579 14.1793 16.8036 14.1725 17.0292V18.5892C14.1796 18.8161 14.14 19.042 14.0562 19.253C13.9877 19.4203 13.8812 19.5694 13.7452 19.6885C13.6092 19.8076 13.4474 19.8934 13.2725 19.9392C13.0816 19.9898 12.8849 20.015 12.6875 20.0142H11.6187C11.5124 20.02 11.4071 19.991 11.3187 19.9317C11.2863 19.9094 11.2596 19.8798 11.2407 19.8453C11.2218 19.8108 11.2113 19.7723 11.21 19.733V15.8855C11.2113 15.8461 11.2218 15.8077 11.2407 15.7732C11.2596 15.7386 11.2863 15.709 11.3187 15.6867C11.4071 15.6275 11.5124 15.5985 11.6187 15.6042H12.6875ZM12.1512 16.4255V19.193H12.6875C12.7602 19.1969 12.8329 19.1859 12.9013 19.1608C12.9696 19.1356 13.0321 19.0968 13.085 19.0467C13.1416 18.9853 13.1853 18.9132 13.2137 18.8346C13.242 18.7561 13.2544 18.6726 13.25 18.5892V17.0292C13.2569 16.9471 13.2475 16.8644 13.2224 16.7859C13.1973 16.7074 13.157 16.6346 13.1037 16.5717C13.0509 16.5216 12.9884 16.4828 12.92 16.4577C12.8517 16.4326 12.7789 16.4216 12.7062 16.4255H12.1512Z" fill="#D6D6D4"/>
<path d="M14.7688 15.8927C14.7669 15.8481 14.7779 15.8038 14.8005 15.7652C14.8231 15.7266 14.8564 15.6954 14.8963 15.6752C14.9831 15.6263 15.0816 15.6017 15.1813 15.604H17.2738C17.3186 15.6011 17.3633 15.6117 17.4021 15.6344C17.4408 15.6571 17.4719 15.6909 17.4913 15.7315C17.5359 15.8171 17.5591 15.9124 17.5588 16.009C17.5607 16.1115 17.5348 16.2126 17.4838 16.3015C17.464 16.3398 17.4338 16.3718 17.3966 16.3937C17.3595 16.4156 17.3169 16.4265 17.2738 16.4252H15.71V17.4452H16.625C16.6665 17.4429 16.7079 17.4518 16.7449 17.4709C16.7818 17.49 16.8129 17.5187 16.835 17.554C16.885 17.6309 16.9111 17.721 16.91 17.8127C16.9087 17.8961 16.8855 17.9776 16.8425 18.049C16.8213 18.0875 16.7896 18.1192 16.7511 18.1405C16.7126 18.1617 16.6689 18.1716 16.625 18.169H15.71V19.7252C15.7103 19.772 15.6966 19.8178 15.6705 19.8566C15.6444 19.8954 15.6072 19.9254 15.5638 19.9427C15.4621 19.9898 15.3514 20.0141 15.2394 20.0141C15.1274 20.0141 15.0167 19.9898 14.915 19.9427C14.8716 19.9254 14.8344 19.8954 14.8083 19.8566C14.7822 19.8178 14.7684 19.772 14.7688 19.7252V15.8927Z" fill="#D6D6D4"/>
</svg>
