<svg width="24" height="18" viewBox="0 0 24 18" fill="none" xmlns="http://www.w3.org/2000/svg">
<path d="M22.5938 1.07812H1.40625C1.3027 1.07812 1.21875 1.16207 1.21875 1.26562V12.7031C1.21875 12.8067 1.3027 12.8906 1.40625 12.8906H22.5938C22.6973 12.8906 22.7812 12.8067 22.7812 12.7031V1.26562C22.7812 1.16207 22.6973 1.07812 22.5938 1.07812Z" fill="#78C2A4"/>
<path d="M2.4375 12.7031V1.26562C2.4375 1.2159 2.45725 1.16821 2.49242 1.13304C2.52758 1.09788 2.57527 1.07812 2.625 1.07812H1.40625C1.35652 1.07812 1.30883 1.09788 1.27367 1.13304C1.2385 1.16821 1.21875 1.2159 1.21875 1.26562V12.7031C1.21875 12.7529 1.2385 12.8005 1.27367 12.8357C1.30883 12.8709 1.35652 12.8906 1.40625 12.8906H2.625C2.57527 12.8906 2.52758 12.8709 2.49242 12.8357C2.45725 12.8005 2.4375 12.7529 2.4375 12.7031Z" fill="#65A589"/>
<path d="M21.375 4.17188V9.79688C20.8778 9.79706 20.401 9.99467 20.0494 10.3463C19.6978 10.6978 19.5002 11.1747 19.5 11.6719H4.5C4.49981 11.1747 4.30221 10.6978 3.95062 10.3463C3.59903 9.99467 3.12222 9.79706 2.625 9.79688V4.17188C3.12222 4.17169 3.59903 3.97408 3.95062 3.62249C4.30221 3.2709 4.49981 2.7941 4.5 2.29688H19.5C19.5 2.79416 19.6975 3.27107 20.0492 3.6227C20.4008 3.97433 20.8777 4.17188 21.375 4.17188Z" fill="#B3E59F"/>
<path d="M18.9688 8.10938C19.5901 8.10938 20.0938 7.6057 20.0938 6.98438C20.0938 6.36305 19.5901 5.85938 18.9688 5.85938C18.3474 5.85938 17.8438 6.36305 17.8438 6.98438C17.8438 7.6057 18.3474 8.10938 18.9688 8.10938Z" fill="#95D6A4"/>
<path d="M12 10.9688C14.2005 10.9688 15.9844 9.18488 15.9844 6.98438C15.9844 4.78387 14.2005 3 12 3C9.79949 3 8.01562 4.78387 8.01562 6.98438C8.01562 9.18488 9.79949 10.9688 12 10.9688Z" fill="#95D6A4"/>
<path d="M0.75 15.5156H23.25V16.8281H0.75V15.5156Z" fill="#B3E59F"/>
<path d="M0.75 12.8906H23.25V14.2031H0.75V12.8906Z" fill="#B3E59F"/>
<path d="M0.75 14.2031H23.25V15.5156H0.75V14.2031Z" fill="#A8D394"/>
<path d="M0.75 15.5156H2.15625V16.8281H0.75V15.5156Z" fill="#98C185"/>
<path d="M0.75 12.8906H2.15625V14.2031H0.75V12.8906Z" fill="#98C185"/>
<path d="M0.75 14.2031H2.15625V15.5156H0.75V14.2031Z" fill="#90B57D"/>
<path d="M10.3594 12.7969H13.6406V16.9219H10.3594V12.7969Z" fill="#EFDAA0"/>
<path d="M10.3594 12.7969H11.7656V16.9219H10.3594V12.7969Z" fill="#CCB989"/>
<path d="M9.42185 6.98438C9.4221 6.04974 9.75087 5.14492 10.3507 4.42813C10.9505 3.71134 11.7831 3.22819 12.7031 3.06314C12.1293 2.95975 11.5397 2.98356 10.9761 3.13289C10.4125 3.28223 9.88853 3.55344 9.44117 3.92739C8.99382 4.30135 8.63399 4.76893 8.38708 5.29714C8.14018 5.82535 8.01221 6.40131 8.01221 6.98438C8.01221 7.56744 8.14018 8.1434 8.38708 8.67161C8.63399 9.19982 8.99382 9.6674 9.44117 10.0414C9.88853 10.4153 10.4125 10.6865 10.9761 10.8359C11.5397 10.9852 12.1293 11.009 12.7031 10.9056C11.7831 10.7406 10.9505 10.2574 10.3507 9.54062C9.75087 8.82383 9.4221 7.91902 9.42185 6.98438V6.98438Z" fill="#8ABF91"/>
<path d="M4.03125 9.53409V4.43466C4.03092 4.36687 4.05525 4.30127 4.09969 4.25009C4.14414 4.19891 4.20568 4.16563 4.27284 4.15645C4.72441 4.0975 5.13911 3.87633 5.43965 3.53418C5.74018 3.19204 5.90602 2.75227 5.90625 2.29688H4.5C4.49981 2.7941 4.30221 3.2709 3.95062 3.62249C3.59903 3.97408 3.12222 4.17169 2.625 4.17188V9.79688C3.12222 9.79706 3.59903 9.99467 3.95062 10.3463C4.30221 10.6978 4.49981 11.1747 4.5 11.6719H5.90625C5.90602 11.2165 5.74018 10.7767 5.43965 10.4346C5.13911 10.0924 4.72441 9.87125 4.27284 9.8123C4.20568 9.80312 4.14414 9.76984 4.09969 9.71866C4.05525 9.66748 4.03092 9.60188 4.03125 9.53409Z" fill="#9AC487"/>
<path d="M5.03125 8.10938C5.65257 8.10938 6.15625 7.6057 6.15625 6.98438C6.15625 6.36305 5.65257 5.85938 5.03125 5.85938C4.40993 5.85938 3.90625 6.36305 3.90625 6.98438C3.90625 7.6057 4.40993 8.10938 5.03125 8.10938Z" fill="#95D6A4"/>
<path d="M4.21875 2.29688C4.21828 2.71942 4.05021 3.12452 3.75143 3.42331C3.45265 3.72209 3.04754 3.89015 2.625 3.89062C2.55041 3.89063 2.47887 3.92026 2.42613 3.973C2.37338 4.02575 2.34375 4.09728 2.34375 4.17188V9.79688C2.34375 9.87147 2.37338 9.943 2.42613 9.99575C2.47887 10.0485 2.55041 10.0781 2.625 10.0781C3.04754 10.0786 3.45265 10.2467 3.75143 10.5454C4.05021 10.8442 4.21828 11.2493 4.21875 11.6719C4.21875 11.7465 4.24838 11.818 4.30113 11.8707C4.35387 11.9235 4.42541 11.9531 4.5 11.9531H19.5C19.5746 11.9531 19.6461 11.9235 19.6989 11.8707C19.7516 11.818 19.7812 11.7465 19.7812 11.6719C19.7817 11.2493 19.9498 10.8442 20.2486 10.5454C20.5474 10.2467 20.9525 10.0786 21.375 10.0781C21.4496 10.0781 21.5211 10.0485 21.5739 9.99575C21.6266 9.943 21.6562 9.87147 21.6562 9.79688V4.17188C21.6562 4.09728 21.6266 4.02575 21.5739 3.973C21.5211 3.92026 21.4496 3.89062 21.375 3.89062C20.9525 3.89015 20.5474 3.72209 20.2486 3.42331C19.9498 3.12452 19.7817 2.71942 19.7812 2.29688C19.7813 2.22228 19.7516 2.15075 19.6989 2.098C19.6461 2.04526 19.5746 2.01562 19.5 2.01562H4.5C4.42541 2.01562 4.35387 2.04526 4.30113 2.098C4.24838 2.15075 4.21875 2.22228 4.21875 2.29688ZM19.237 2.57812C19.2996 3.04856 19.5154 3.4853 19.851 3.82089C20.1866 4.15647 20.6233 4.37223 21.0938 4.43484V9.53391C20.6233 9.59652 20.1866 9.81228 19.851 10.1479C19.5154 10.4834 19.2996 10.9202 19.237 11.3906H4.76297C4.70036 10.9202 4.4846 10.4834 4.14901 10.1479C3.81343 9.81228 3.37669 9.59652 2.90625 9.53391V4.43484C3.37669 4.37223 3.81343 4.15647 4.14901 3.82089C4.4846 3.4853 4.70036 3.04856 4.76297 2.57812H19.237Z" fill="#284268"/>
<path d="M3.625 6.98438C3.625 7.2625 3.70747 7.53439 3.862 7.76565C4.01652 7.9969 4.23614 8.17714 4.4931 8.28358C4.75006 8.39002 5.03281 8.41786 5.3056 8.3636C5.57838 8.30934 5.82895 8.17541 6.02562 7.97874C6.22229 7.78208 6.35622 7.53151 6.41048 7.25872C6.46474 6.98593 6.43689 6.70319 6.33046 6.44623C6.22402 6.18927 6.04378 5.96964 5.81252 5.81512C5.58126 5.6606 5.30938 5.57812 5.03125 5.57812C4.65841 5.57853 4.30097 5.72682 4.03733 5.99046C3.7737 6.25409 3.62541 6.61154 3.625 6.98438V6.98438ZM5.03125 6.14062C5.19813 6.14062 5.36126 6.19011 5.50001 6.28282C5.63877 6.37554 5.74691 6.50731 5.81077 6.66149C5.87463 6.81566 5.89134 6.98531 5.85879 7.14898C5.82623 7.31265 5.74587 7.463 5.62787 7.581C5.50987 7.699 5.35953 7.77936 5.19586 7.81191C5.03219 7.84447 4.86254 7.82776 4.70836 7.7639C4.55419 7.70004 4.42241 7.59189 4.3297 7.45314C4.23699 7.31438 4.1875 7.15125 4.1875 6.98438C4.18776 6.76068 4.27674 6.54622 4.43492 6.38804C4.59309 6.22986 4.80755 6.14089 5.03125 6.14062V6.14062Z" fill="#284268"/>
<path d="M18.9688 8.39063C19.2469 8.39063 19.5188 8.30815 19.75 8.15363C19.9813 7.99911 20.1615 7.77948 20.268 7.52252C20.3744 7.26557 20.4022 6.98282 20.348 6.71003C20.2937 6.43724 20.1598 6.18667 19.9631 5.99001C19.7665 5.79334 19.5159 5.65941 19.2431 5.60515C18.9703 5.55089 18.6876 5.57873 18.4306 5.68517C18.1736 5.79161 17.954 5.97185 17.7995 6.2031C17.645 6.43436 17.5625 6.70625 17.5625 6.98438C17.5629 7.35721 17.7112 7.71466 17.9748 7.97829C18.2385 8.24193 18.5959 8.39022 18.9688 8.39063V8.39063ZM18.9688 6.14063C19.1356 6.14063 19.2988 6.19011 19.4375 6.28282C19.5763 6.37554 19.6844 6.50731 19.7483 6.66149C19.8121 6.81566 19.8288 6.98531 19.7963 7.14898C19.7637 7.31265 19.6834 7.463 19.5654 7.581C19.4474 7.699 19.297 7.77936 19.1334 7.81191C18.9697 7.84447 18.8 7.82776 18.6459 7.7639C18.4917 7.70004 18.3599 7.59189 18.2672 7.45314C18.1745 7.31438 18.125 7.15125 18.125 6.98438C18.1252 6.76068 18.2142 6.54621 18.3724 6.38803C18.5306 6.22985 18.745 6.14087 18.9688 6.14063V6.14063Z" fill="#284268"/>
<path d="M6.38721 3.71716H8.69913C8.77372 3.71716 8.84526 3.68753 8.898 3.63479C8.95075 3.58204 8.98038 3.51051 8.98038 3.43591C8.98038 3.36132 8.95075 3.28978 8.898 3.23704C8.84526 3.18429 8.77372 3.15466 8.69913 3.15466H6.38721C6.31261 3.15466 6.24108 3.18429 6.18833 3.23704C6.13559 3.28978 6.10596 3.36132 6.10596 3.43591C6.10596 3.51051 6.13559 3.58204 6.18833 3.63479C6.24108 3.68753 6.31261 3.71716 6.38721 3.71716V3.71716Z" fill="#284268"/>
<path d="M5.09326 3.71716H5.38707C5.46167 3.71716 5.5332 3.68753 5.58595 3.63479C5.63869 3.58204 5.66832 3.51051 5.66832 3.43591C5.66832 3.36132 5.63869 3.28978 5.58595 3.23704C5.5332 3.18429 5.46167 3.15466 5.38707 3.15466H5.09326C5.01867 3.15466 4.94713 3.18429 4.89439 3.23704C4.84164 3.28978 4.81201 3.36132 4.81201 3.43591C4.81201 3.51051 4.84164 3.58204 4.89439 3.63479C4.94713 3.68753 5.01867 3.71716 5.09326 3.71716Z" fill="#284268"/>
<path d="M23.25 12.6094H23.0625V1.26562C23.0625 1.1413 23.0131 1.02208 22.9252 0.934169C22.8373 0.846261 22.7181 0.796875 22.5938 0.796875H6.84014C6.76555 0.796875 6.69401 0.826507 6.64127 0.879251C6.58852 0.931996 6.55889 1.00353 6.55889 1.07812C6.55889 1.15272 6.58852 1.22425 6.64127 1.277C6.69401 1.32974 6.76555 1.35938 6.84014 1.35938H22.5V12.6094H13.8498C13.8235 12.5799 13.7913 12.5563 13.7553 12.5401C13.7192 12.524 13.6801 12.5156 13.6406 12.5156H10.3594C10.3199 12.5156 10.2808 12.524 10.2447 12.5401C10.2087 12.5563 10.1765 12.5799 10.1502 12.6094H1.5V1.35938H4.49639C4.57098 1.35938 4.64252 1.32974 4.69526 1.277C4.74801 1.22425 4.77764 1.15272 4.77764 1.07812C4.77764 1.00353 4.74801 0.931996 4.69526 0.879251C4.64252 0.826507 4.57098 0.796875 4.49639 0.796875H1.40625C1.28193 0.796875 1.1627 0.846261 1.07479 0.934169C0.986886 1.02208 0.9375 1.1413 0.9375 1.26562V12.6094H0.75C0.675408 12.6094 0.603871 12.639 0.551126 12.6918C0.498382 12.7445 0.46875 12.816 0.46875 12.8906V16.8281C0.46875 16.9027 0.498382 16.9743 0.551126 17.027C0.603871 17.0797 0.675408 17.1094 0.75 17.1094H10.1502C10.1765 17.1389 10.2087 17.1625 10.2447 17.1786C10.2808 17.1948 10.3199 17.2031 10.3594 17.2031H13.6406C13.6801 17.2031 13.7192 17.1948 13.7553 17.1786C13.7913 17.1625 13.8235 17.1389 13.8498 17.1094H23.25C23.3246 17.1094 23.3961 17.0797 23.4489 17.027C23.5016 16.9743 23.5312 16.9027 23.5312 16.8281V12.8906C23.5312 12.816 23.5016 12.7445 23.4489 12.6918C23.3961 12.639 23.3246 12.6094 23.25 12.6094V12.6094ZM10.0781 16.5469H1.03125V15.7969H10.0781V16.5469ZM10.0781 15.2344H1.03125V14.4844H10.0781V15.2344ZM10.0781 13.9219H1.03125V13.1719H10.0781V13.9219ZM13.3594 16.6406H10.6406V13.0781H13.3594V16.6406ZM22.9688 16.5469H13.9219V15.7969H22.9688V16.5469ZM22.9688 13.9219H20.7443C20.6698 13.9219 20.5982 13.9515 20.5455 14.0043C20.4927 14.057 20.4631 14.1285 20.4631 14.2031C20.4631 14.2777 20.4927 14.3493 20.5455 14.402C20.5982 14.4547 20.6698 14.4844 20.7443 14.4844H22.9688V15.2344H13.9219V14.4844H18.4006C18.4752 14.4844 18.5467 14.4547 18.5995 14.402C18.6522 14.3493 18.6818 14.2777 18.6818 14.2031C18.6818 14.1285 18.6522 14.057 18.5995 14.0043C18.5467 13.9515 18.4752 13.9219 18.4006 13.9219H13.9219V13.1719H22.9688V13.9219Z" fill="#284268"/>
<path d="M7.73559 6.88589C7.7231 7.40861 7.80718 7.92914 7.9836 8.42133C7.99625 8.45607 8.01562 8.48798 8.0406 8.51523C8.06558 8.54249 8.09569 8.56456 8.1292 8.58018C8.16271 8.5958 8.19897 8.60466 8.2359 8.60627C8.27284 8.60788 8.30973 8.60219 8.34447 8.58954C8.37921 8.57689 8.41112 8.55752 8.43837 8.53254C8.46563 8.50756 8.48769 8.47746 8.50331 8.44395C8.51893 8.41044 8.5278 8.37418 8.52941 8.33724C8.53102 8.30031 8.52533 8.26342 8.51268 8.22868C8.2138 7.39351 8.22421 6.47887 8.54201 5.65071C8.85981 4.82256 9.46396 4.13576 10.2448 3.71495C11.0257 3.29413 11.9315 3.16717 12.798 3.35711C13.6645 3.54705 14.4341 4.0413 14.9674 4.75018C15.5006 5.45906 15.762 6.3356 15.7043 7.22076C15.6465 8.10591 15.2733 8.94103 14.6525 9.57459C14.0316 10.2081 13.2043 10.5982 12.3205 10.6739C11.4366 10.7496 10.555 10.5059 9.83545 9.98719C9.77496 9.94676 9.70116 9.93135 9.62955 9.94418C9.55793 9.95702 9.49408 9.9971 9.4514 10.056C9.40872 10.1149 9.39053 10.1881 9.40065 10.2602C9.41077 10.3322 9.44842 10.3975 9.50568 10.4424C10.0501 10.8352 10.6797 11.0939 11.343 11.1974C12.0063 11.301 12.6847 11.2465 13.323 11.0384C13.9613 10.8303 14.5414 10.4744 15.0162 9.99974C15.491 9.52509 15.847 8.94506 16.0553 8.30683C16.2636 7.66861 16.3183 6.99022 16.2149 6.32687C16.1116 5.66352 15.8531 5.03395 15.4604 4.48936C15.0678 3.94478 14.5522 3.50058 13.9555 3.1929C13.3588 2.88521 12.6979 2.72275 12.0265 2.71871C9.70973 2.70464 7.78809 4.56961 7.73559 6.88589Z" fill="#284268"/>
<path d="M11.117 4.61511C11.0424 4.61511 10.9709 4.64474 10.9182 4.69749C10.8654 4.75023 10.8358 4.82177 10.8358 4.89636V7.7945C10.8365 7.87239 10.8217 7.94965 10.7924 8.02181C10.7631 8.09397 10.7198 8.15961 10.6649 8.21494C10.6101 8.27026 10.5448 8.31417 10.4729 8.34414C10.401 8.37411 10.3239 8.38954 10.246 8.38954C10.1681 8.38954 10.091 8.37411 10.0191 8.34414C9.94722 8.31417 9.88197 8.27026 9.82714 8.21494C9.7723 8.15961 9.72897 8.09397 9.69965 8.02181C9.67032 7.94965 9.65558 7.87239 9.65627 7.7945V7.39724C9.65627 7.32265 9.62664 7.25111 9.5739 7.19836C9.52115 7.14562 9.44962 7.11599 9.37502 7.11599C9.30043 7.11599 9.22889 7.14562 9.17615 7.19836C9.1234 7.25111 9.09377 7.32265 9.09377 7.39724V7.7945C9.0928 7.94644 9.12189 8.09706 9.17937 8.23771C9.23684 8.37836 9.32156 8.50626 9.42865 8.61404C9.53574 8.72181 9.6631 8.80735 9.80338 8.86572C9.94365 8.92408 10.0941 8.95413 10.246 8.95413C10.398 8.95413 10.5484 8.92408 10.6887 8.86572C10.829 8.80735 10.9563 8.72181 11.0634 8.61404C11.1705 8.50626 11.2552 8.37836 11.3127 8.23771C11.3702 8.09706 11.3993 7.94644 11.3983 7.7945V4.89636C11.3983 4.82177 11.3687 4.75023 11.3159 4.69749C11.2632 4.64474 11.1916 4.61511 11.117 4.61511Z" fill="#284268"/>
<path d="M13.9294 6.95393V6.77726C13.9294 6.70267 13.8998 6.63113 13.847 6.57838C13.7943 6.52564 13.7227 6.49601 13.6481 6.49601C13.5736 6.49601 13.502 6.52564 13.4493 6.57838C13.3965 6.63113 13.3669 6.70267 13.3669 6.77726V6.95393C13.3643 7.08836 13.3091 7.21642 13.2131 7.31058C13.1172 7.40474 12.9881 7.45749 12.8536 7.45749C12.7192 7.45749 12.5901 7.40474 12.4941 7.31058C12.3981 7.21642 12.3429 7.08836 12.3403 6.95393V4.89612C12.3403 4.82153 12.3107 4.74999 12.258 4.69724C12.2052 4.6445 12.1337 4.61487 12.0591 4.61487C11.9845 4.61487 11.913 4.6445 11.8602 4.69724C11.8075 4.74999 11.7778 4.82153 11.7778 4.89612V6.95393C11.7816 7.23679 11.8966 7.50679 12.0979 7.70549C12.2992 7.90419 12.5707 8.0156 12.8536 8.0156C13.1365 8.0156 13.408 7.90419 13.6093 7.70549C13.8107 7.50679 13.9257 7.23679 13.9294 6.95393V6.95393Z" fill="#284268"/>
<path d="M14.6004 6.76879C14.588 6.73395 14.5688 6.7019 14.544 6.67449C14.5192 6.64707 14.4892 6.62482 14.4557 6.60901C14.4223 6.5932 14.3861 6.58415 14.3491 6.58236C14.3122 6.58057 14.2752 6.58609 14.2404 6.5986C14.2056 6.61111 14.1736 6.63036 14.1462 6.65526C14.1189 6.68015 14.0967 6.7102 14.081 6.74367C14.0652 6.77715 14.0563 6.8134 14.0546 6.85035C14.0529 6.8873 14.0585 6.92423 14.0711 6.95901L14.3179 7.64577L13.6531 8.88473L12.6816 8.8837H12.6813C12.6067 8.88365 12.5352 8.91324 12.4824 8.96596C12.4296 9.01867 12.3999 9.09019 12.3999 9.16478C12.3999 9.23937 12.4294 9.31093 12.4822 9.36371C12.5349 9.41648 12.6064 9.44615 12.681 9.4462L13.8209 9.44742H13.8212C13.8721 9.44742 13.922 9.43363 13.9657 9.40751C14.0093 9.3814 14.0451 9.34393 14.0691 9.2991L14.8727 7.80117C14.8913 7.76645 14.9024 7.72821 14.9053 7.68893C14.9082 7.64964 14.9028 7.61019 14.8895 7.57312L14.6004 6.76879Z" fill="#284268"/>
<path d="M12.5098 8.70398C12.5844 8.70398 12.6559 8.67435 12.7087 8.6216C12.7614 8.56886 12.7911 8.49732 12.7911 8.42273C12.7911 8.34814 12.7614 8.2766 12.7087 8.22386C12.6559 8.17111 12.5844 8.14148 12.5098 8.14148H12.4404C12.3658 8.14148 12.2943 8.17111 12.2416 8.22386C12.1888 8.2766 12.1592 8.34814 12.1592 8.42273C12.1592 8.49732 12.1888 8.56886 12.2416 8.6216C12.2943 8.67435 12.3658 8.70398 12.4404 8.70398H12.5098Z" fill="#284268"/>
<path d="M13.2036 8.14148C13.129 8.14148 13.0575 8.17111 13.0047 8.22386C12.952 8.2766 12.9224 8.34814 12.9224 8.42273C12.9224 8.49732 12.952 8.56886 13.0047 8.6216C13.0575 8.67435 13.129 8.70398 13.2036 8.70398H13.273C13.3476 8.70398 13.4191 8.67435 13.4719 8.6216C13.5246 8.56886 13.5542 8.49732 13.5542 8.42273C13.5542 8.34814 13.5246 8.2766 13.4719 8.22386C13.4191 8.17111 13.3476 8.14148 13.273 8.14148H13.2036Z" fill="#284268"/>
</svg>
