<svg width="16" height="17" viewBox="0 0 16 17" fill="none" xmlns="http://www.w3.org/2000/svg">
<g clip-path="url(#clip0_2163_18392)">
<path d="M14.0002 3.16667H11.9335C11.7788 2.41428 11.3694 1.73823 10.7743 1.25248C10.1793 0.766727 9.43497 0.50097 8.66683 0.5L7.3335 0.5C6.56536 0.50097 5.82104 0.766727 5.226 1.25248C4.63095 1.73823 4.22156 2.41428 4.06683 3.16667H2.00016C1.82335 3.16667 1.65378 3.2369 1.52876 3.36193C1.40373 3.48695 1.3335 3.65652 1.3335 3.83333C1.3335 4.01014 1.40373 4.17971 1.52876 4.30474C1.65378 4.42976 1.82335 4.5 2.00016 4.5H2.66683V13.1667C2.66789 14.0504 3.01942 14.8976 3.64431 15.5225C4.2692 16.1474 5.11643 16.4989 6.00016 16.5H10.0002C10.8839 16.4989 11.7311 16.1474 12.356 15.5225C12.9809 14.8976 13.3324 14.0504 13.3335 13.1667V4.5H14.0002C14.177 4.5 14.3465 4.42976 14.4716 4.30474C14.5966 4.17971 14.6668 4.01014 14.6668 3.83333C14.6668 3.65652 14.5966 3.48695 14.4716 3.36193C14.3465 3.2369 14.177 3.16667 14.0002 3.16667ZM7.3335 1.83333H8.66683C9.08035 1.83384 9.48358 1.96225 9.82124 2.20096C10.1589 2.43967 10.4144 2.77699 10.5528 3.16667H5.4475C5.58588 2.77699 5.84143 2.43967 6.17909 2.20096C6.51675 1.96225 6.91998 1.83384 7.3335 1.83333ZM12.0002 13.1667C12.0002 13.6971 11.7894 14.2058 11.4144 14.5809C11.0393 14.956 10.5306 15.1667 10.0002 15.1667H6.00016C5.46973 15.1667 4.96102 14.956 4.58595 14.5809C4.21088 14.2058 4.00016 13.6971 4.00016 13.1667V4.5H12.0002V13.1667Z" fill="#FF4842"/>
<path d="M6.66667 12.4998C6.84348 12.4998 7.01305 12.4296 7.13807 12.3046C7.2631 12.1796 7.33333 12.01 7.33333 11.8332V7.83317C7.33333 7.65636 7.2631 7.48679 7.13807 7.36177C7.01305 7.23674 6.84348 7.1665 6.66667 7.1665C6.48986 7.1665 6.32029 7.23674 6.19526 7.36177C6.07024 7.48679 6 7.65636 6 7.83317V11.8332C6 12.01 6.07024 12.1796 6.19526 12.3046C6.32029 12.4296 6.48986 12.4998 6.66667 12.4998Z" fill="#FF4842"/>
<path d="M9.33317 12.4998C9.50998 12.4998 9.67955 12.4296 9.80457 12.3046C9.9296 12.1796 9.99984 12.01 9.99984 11.8332V7.83317C9.99984 7.65636 9.9296 7.48679 9.80457 7.36177C9.67955 7.23674 9.50998 7.1665 9.33317 7.1665C9.15636 7.1665 8.98679 7.23674 8.86177 7.36177C8.73674 7.48679 8.6665 7.65636 8.6665 7.83317V11.8332C8.6665 12.01 8.73674 12.1796 8.86177 12.3046C8.98679 12.4296 9.15636 12.4998 9.33317 12.4998Z" fill="#FF4842"/>
</g>
<defs>
<clipPath id="clip0_2163_18392">
<rect width="16" height="16" fill="white" transform="translate(0 0.5)"/>
</clipPath>
</defs>
</svg>
